# This file uses centimeters as units for non-parametric coordinates.

mtllib arrow.mtl
g default
v -0.056290 0.908800 -0.392041
v 0.000000 0.908800 -0.424561
v 0.056290 0.908800 -0.392041
v 0.098286 0.549503 0.000000
v 0.056290 0.908800 0.392041
v 0.000000 0.908800 0.424561
v -0.056290 0.908800 0.392041
v -0.095888 0.549503 0.000000
v 0.000000 0.000064 0.000000
v -0.069854 0.968893 0.000000
v -0.056290 1.101655 -0.481212
v -0.056290 1.101655 0.481212
v 0.000000 1.101655 0.521129
v 0.056290 1.101655 0.481212
v 0.069854 0.968893 0.000000
v 0.056290 1.101655 -0.481212
v 0.000000 1.101655 -0.521129
vt 0.519681 0.214965
vt 0.696257 0.376793
vt 0.696257 0.624262
vt 0.479518 0.128103
vt 0.696257 0.187899
vt 0.872833 0.214965
vt 0.912996 0.128103
vt 0.102351 0.556167
vt 0.278927 0.717995
vt 0.278927 0.965463
vt 0.062188 0.469304
vt 0.278927 0.529100
vt 0.455503 0.556167
vt 0.495666 0.469304
vn -0.000000 1.000000 0.000000
vn -0.000000 1.000000 0.000000
vn -0.000000 1.000000 0.000000
vn -0.000000 1.000000 0.000000
vn -0.000000 1.000000 0.000000
vn -0.000000 1.000000 0.000000
vn -0.000000 1.000000 0.000000
vn -0.000000 1.000000 0.000000
vn -0.463729 -0.375018 -0.802693
vn -0.463729 -0.375018 -0.802693
vn -0.463729 -0.375018 -0.802694
vn 0.463730 -0.375018 -0.802693
vn 0.463730 -0.375018 -0.802693
vn 0.463730 -0.375018 -0.802693
vn 0.951098 -0.170136 -0.257809
vn 0.951098 -0.170136 -0.257809
vn 0.951098 -0.170136 -0.257809
vn 0.951098 -0.170136 0.257809
vn 0.951098 -0.170136 0.257809
vn 0.951098 -0.170136 0.257809
vn 0.463731 -0.375018 0.802693
vn 0.463731 -0.375017 0.802693
vn 0.463731 -0.375017 0.802693
vn -0.463730 -0.375018 0.802693
vn -0.463730 -0.375018 0.802693
vn -0.463730 -0.375018 0.802693
vn -0.954091 -0.166508 0.248969
vn -0.954091 -0.166508 0.248969
vn -0.954091 -0.166508 0.248969
vn -0.954091 -0.166508 -0.248969
vn -0.954091 -0.166508 -0.248969
vn -0.954091 -0.166508 -0.248969
vn -0.998522 0.036610 -0.040160
vn -0.998522 0.036610 -0.040160
vn -0.998522 0.036610 -0.040160
vn -0.998522 0.036610 -0.040160
vn -0.998522 0.036610 0.040160
vn -0.998522 0.036610 0.040160
vn -0.998522 0.036610 0.040160
vn -0.998522 0.036610 0.040160
vn -0.501528 -0.375355 0.779473
vn -0.501528 -0.375355 0.779473
vn -0.501528 -0.375355 0.779473
vn -0.501528 -0.375355 0.779473
vn 0.501529 -0.375355 0.779473
vn 0.501529 -0.375355 0.779473
vn 0.501529 -0.375355 0.779473
vn 0.501529 -0.375355 0.779473
vn 0.998352 0.040428 0.040739
vn 0.998352 0.040428 0.040739
vn 0.998352 0.040428 0.040739
vn 0.998352 0.040428 0.040739
vn 0.998352 0.040428 -0.040739
vn 0.998352 0.040428 -0.040739
vn 0.998352 0.040428 -0.040739
vn 0.998352 0.040428 -0.040739
vn 0.501529 -0.375355 -0.779473
vn 0.501529 -0.375355 -0.779473
vn 0.501529 -0.375355 -0.779473
vn 0.501529 -0.375355 -0.779473
vn -0.501528 -0.375355 -0.779473
vn -0.501528 -0.375355 -0.779473
vn -0.501528 -0.375355 -0.779473
vn -0.501528 -0.375355 -0.779473
s off
g Arrow
usemtl initialShadingGroup
f 11//1 10//2 12//3 13//4 14//5 15//6 16//7 17//8
f 1//9 2//10 9//11
f 2//12 3//13 9//14
f 3/1/15 4/2/16 9/3/17
f 4/2/18 5/6/19 9/3/20
f 5//21 6//22 9//23
f 6//24 7//25 9//26
f 7/8/27 8/9/28 9/10/29
f 8/9/30 1/13/31 9/10/32
f 1/13/33 8/9/34 10/12/35 11/14/36
f 8/9/37 7/8/38 12/11/39 10/12/40
f 7//41 6//42 13//43 12//44
f 6//45 5//46 14//47 13//48
f 5/6/49 4/2/50 15/5/51 14/7/52
f 4/2/53 3/1/54 16/4/55 15/5/56
f 3//57 2//58 17//59 16//60
f 2//61 1//62 11//63 17//64
