# This file uses centimeters as units for non-parametric coordinates.

mtllib arrow.mtl
g default
v -0.078408 0.181760 0.011258
v -0.084912 0.181760 -0.000000
v -0.078408 0.181760 -0.011258
v 0.000000 0.109901 -0.019657
v 0.078408 0.181760 -0.011258
v 0.084912 0.181760 0.000000
v 0.078408 0.181760 0.011258
v -0.000000 0.109901 0.019178
v 0.000000 0.000013 0.000000
v -0.000000 0.193779 0.013971
v -0.096242 0.220331 0.011258
v 0.096242 0.220331 0.011258
v 0.104226 0.220331 0.000000
v 0.096242 0.220331 -0.011258
v 0.000000 0.193779 -0.013971
v -0.096242 0.220331 -0.011258
v -0.104226 0.220331 -0.000000
vt 0.278927 0.965463
vt 0.278927 0.717995
vt 0.455503 0.556167
vt 0.278927 0.965463
vt 0.455503 0.556167
vt 0.278927 0.717995
vt 0.278927 0.529100
vt 0.495666 0.469304
vt 0.278927 0.717995
vt 0.102351 0.556167
vt 0.062188 0.469304
vt 0.278927 0.529100
vt 0.696257 0.187899
vt 0.912996 0.128103
vt 0.696257 0.376793
vt 0.519681 0.214965
vn 0.000000 1.000000 0.000000
vn 0.000000 1.000000 0.000000
vn 0.000000 1.000000 0.000000
vn 0.000000 1.000000 0.000000
vn 0.000000 1.000000 0.000000
vn 0.000000 1.000000 0.000000
vn 0.000000 1.000000 0.000000
vn 0.000000 1.000000 0.000000
vn -0.802693 -0.375018 0.463729
vn -0.802693 -0.375018 0.463729
vn -0.802694 -0.375018 0.463729
vn -0.802693 -0.375018 -0.463730
vn -0.802693 -0.375018 -0.463730
vn -0.802693 -0.375018 -0.463730
vn -0.257809 -0.170136 -0.951098
vn -0.257809 -0.170136 -0.951098
vn -0.257809 -0.170136 -0.951098
vn 0.257809 -0.170136 -0.951098
vn 0.257809 -0.170136 -0.951098
vn 0.257809 -0.170136 -0.951098
vn 0.802693 -0.375018 -0.463731
vn 0.802693 -0.375017 -0.463731
vn 0.802693 -0.375017 -0.463731
vn 0.802693 -0.375018 0.463730
vn 0.802693 -0.375018 0.463730
vn 0.802693 -0.375018 0.463730
vn 0.248969 -0.166508 0.954091
vn 0.248969 -0.166508 0.954091
vn 0.248969 -0.166508 0.954091
vn -0.248969 -0.166508 0.954091
vn -0.248969 -0.166508 0.954091
vn -0.248969 -0.166508 0.954091
vn -0.040160 0.036610 0.998522
vn -0.040160 0.036610 0.998522
vn -0.040160 0.036610 0.998522
vn -0.040160 0.036610 0.998522
vn 0.040160 0.036610 0.998522
vn 0.040160 0.036610 0.998522
vn 0.040160 0.036610 0.998522
vn 0.040160 0.036610 0.998522
vn 0.779473 -0.375355 0.501528
vn 0.779473 -0.375355 0.501528
vn 0.779473 -0.375355 0.501528
vn 0.779473 -0.375355 0.501528
vn 0.779473 -0.375355 -0.501529
vn 0.779473 -0.375355 -0.501529
vn 0.779473 -0.375355 -0.501529
vn 0.779473 -0.375355 -0.501529
vn 0.040739 0.040428 -0.998352
vn 0.040739 0.040428 -0.998352
vn 0.040739 0.040428 -0.998352
vn 0.040739 0.040428 -0.998352
vn -0.040739 0.040428 -0.998352
vn -0.040739 0.040428 -0.998352
vn -0.040739 0.040428 -0.998352
vn -0.040739 0.040428 -0.998352
vn -0.779473 -0.375355 -0.501529
vn -0.779473 -0.375355 -0.501529
vn -0.779473 -0.375355 -0.501529
vn -0.779473 -0.375355 -0.501529
vn -0.779473 -0.375355 0.501528
vn -0.779473 -0.375355 0.501528
vn -0.779473 -0.375355 0.501528
vn -0.779473 -0.375355 0.501528
s off
g Arrow
usemtl initialShadingGroup
f 11/1/1 10/2/2 12/3/3 13/4/4 14/5/5 15/6/6 16/7/7 17/8/8
f 1/9/9 2/10/10 9/11/11
f 2//12 3//13 9//14
f 3//15 4//16 9//17
f 4//18 5//19 9//20
f 5//21 6//22 9//23
f 6/14/24 7/15/25 9/16/26
f 7//27 8//28 9//29
f 8//30 1//31 9//32
f 1//33 8//34 10//35 11//36
f 8//37 7//38 12//39 10//40
f 7//41 6//42 13//43 12//44
f 6//45 5//46 14//47 13//48
f 5//49 4//50 15//51 14//52
f 4//53 3//54 16//55 15//56
f 3//57 2//58 17//59 16//60
f 2//61 1//62 11//63 17//64
