# This file uses centimeters as units for non-parametric coordinates.

mtllib arrow.mtl
g default
v -0.011258 0.181760 -0.078408
v 0.000000 0.181760 -0.084912
v 0.011258 0.181760 -0.078408
v 0.019657 0.109901 0.000000
v 0.011258 0.181760 0.078408
v 0.000000 0.181760 0.084912
v -0.011258 0.181760 0.078408
v -0.019178 0.109901 0.000000
v 0.000000 0.000013 0.000000
v -0.013971 0.193779 0.000000
v -0.011258 0.220331 -0.096242
v -0.011258 0.220331 0.096242
v 0.000000 0.220331 0.104226
v 0.011258 0.220331 0.096242
v 0.013971 0.193779 0.000000
v 0.011258 0.220331 -0.096242
v 0.000000 0.220331 -0.104226
vt 0.519681 0.214965
vt 0.696257 0.376793
vt 0.696257 0.624262
vt 0.872833 0.214965
vt 0.102351 0.556167
vt 0.278927 0.717995
vt 0.278927 0.965463
vt 0.455503 0.556167
vt 0.278927 0.529100
vt 0.495666 0.469304
vt 0.062188 0.469304
vt 0.696257 0.187899
vt 0.912996 0.128103
vt 0.479518 0.128103
vt 0.278927 0.965463
vt 0.455503 0.556167
vt 0.278927 0.717995
vt 0.278927 0.717995
vt 0.278927 0.529100
vn 0.000000 1.000000 0.000000
vn 0.000000 1.000000 0.000000
vn 0.000000 1.000000 0.000000
vn 0.000000 1.000000 0.000000
vn 0.000000 1.000000 0.000000
vn 0.000000 1.000000 0.000000
vn 0.000000 1.000000 0.000000
vn 0.000000 1.000000 0.000000
vn -0.463729 -0.375018 -0.802693
vn -0.463729 -0.375018 -0.802693
vn -0.463729 -0.375018 -0.802694
vn 0.463730 -0.375018 -0.802693
vn 0.463730 -0.375018 -0.802693
vn 0.463730 -0.375018 -0.802693
vn 0.951098 -0.170136 -0.257809
vn 0.951098 -0.170136 -0.257809
vn 0.951098 -0.170136 -0.257809
vn 0.951098 -0.170136 0.257809
vn 0.951098 -0.170136 0.257809
vn 0.951098 -0.170136 0.257809
vn 0.463731 -0.375018 0.802693
vn 0.463731 -0.375017 0.802693
vn 0.463731 -0.375017 0.802693
vn -0.463730 -0.375018 0.802693
vn -0.463730 -0.375018 0.802693
vn -0.463730 -0.375018 0.802693
vn -0.954091 -0.166508 0.248969
vn -0.954091 -0.166508 0.248969
vn -0.954091 -0.166508 0.248969
vn -0.954091 -0.166508 -0.248969
vn -0.954091 -0.166508 -0.248969
vn -0.954091 -0.166508 -0.248969
vn -0.998522 0.036610 -0.040160
vn -0.998522 0.036610 -0.040160
vn -0.998522 0.036610 -0.040160
vn -0.998522 0.036610 -0.040160
vn -0.998522 0.036610 0.040160
vn -0.998522 0.036610 0.040160
vn -0.998522 0.036610 0.040160
vn -0.998522 0.036610 0.040160
vn -0.501528 -0.375355 0.779473
vn -0.501528 -0.375355 0.779473
vn -0.501528 -0.375355 0.779473
vn -0.501528 -0.375355 0.779473
vn 0.501529 -0.375355 0.779473
vn 0.501529 -0.375355 0.779473
vn 0.501529 -0.375355 0.779473
vn 0.501529 -0.375355 0.779473
vn 0.998352 0.040428 0.040739
vn 0.998352 0.040428 0.040739
vn 0.998352 0.040428 0.040739
vn 0.998352 0.040428 0.040739
vn 0.998352 0.040428 -0.040739
vn 0.998352 0.040428 -0.040739
vn 0.998352 0.040428 -0.040739
vn 0.998352 0.040428 -0.040739
vn 0.501529 -0.375355 -0.779473
vn 0.501529 -0.375355 -0.779473
vn 0.501529 -0.375355 -0.779473
vn 0.501529 -0.375355 -0.779473
vn -0.501528 -0.375355 -0.779473
vn -0.501528 -0.375355 -0.779473
vn -0.501528 -0.375355 -0.779473
vn -0.501528 -0.375355 -0.779473
s off
g Arrow
usemtl initialShadingGroup
f 11//1 10//2 12//3 13//4 14//5 15//6 16//7 17//8
f 1//9 2//10 9//11
f 2//12 3//13 9//14
f 3/7/15 4/6/16 9/8/17
f 4/15/18 5/16/19 9/17/20
f 5/9/21 6/10/22 9/18/23
f 6/5/24 7/11/25 9/19/26
f 7//27 8//28 9//29
f 8//30 1//31 9//32
f 1//33 8//34 10//35 11//36
f 8/12/37 7/13/38 12/2/39 10/1/40
f 7//41 6//42 13//43 12//44
f 6//45 5//46 14//47 13//48
f 5//49 4//50 15//51 14//52
f 4//53 3//54 16//55 15//56
f 3//57 2//58 17//59 16//60
f 2//61 1//62 11//63 17//64
