# This file uses centimeters as units for non-parametric coordinates.

mtllib bigRock3.mtl
g default
v 0.294778 0.030307 -0.510569
v -0.546334 0.030307 -0.510570
v -0.841112 0.030307 0.000000
v -0.491212 0.030307 0.510569
v 0.544316 0.030307 0.510570
v 0.839093 0.030307 0.000000
v 0.933098 0.777289 -0.306849
v -0.186579 0.777289 -0.306849
v -0.520442 0.777289 0.115472
v 0.265370 0.777289 0.537794
v 0.680515 0.777289 0.537794
v 1.014377 0.777289 0.115472
v 0.000000 0.030307 0.000000
v 0.597815 0.763141 0.108455
v 0.397596 0.501289 -0.337792
v -0.050413 0.476698 -0.253554
v -0.470094 0.476698 0.108455
v -0.261087 0.476698 0.470464
v 0.617138 0.476698 0.470464
v 0.856140 0.501289 0.024217
v 0.326921 0.225372 -0.510570
v -0.349899 0.225372 -0.510570
v -0.644677 0.225372 0.000000
v -0.294778 0.225372 0.510570
v 0.544316 0.225372 0.510570
v 0.871237 0.225372 0.000000
v 0.554680 0.628131 -0.337792
v 0.879368 0.628131 0.024217
v 0.640366 0.603539 0.470464
v -0.290278 0.603539 0.470464
v -0.499285 0.603539 0.108455
v 0.106671 0.603539 -0.253554
v 0.843997 0.739411 -0.405122
v 1.038314 0.739411 0.017200
v 0.759493 0.710722 0.537794
v 0.135073 0.710722 0.537794
v -0.560703 0.710722 0.115472
v -0.130600 0.710722 -0.306850
v 0.432340 0.343091 -0.442263
v 0.890885 0.343091 0.024217
v 0.458545 0.318500 0.470464
v -0.209006 0.318500 0.470464
v -0.418012 0.318500 0.108455
v -0.209006 0.318500 -0.358025
vt 0.375000 0.500470
vt 0.416667 0.500470
vt 0.416667 0.557508
vt 0.375000 0.557508
vt 0.458333 0.500470
vt 0.458333 0.557508
vt 0.500000 0.500470
vt 0.500000 0.557508
vt 0.541667 0.500470
vt 0.541667 0.557508
vt 0.583333 0.500470
vt 0.583333 0.557508
vt 0.625000 0.500470
vt 0.625000 0.557508
vt 0.421875 0.020934
vt 0.578125 0.020934
vt 0.500000 0.150000
vt 0.343750 0.156250
vt 0.421875 0.291566
vt 0.578125 0.291566
vt 0.656250 0.156250
vt 0.578125 0.979066
vt 0.421875 0.979066
vt 0.500000 0.837500
vt 0.343750 0.843750
vt 0.421875 0.708434
vt 0.578125 0.708434
vt 0.656250 0.843750
vt 0.375000 0.374693
vt 0.416667 0.374693
vt 0.416667 0.429332
vt 0.375000 0.429332
vt 0.458333 0.374693
vt 0.458333 0.429332
vt 0.500000 0.374693
vt 0.500000 0.429332
vt 0.541667 0.374693
vt 0.541667 0.429332
vt 0.583333 0.374693
vt 0.583333 0.429332
vt 0.625000 0.374693
vt 0.625000 0.429332
vt 0.375000 0.312500
vt 0.416667 0.312500
vt 0.458333 0.312500
vt 0.500000 0.312500
vt 0.541667 0.312500
vt 0.583333 0.312500
vt 0.625000 0.312500
vt 0.625000 0.612067
vt 0.583333 0.612067
vt 0.541667 0.612067
vt 0.500000 0.612067
vt 0.458333 0.612067
vt 0.416667 0.612067
vt 0.375000 0.612067
vt 0.625000 0.688440
vt 0.583333 0.688440
vt 0.541667 0.688440
vt 0.500000 0.688440
vt 0.458333 0.688440
vt 0.416667 0.688440
vt 0.375000 0.688440
vn -0.170551 0.447324 -0.877960
vn -0.156696 0.543168 -0.824873
vn -0.141605 -0.205802 -0.968294
vn -0.111056 -0.385488 -0.916005
vn -0.629505 0.341858 -0.697751
vn -0.638642 0.349648 -0.685480
vn -0.540679 -0.407151 -0.736135
vn -0.561353 -0.304663 -0.769456
vn -0.841496 -0.236317 0.485838
vn -0.840074 -0.242971 0.485017
vn -0.679518 0.412339 0.606821
vn -0.689195 0.395713 0.606977
vn 0.000000 0.000000 1.000000
vn 0.000000 0.000000 1.000000
vn 0.000000 -0.325870 0.945415
vn 0.000000 -0.084592 0.996416
vn 0.809303 -0.254112 0.529581
vn 0.818282 -0.242443 0.521187
vn 0.705225 -0.620198 0.343529
vn 0.744622 -0.556797 0.368123
vn 0.673306 0.037822 -0.738396
vn 0.663971 0.159574 -0.730533
vn 0.545031 -0.662544 -0.513787
vn 0.485008 -0.774410 -0.406271
vn 0.000000 -1.000000 0.000000
vn 0.000000 -1.000000 0.000000
vn 0.000000 -1.000000 0.000000
vn 0.000000 -1.000000 0.000000
vn 0.000000 -1.000000 0.000000
vn 0.000000 -1.000000 0.000000
vn 0.000000 -1.000000 0.000000
vn 0.000000 -1.000000 0.000000
vn 0.000000 -1.000000 0.000000
vn 0.000000 -1.000000 0.000000
vn 0.000000 -1.000000 0.000000
vn 0.000000 -1.000000 0.000000
vn 0.000000 -1.000000 0.000000
vn 0.000000 -1.000000 0.000000
vn 0.000000 -1.000000 0.000000
vn 0.000000 -1.000000 0.000000
vn 0.000000 -1.000000 0.000000
vn 0.000000 -1.000000 0.000000
vn -0.009157 0.999603 0.026661
vn 0.009971 0.999834 0.015229
vn -0.002557 0.999985 0.004812
vn 0.009971 0.999834 0.015229
vn 0.012638 0.999918 -0.002007
vn -0.002557 0.999985 0.004812
vn 0.012638 0.999918 -0.002007
vn 0.010453 0.999637 -0.024847
vn -0.002557 0.999985 0.004812
vn 0.010453 0.999637 -0.024847
vn -0.012856 0.999453 -0.030459
vn -0.002557 0.999985 0.004812
vn -0.012856 0.999453 -0.030459
vn -0.033828 0.999404 -0.006877
vn -0.002557 0.999985 0.004812
vn -0.033828 0.999404 -0.006877
vn -0.009157 0.999603 0.026661
vn -0.002557 0.999985 0.004812
vn -0.032328 0.434708 -0.899991
vn -0.012566 0.168970 -0.985541
vn -0.085142 0.705613 -0.703464
vn -0.112311 0.657740 -0.744825
vn -0.516261 0.806705 -0.287580
vn -0.541266 0.784065 -0.303764
vn -0.541293 0.759985 -0.359757
vn -0.501160 0.803384 -0.321579
vn -0.622709 0.657885 0.423581
vn -0.596088 0.697019 0.398553
vn -0.802145 0.348395 0.484958
vn -0.770432 0.431564 0.469241
vn 0.000000 0.053226 0.998582
vn 0.000000 0.075172 0.997171
vn 0.000000 0.151611 0.988440
vn 0.000000 0.173235 0.984880
vn 0.826556 0.063527 0.559258
vn 0.827678 0.059076 0.558086
vn 0.794480 -0.047682 0.605415
vn 0.793788 -0.014567 0.608020
vn 0.686236 -0.102413 -0.720133
vn 0.682998 -0.107293 -0.722497
vn 0.683542 0.101054 -0.722882
vn 0.671554 0.178449 -0.719146
vn 0.000000 0.000000 -1.000000
vn 0.000000 0.000000 -1.000000
vn -0.012566 0.168970 -0.985541
vn -0.032328 0.434708 -0.899991
vn -0.652686 0.657268 -0.376828
vn -0.652686 0.657268 -0.376829
vn -0.541266 0.784065 -0.303764
vn -0.516261 0.806705 -0.287580
vn -0.634522 0.638977 0.434845
vn -0.634522 0.638977 0.434845
vn -0.596088 0.697019 0.398553
vn -0.622709 0.657885 0.423581
vn 0.000000 0.000000 1.000000
vn 0.000000 0.000000 1.000000
vn 0.000000 0.075172 0.997171
vn 0.000000 0.053226 0.998582
vn 0.852041 -0.070202 0.518747
vn 0.852041 -0.070202 0.518747
vn 0.827678 0.059076 0.558086
vn 0.826556 0.063527 0.559258
vn 0.679830 -0.112025 -0.724764
vn 0.679830 -0.112025 -0.724764
vn 0.682998 -0.107293 -0.722497
vn 0.686236 -0.102413 -0.720133
vn 0.485008 -0.774410 -0.406271
vn 0.545031 -0.662544 -0.513787
vn 0.420741 -0.866904 -0.267310
vn 0.575408 -0.760320 -0.301363
vn 0.744622 -0.556797 0.368123
vn 0.705225 -0.620198 0.343529
vn 0.637969 -0.703015 0.314270
vn 0.733116 -0.557236 0.389910
vn 0.000000 -0.084592 0.996416
vn 0.000000 -0.325870 0.945415
vn 0.000000 -0.420228 0.907419
vn 0.000000 -0.506722 0.862109
vn -0.689195 0.395713 0.606977
vn -0.679518 0.412339 0.606821
vn -0.435017 0.558871 0.705991
vn -0.466620 0.602496 0.647506
vn -0.561353 -0.304663 -0.769456
vn -0.540679 -0.407151 -0.736135
vn -0.540907 -0.565057 -0.623001
vn -0.494193 -0.629626 -0.599453
vn -0.111056 -0.385488 -0.916005
vn -0.141605 -0.205802 -0.968294
vn -0.062575 0.500686 -0.863364
vn -0.056904 0.563882 -0.823893
vn 0.575408 -0.760320 -0.301363
vn 0.420741 -0.866904 -0.267310
vn 0.950594 -0.012985 -0.310166
vn 0.950594 -0.012985 -0.310166
vn 0.733116 -0.557236 0.389910
vn 0.637969 -0.703015 0.314270
vn 0.798372 0.290254 0.527594
vn 0.798372 0.290254 0.527594
vn 0.000000 -0.506722 0.862109
vn 0.000000 -0.420228 0.907419
vn 0.000000 0.000000 1.000000
vn 0.000000 0.000000 1.000000
vn -0.466620 0.602496 0.647506
vn -0.435017 0.558871 0.705991
vn -0.418192 0.535743 0.733550
vn -0.418192 0.535743 0.733550
vn -0.494193 -0.629626 -0.599453
vn -0.540907 -0.565057 -0.623001
vn -0.738812 -0.087224 -0.668243
vn -0.738812 -0.087224 -0.668243
vn -0.056904 0.563882 -0.823893
vn -0.062575 0.500686 -0.863364
vn -0.043297 0.691864 -0.720728
vn -0.043297 0.691864 -0.720728
vn 0.671554 0.178449 -0.719146
vn 0.683542 0.101054 -0.722882
vn 0.663971 0.159574 -0.730533
vn 0.673306 0.037822 -0.738396
vn 0.793788 -0.014567 0.608020
vn 0.794480 -0.047682 0.605415
vn 0.818282 -0.242443 0.521187
vn 0.809303 -0.254112 0.529581
vn 0.000000 0.173235 0.984880
vn 0.000000 0.151611 0.988440
vn 0.000000 0.000000 1.000000
vn 0.000000 0.000000 1.000000
vn -0.770432 0.431564 0.469241
vn -0.802145 0.348395 0.484958
vn -0.840074 -0.242971 0.485017
vn -0.841496 -0.236317 0.485838
vn -0.501160 0.803384 -0.321579
vn -0.541293 0.759985 -0.359757
vn -0.638642 0.349648 -0.685480
vn -0.629505 0.341858 -0.697751
vn -0.112311 0.657740 -0.744825
vn -0.085142 0.705613 -0.703464
vn -0.156696 0.543168 -0.824873
vn -0.170551 0.447324 -0.877960
s off
g pCylinder2
usemtl initialShadingGroup
f 15/1/1 16/2/2 32/3/3 27/4/4
f 16/2/5 17/5/6 31/6/7 32/3/8
f 17/5/9 18/7/10 30/8/11 31/6/12
f 18/7/13 19/9/14 29/10/15 30/8/16
f 19/9/17 20/11/18 28/12/19 29/10/20
f 20/11/21 15/13/22 27/14/23 28/12/24
f 2/15/25 1/16/26 13/17/27
f 3/18/28 2/15/29 13/17/30
f 4/19/31 3/18/32 13/17/33
f 5/20/34 4/19/35 13/17/36
f 6/21/37 5/20/38 13/17/39
f 1/16/40 6/21/41 13/17/42
f 7/22/43 8/23/44 14/24/45
f 8/23/46 9/25/47 14/24/48
f 9/25/49 10/26/50 14/24/51
f 10/26/52 11/27/53 14/24/54
f 11/27/55 12/28/56 14/24/57
f 12/28/58 7/22/59 14/24/60
f 21/29/61 22/30/62 44/31/63 39/32/64
f 22/30/65 23/33/66 43/34/67 44/31/68
f 23/33/69 24/35/70 42/36/71 43/34/72
f 24/35/73 25/37/74 41/38/75 42/36/76
f 25/37/77 26/39/78 40/40/79 41/38/80
f 26/39/81 21/41/82 39/42/83 40/40/84
f 1/43/85 2/44/86 22/30/87 21/29/88
f 2/44/89 3/45/90 23/33/91 22/30/92
f 3/45/93 4/46/94 24/35/95 23/33/96
f 4/46/97 5/47/98 25/37/99 24/35/100
f 5/47/101 6/48/102 26/39/103 25/37/104
f 6/48/105 1/49/106 21/41/107 26/39/108
f 28/12/109 27/14/110 33/50/111 34/51/112
f 29/10/113 28/12/114 34/51/115 35/52/116
f 30/8/117 29/10/118 35/52/119 36/53/120
f 31/6/121 30/8/122 36/53/123 37/54/124
f 32/3/125 31/6/126 37/54/127 38/55/128
f 27/4/129 32/3/130 38/55/131 33/56/132
f 34/51/133 33/50/134 7/57/135 12/58/136
f 35/52/137 34/51/138 12/58/139 11/59/140
f 36/53/141 35/52/142 11/59/143 10/60/144
f 37/54/145 36/53/146 10/60/147 9/61/148
f 38/55/149 37/54/150 9/61/151 8/62/152
f 33/56/153 38/55/154 8/62/155 7/63/156
f 40/40/157 39/42/158 15/13/159 20/11/160
f 41/38/161 40/40/162 20/11/163 19/9/164
f 42/36/165 41/38/166 19/9/167 18/7/168
f 43/34/169 42/36/170 18/7/171 17/5/172
f 44/31/173 43/34/174 17/5/175 16/2/176
f 39/32/177 44/31/178 16/2/179 15/1/180
