# This file uses centimeters as units for non-parametric coordinates.

mtllib big rock2.mtl
g default
v 0.705189 0.072502 -1.221422
v -1.306982 0.072502 -1.221423
v -2.012171 0.072502 -0.000000
v -1.175115 0.072502 1.221422
v 1.302153 0.072502 1.221423
v 2.007342 0.072502 0.000000
v 2.232228 1.859489 -0.734068
v -0.446349 1.859489 -0.734068
v -1.245041 1.859489 0.276241
v 0.634837 1.859489 1.286551
v 1.627978 1.859489 1.286551
v 2.426669 1.859489 0.276241
v 0.000000 0.072502 0.000000
v 1.430138 1.825643 0.259454
v 0.951159 1.199222 -0.808092
v -0.120601 1.140392 -0.606572
v -1.124593 1.140392 0.259454
v -0.624593 1.140392 1.125479
v 1.476363 1.140392 1.125479
v 2.048123 1.199222 0.057933
v 0.782085 0.539152 -1.221423
v -0.837055 0.539152 -1.221423
v -1.542244 0.539152 -0.000000
v -0.705189 0.539152 1.221423
v 1.302153 0.539152 1.221423
v 2.084239 0.539152 0.000000
v 1.326947 1.502662 -0.808092
v 2.103691 1.502662 0.057933
v 1.531932 1.443832 1.125479
v -0.694426 1.443832 1.125479
v -1.194426 1.443832 0.259454
v 0.255187 1.443832 -0.606572
v 2.019072 1.768874 -0.969164
v 2.483932 1.768874 0.041146
v 1.816915 1.700242 1.286551
v 0.323131 1.700242 1.286551
v -1.341356 1.700242 0.276241
v -0.312432 1.700242 -0.734069
v 1.034277 0.820769 -1.058016
v 2.131242 0.820769 0.057933
v 1.096965 0.761939 1.125479
v -0.500000 0.761939 1.125479
v -1.000000 0.761939 0.259454
v -0.500000 0.761939 -0.856495
vt 0.578125 0.020934
vt 0.421875 0.020934
vt 0.343750 0.156250
vt 0.421875 0.291566
vt 0.578125 0.291566
vt 0.656250 0.156250
vt 0.375000 0.312500
vt 0.416667 0.312500
vt 0.458333 0.312500
vt 0.500000 0.312500
vt 0.541667 0.312500
vt 0.583333 0.312500
vt 0.625000 0.312500
vt 0.375000 0.688440
vt 0.416667 0.688440
vt 0.458333 0.688440
vt 0.500000 0.688440
vt 0.541667 0.688440
vt 0.583333 0.688440
vt 0.625000 0.688440
vt 0.578125 0.708434
vt 0.421875 0.708434
vt 0.343750 0.843750
vt 0.421875 0.979066
vt 0.578125 0.979066
vt 0.656250 0.843750
vt 0.500000 0.150000
vt 0.500000 0.837500
vt 0.625000 0.500470
vt 0.375000 0.500470
vt 0.416667 0.500470
vt 0.458333 0.500470
vt 0.500000 0.500470
vt 0.541667 0.500470
vt 0.583333 0.500470
vt 0.625000 0.374693
vt 0.375000 0.374693
vt 0.416667 0.374693
vt 0.458333 0.374693
vt 0.500000 0.374693
vt 0.541667 0.374693
vt 0.583333 0.374693
vt 0.625000 0.557508
vt 0.375000 0.557508
vt 0.583333 0.557508
vt 0.541667 0.557508
vt 0.500000 0.557508
vt 0.458333 0.557508
vt 0.416667 0.557508
vt 0.625000 0.612067
vt 0.375000 0.612067
vt 0.583333 0.612067
vt 0.541667 0.612067
vt 0.500000 0.612067
vt 0.458333 0.612067
vt 0.416667 0.612067
vt 0.625000 0.429332
vt 0.375000 0.429332
vt 0.583333 0.429332
vt 0.541667 0.429332
vt 0.500000 0.429332
vt 0.458333 0.429332
vt 0.416667 0.429332
vn -0.170551 0.447324 -0.877960
vn -0.156696 0.543168 -0.824873
vn -0.141605 -0.205802 -0.968294
vn -0.111056 -0.385488 -0.916005
vn -0.629505 0.341858 -0.697751
vn -0.638642 0.349648 -0.685480
vn -0.540679 -0.407151 -0.736135
vn -0.561353 -0.304663 -0.769456
vn -0.841496 -0.236317 0.485838
vn -0.840074 -0.242971 0.485017
vn -0.679518 0.412339 0.606821
vn -0.689195 0.395713 0.606977
vn -0.000000 0.000000 1.000000
vn -0.000000 0.000000 1.000000
vn -0.000000 -0.325870 0.945415
vn -0.000000 -0.084592 0.996416
vn 0.809303 -0.254112 0.529581
vn 0.818282 -0.242443 0.521187
vn 0.705225 -0.620198 0.343529
vn 0.744622 -0.556797 0.368123
vn 0.673306 0.037822 -0.738396
vn 0.663971 0.159574 -0.730533
vn 0.545031 -0.662544 -0.513787
vn 0.485008 -0.774410 -0.406271
vn 0.000000 -1.000000 0.000000
vn 0.000000 -1.000000 0.000000
vn 0.000000 -1.000000 0.000000
vn 0.000000 -1.000000 0.000000
vn 0.000000 -1.000000 0.000000
vn 0.000000 -1.000000 0.000000
vn 0.000000 -1.000000 -0.000000
vn -0.009157 0.999603 0.026661
vn 0.009971 0.999834 0.015229
vn -0.002557 0.999985 0.004812
vn 0.012638 0.999918 -0.002007
vn 0.010453 0.999637 -0.024847
vn -0.012856 0.999453 -0.030459
vn -0.033828 0.999404 -0.006877
vn -0.032328 0.434708 -0.899991
vn -0.012566 0.168970 -0.985541
vn -0.085142 0.705613 -0.703464
vn -0.112311 0.657740 -0.744825
vn -0.516261 0.806705 -0.287580
vn -0.541266 0.784065 -0.303764
vn -0.541293 0.759985 -0.359757
vn -0.501160 0.803384 -0.321579
vn -0.622709 0.657885 0.423581
vn -0.596088 0.697019 0.398553
vn -0.802145 0.348395 0.484958
vn -0.770432 0.431564 0.469241
vn -0.000000 0.053226 0.998583
vn -0.000000 0.075172 0.997171
vn -0.000000 0.151611 0.988440
vn -0.000000 0.173235 0.984881
vn 0.826556 0.063527 0.559258
vn 0.827678 0.059076 0.558086
vn 0.794480 -0.047682 0.605415
vn 0.793788 -0.014567 0.608020
vn 0.686236 -0.102413 -0.720133
vn 0.682998 -0.107293 -0.722497
vn 0.683542 0.101054 -0.722882
vn 0.671554 0.178449 -0.719146
vn 0.000000 -0.000000 -1.000000
vn 0.000000 -0.000000 -1.000000
vn -0.652686 0.657268 -0.376828
vn -0.652686 0.657268 -0.376829
vn -0.634522 0.638977 0.434845
vn -0.634522 0.638977 0.434845
vn -0.000000 -0.000000 1.000000
vn -0.000000 -0.000000 1.000000
vn 0.852041 -0.070202 0.518747
vn 0.852041 -0.070202 0.518747
vn 0.679830 -0.112025 -0.724764
vn 0.679830 -0.112025 -0.724764
vn 0.420741 -0.866904 -0.267310
vn 0.575408 -0.760320 -0.301363
vn 0.637969 -0.703015 0.314270
vn 0.733116 -0.557236 0.389910
vn -0.000000 -0.420228 0.907419
vn -0.000000 -0.506722 0.862109
vn -0.435017 0.558871 0.705991
vn -0.466620 0.602496 0.647506
vn -0.540907 -0.565057 -0.623001
vn -0.494193 -0.629626 -0.599453
vn -0.062575 0.500686 -0.863365
vn -0.056904 0.563882 -0.823893
vn 0.950594 -0.012985 -0.310166
vn 0.950594 -0.012985 -0.310166
vn 0.798372 0.290254 0.527594
vn 0.798372 0.290254 0.527594
vn -0.000000 0.000000 1.000000
vn -0.000000 0.000000 1.000000
vn -0.418192 0.535743 0.733550
vn -0.418192 0.535743 0.733550
vn -0.738812 -0.087224 -0.668243
vn -0.738812 -0.087224 -0.668243
vn -0.043297 0.691864 -0.720728
vn -0.043297 0.691864 -0.720728
s 1
g pCylinder2
usemtl initialShadingGroup
f 15/30/1 16/31/2 32/49/3 27/44/4
s 2
f 16/31/5 17/32/6 31/48/7 32/49/8
s 3
f 17/32/9 18/33/10 30/47/11 31/48/12
s 4
f 18/33/13 19/34/14 29/46/15 30/47/16
s 5
f 19/34/17 20/35/18 28/45/19 29/46/20
s 6
f 20/35/21 15/29/22 27/43/23 28/45/24
s 7
f 2/2/25 1/1/26 13/27/27
f 3/3/28 2/2/25 13/27/27
f 4/4/29 3/3/28 13/27/27
f 5/5/30 4/4/29 13/27/27
f 6/6/31 5/5/30 13/27/27
f 1/1/26 6/6/31 13/27/27
s 8
f 7/25/32 8/24/33 14/28/34
f 8/24/33 9/23/35 14/28/34
f 9/23/35 10/22/36 14/28/34
f 10/22/36 11/21/37 14/28/34
f 11/21/37 12/26/38 14/28/34
f 12/26/38 7/25/32 14/28/34
s 1
f 21/37/39 22/38/40 44/63/41 39/58/42
s 2
f 22/38/43 23/39/44 43/62/45 44/63/46
s 3
f 23/39/47 24/40/48 42/61/49 43/62/50
s 4
f 24/40/51 25/41/52 41/60/53 42/61/54
s 5
f 25/41/55 26/42/56 40/59/57 41/60/58
s 6
f 26/42/59 21/36/60 39/57/61 40/59/62
s 1
f 1/7/63 2/8/64 22/38/40 21/37/39
s 2
f 2/8/65 3/9/66 23/39/44 22/38/43
s 3
f 3/9/67 4/10/68 24/40/48 23/39/47
s 4
f 4/10/69 5/11/70 25/41/52 24/40/51
s 5
f 5/11/71 6/12/72 26/42/56 25/41/55
s 6
f 6/12/73 1/13/74 21/36/60 26/42/59
f 28/45/24 27/43/23 33/50/75 34/52/76
s 5
f 29/46/20 28/45/19 34/52/77 35/53/78
s 4
f 30/47/16 29/46/15 35/53/79 36/54/80
s 3
f 31/48/12 30/47/11 36/54/81 37/55/82
s 2
f 32/49/8 31/48/7 37/55/83 38/56/84
s 1
f 27/44/4 32/49/3 38/56/85 33/51/86
s 6
f 34/52/76 33/50/75 7/20/87 12/19/88
s 5
f 35/53/78 34/52/77 12/19/89 11/18/90
s 4
f 36/54/80 35/53/79 11/18/91 10/17/92
s 3
f 37/55/82 36/54/81 10/17/93 9/16/94
s 2
f 38/56/84 37/55/83 9/16/95 8/15/96
s 1
f 33/51/86 38/56/85 8/15/97 7/14/98
s 6
f 40/59/62 39/57/61 15/29/22 20/35/21
s 5
f 41/60/58 40/59/57 20/35/18 19/34/17
s 4
f 42/61/54 41/60/53 19/34/14 18/33/13
s 3
f 43/62/50 42/61/49 18/33/10 17/32/9
s 2
f 44/63/46 43/62/45 17/32/6 16/31/5
s 1
f 39/58/42 44/63/41 16/31/2 15/30/1
