# This file uses centimeters as units for non-parametric coordinates.

mtllib stick.mtl
g default1
v 0.328487 0.068290 -0.121455
v 0.353719 0.023910 -0.045086
v 0.355852 0.066445 -0.073625
v 0.307425 0.006404 -0.099843
v 0.318074 -0.000454 -0.069598
v 0.312514 0.022658 -0.044554
v 0.293549 0.055243 -0.063609
v -0.026873 0.056281 -0.046728
v -0.050465 0.023243 -0.024905
v -0.048431 0.082328 -0.011302
v -0.125517 0.023954 -0.009056
v -0.085507 0.047967 0.010601
v -0.353510 0.113648 0.033997
v -0.263454 0.003930 0.135980
v -0.140572 0.023799 0.105953
v -0.264665 0.043425 0.149380
v 0.332095 0.047698 -0.123604
v 0.326504 0.079338 -0.104884
v -0.097541 0.009093 0.013774
v -0.071955 0.014012 0.038015
v -0.050899 0.032426 0.040877
v -0.043021 0.071593 0.030058
v -0.294803 0.036979 0.148725
v -0.209898 0.090606 0.025731
v -0.345549 0.112468 0.001059
v -0.196576 0.020462 0.055868
v -0.173117 0.036843 0.064877
v -0.188171 0.014582 0.066246
v -0.175291 0.007257 0.081121
v -0.161160 0.009669 0.091085
v -0.150208 0.021215 0.092919
v -0.137912 0.023806 0.101289
v -0.137311 0.025986 0.100448
v -0.138294 0.057155 0.080687
v -0.162984 0.039741 0.071311
v -0.166653 0.075114 0.014844
v -0.174936 0.046353 -0.003647
v -0.165856 0.077301 0.021792
v -0.162508 0.088865 0.029814
v -0.162507 0.090382 0.016370
v -0.159724 0.103631 -0.009257
v -0.174806 0.047603 -0.010454
v -0.166260 0.082364 -0.036578
g default
v -0.266229 0.005423 0.135790
vt 0.113208 0.553353
vt 0.118516 0.580928
vt 0.652709 0.656489
vt 0.079059 0.688828
vt 0.115726 0.737462
vt 0.135735 0.695087
vt 0.112093 0.783530
vt 0.680191 0.826371
vt 0.691221 0.873794
vt 0.662046 0.790022
vt 0.660797 0.724517
vt 0.943103 0.893393
vt 0.799135 0.850644
vt 0.819938 0.709465
vt 0.612848 0.901192
vt 0.929350 0.871126
vt 0.112742 0.524326
vt 0.747946 0.718658
vt 0.939600 0.616324
vt 0.846460 0.635464
vt 0.975373 0.608672
vt 0.617455 0.594982
vt 0.164396 0.644448
vt 0.078646 0.622328
vt 0.918294 0.875128
vt 0.613018 0.207073
vt 0.898865 0.781021
vt 0.855338 0.786548
vt 0.917655 0.776272
vt 0.815645 0.901513
vt 0.806772 0.882251
vt 0.797368 0.865744
vt 0.795103 0.847965
vt 0.794296 0.844865
vt 0.799335 0.801023
vt 0.839737 0.791353
vt 0.817556 0.656955
vt 0.851504 0.685780
vt 0.810801 0.652514
vt 0.799525 0.641706
vt 0.795413 0.628453
vt 0.789505 0.598515
vt 0.856523 0.692026
vt 0.791262 0.561089
vt 0.942466 0.890706
vt 0.547334 0.249744
vt 0.551084 0.221559
vt 0.680742 0.233861
vt 0.665780 0.302789
vt 0.623497 0.322337
vt 0.564326 0.274293
vt 0.821058 0.926238
vt 0.815072 0.515381
vt 0.705371 0.926870
vt 0.747608 0.500704
vt 0.653495 0.540714
vt 0.159750 0.467601
vn 0.131987 0.382743 0.914378
vn 0.197259 0.434097 0.879005
vn 0.230113 0.459064 0.858084
vn 0.144481 0.989500 0.003967
vn 0.153912 0.951008 0.268131
vn 0.149140 0.983677 0.100686
vn -0.271323 -0.712741 0.646826
vn -0.284584 -0.706280 0.648213
vn -0.293125 -0.702020 0.649034
vn 0.197259 0.434097 0.879005
vn 0.280291 0.495984 0.821850
vn 0.230113 0.459064 0.858084
vn 0.396306 0.813095 0.426402
vn 0.393104 0.814002 0.427632
vn 0.400994 0.811744 0.424589
vn -0.541488 -0.071026 -0.837703
vn -0.541912 -0.071647 -0.837376
vn -0.544381 -0.075273 -0.835454
vn -0.544381 -0.075273 -0.835454
vn -0.541912 -0.071647 -0.837376
vn -0.545912 -0.077531 -0.834248
vn -0.608187 0.082716 -0.789473
vn -0.571738 0.166977 -0.803265
vn -0.428081 0.417314 -0.801621
vn -0.428081 0.417314 -0.801621
vn -0.571738 0.166977 -0.803265
vn -0.270884 0.610321 -0.744399
vn -0.424002 -0.905532 0.015278
vn -0.414172 -0.909637 0.031982
vn -0.499495 -0.857348 -0.124331
vn -0.424002 -0.905532 0.015278
vn -0.499495 -0.857348 -0.124331
vn -0.645406 -0.517404 -0.561911
vn -0.076332 -0.713177 0.696815
vn -0.062485 -0.700254 0.711154
vn -0.180278 -0.798235 0.574735
vn -0.076332 -0.713177 0.696815
vn -0.180278 -0.798235 0.574735
vn -0.247735 -0.841171 0.480686
vn 0.015652 -0.323486 0.946103
vn 0.015652 -0.323486 0.946103
vn 0.015652 -0.323486 0.946103
vn 0.380523 0.385262 0.840699
vn 0.440138 0.491294 0.751604
vn 0.273129 0.207027 0.939436
vn 0.380523 0.385262 0.840699
vn 0.273129 0.207027 0.939436
vn 0.122478 -0.025252 0.992150
vn 0.153912 0.951008 0.268131
vn 0.154277 0.942730 0.295735
vn 0.149140 0.983677 0.100686
vn -0.341762 0.688970 -0.639155
vn -0.341762 0.688970 -0.639155
vn -0.341762 0.688970 -0.639155
vn -0.410069 -0.183181 -0.893470
vn -0.410069 -0.183181 -0.893470
vn -0.410069 -0.183181 -0.893470
vn -0.348085 -0.912421 -0.215232
vn -0.348085 -0.912421 -0.215232
vn -0.348085 -0.912421 -0.215232
vn -0.482572 -0.875686 -0.017268
vn -0.509393 -0.860064 -0.028434
vn -0.544050 -0.837941 -0.043172
vn -0.486536 0.790898 -0.371163
vn -0.486536 0.790898 -0.371163
vn -0.486537 0.790898 -0.371164
vn -0.486537 0.790898 -0.371164
vn 0.776352 0.309319 0.549180
vn 0.762499 -0.038479 0.645844
vn 0.733965 -0.160327 0.659993
vn -0.224021 0.947170 -0.229530
vn -0.409707 0.859079 -0.306797
vn -0.199533 0.955136 -0.218866
vn -0.199529 0.955137 -0.218866
vn -0.132240 -0.534485 0.834768
vn -0.318251 -0.761246 0.564996
vn -0.509199 -0.855672 -0.092422
vn -0.132240 -0.534485 0.834768
vn -0.130310 -0.531840 0.836759
vn -0.130309 -0.531839 0.836760
vn -0.318251 -0.761246 0.564996
vn -0.088881 -0.565277 0.820099
vn -0.087778 -0.563198 0.821646
vn -0.087778 -0.563198 0.821646
vn -0.154002 -0.682078 0.714880
vn -0.088881 -0.565277 0.820099
vn -0.154002 -0.682078 0.714880
vn -0.285994 -0.873490 0.393983
vn 0.083745 0.996464 0.006788
vn 0.083745 0.996464 0.006788
vn 0.083745 0.996464 0.006788
vn 0.083745 0.996464 0.006788
vn 0.179838 0.886494 0.426365
vn 0.179836 0.886494 0.426365
vn 0.179836 0.886494 0.426365
vn 0.130044 0.740474 -0.659384
vn -0.025254 0.438789 -0.898235
vn -0.104846 0.251042 -0.962281
vn 0.130043 0.740473 -0.659385
vn -0.148074 0.138914 -0.979172
vn -0.104846 0.251042 -0.962281
vn -0.332140 -0.471444 -0.816960
vn -0.482572 -0.875686 -0.017268
vn -0.481601 -0.876228 -0.016868
vn -0.481600 -0.876229 -0.016866
vn -0.509393 -0.860064 -0.028434
vn 0.046109 -0.968745 0.243737
vn 0.046109 -0.968745 0.243737
vn 0.046112 -0.968744 0.243737
vn 0.046111 -0.968745 0.243737
vn 0.615555 -0.604794 0.505289
vn 0.608234 -0.615322 0.501429
vn 0.485158 -0.759919 0.432601
vn 0.615555 -0.604794 0.505289
vn 0.398964 -0.834018 0.381105
vn 0.485158 -0.759919 0.432601
vn 0.124468 -0.970800 0.205074
vn 0.124469 -0.970799 0.205077
vn 0.869933 -0.055012 0.490093
vn 0.866673 -0.019003 0.498514
vn 0.837835 0.140667 0.527490
vn 0.869933 -0.055012 0.490093
vn 0.776352 0.309319 0.549180
vn 0.837835 0.140667 0.527490
vn 0.774564 0.323983 0.543219
vn 0.762499 -0.038479 0.645844
vn -0.506872 0.790281 -0.344292
vn -0.504305 0.792338 -0.343333
vn -0.409707 0.859079 -0.306797
vn -0.506872 0.790281 -0.344292
vn -0.544050 -0.837941 -0.043172
vn -0.509393 -0.860064 -0.028434
vn -0.580266 -0.541125 -0.608667
vn -0.544048 -0.837942 -0.043172
vn -0.486537 0.790898 -0.371164
vn -0.486537 0.790898 -0.371164
vn -0.486539 0.790896 -0.371164
vn -0.199533 0.955136 -0.218866
vn -0.409707 0.859079 -0.306797
vn -0.504305 0.792338 -0.343333
vn -0.509393 -0.860064 -0.028434
vn -0.481600 -0.876229 -0.016866
vn -0.542431 -0.839026 -0.042476
vn 0.046111 -0.968745 0.243737
vn 0.046112 -0.968744 0.243737
vn 0.046118 -0.968744 0.243738
vn 0.615555 -0.604794 0.505289
vn 0.485158 -0.759919 0.432601
vn 0.398964 -0.834018 0.381105
vn 0.124468 -0.970800 0.205074
vn 0.485158 -0.759919 0.432601
vn 0.608234 -0.615322 0.501429
vn 0.869933 -0.055012 0.490093
vn 0.837835 0.140667 0.527490
vn 0.776352 0.309319 0.549180
vn 0.774564 0.323983 0.543219
vn 0.837835 0.140667 0.527490
vn 0.866673 -0.019003 0.498514
vn -0.506872 0.790281 -0.344292
vn -0.409707 0.859079 -0.306797
vn -0.224021 0.947170 -0.229530
vn -0.509199 -0.855672 -0.092422
vn -0.318251 -0.761246 0.564996
vn -0.487422 -0.871405 0.055434
vn -0.509199 -0.855672 -0.092424
vn -0.318251 -0.761246 0.564996
vn -0.130309 -0.531839 0.836760
vn -0.487422 -0.871405 0.055434
vn -0.154002 -0.682078 0.714880
vn -0.087778 -0.563198 0.821646
vn -0.280785 -0.867553 0.410501
vn -0.285994 -0.873490 0.393983
vn -0.154002 -0.682078 0.714880
vn -0.280785 -0.867553 0.410501
vn -0.285995 -0.873489 0.393984
vn 0.083745 0.996464 0.006788
vn 0.083745 0.996464 0.006788
vn 0.083744 0.996464 0.006782
vn 0.179836 0.886494 0.426365
vn 0.179836 0.886494 0.426365
vn 0.179835 0.886494 0.426365
vn 0.179835 0.886494 0.426365
vn 0.130043 0.740473 -0.659385
vn -0.104846 0.251042 -0.962281
vn -0.148074 0.138914 -0.979172
vn -0.332140 -0.471444 -0.816960
vn -0.104846 0.251042 -0.962281
vn -0.025254 0.438789 -0.898235
vn -0.332140 -0.471444 -0.816960
vn 0.158587 0.987341 0.002965
vn 0.158588 0.987341 0.002965
vn 0.158587 0.987341 0.002965
vn -0.542431 -0.839026 -0.042476
vn 0.026621 -0.337598 0.940914
vn 0.026621 -0.337598 0.940914
vn 0.026621 -0.337598 0.940914
vn 0.026621 -0.337598 0.940914
vn 0.840490 -0.353073 -0.410994
vn 0.840490 -0.353073 -0.410994
vn 0.840490 -0.353073 -0.410994
vn 0.840490 -0.353073 -0.410994
vn 0.840490 -0.353073 -0.410994
vn 0.840490 -0.353073 -0.410994
vn 0.840490 -0.353073 -0.410994
s off
g MapleTree_geo_01 treeTrunk_Geo_07 polySurface1
usemtl lambert2SG
f 6/6/1 2/4/2 7/23/3
f 22/11/4 7/23/5 10/3/6
f 5/5/7 2/4/8 6/6/9
f 2/4/10 3/24/11 7/23/12
f 3/24/13 18/2/14 7/23/15
f 17/17/16 4/57/17 8/22/18
f 8/22/19 4/57/20 9/56/21
f 1/1/22 17/17/23 10/3/24
f 10/3/25 17/17/26 8/22/27
f 4/7/28 5/5/29 19/9/30
f 4/7/31 19/9/32 9/15/33
f 5/5/34 6/6/35 20/8/36
f 5/5/37 20/8/38 19/9/39
f 6/6/40 21/10/41 20/8/42
f 6/6/43 7/23/44 22/11/45
f 6/6/46 22/11/47 21/10/48
f 7/23/49 18/2/50 10/3/51
f 18/2/52 1/1/53 10/3/54
f 8/22/55 9/56/56 11/55/57
f 9/15/58 19/9/59 11/54/60
f 11/14/61 28/29/62 26/27/63
f 12/18/64 11/14/65 26/27/66 27/28/67
f 15/13/68 16/25/69 14/12/70
f 16/25/71 35/36/72 27/28/73 23/16/74
f 11/14/75 37/38/76 42/43/77
f 11/14/78 12/18/79 36/37/80 37/38/81
f 12/18/82 22/11/83 39/40/84 38/39/85
f 12/18/86 38/39/87 36/37/88
f 22/11/89 10/3/90 40/41/91 39/40/92
f 10/3/93 41/42/94 40/41/95
f 10/3/96 8/22/97 43/44/98 41/42/99
f 25/21/100 43/44/101 42/53/102
f 11/54/103 19/9/104 29/30/105 28/52/106
f 19/9/107 20/8/108 30/31/109 29/30/110
f 20/8/111 21/10/112 31/32/113 30/31/114
f 14/12/115 31/32/116 32/33/117 15/13/118
f 21/10/119 22/11/120 33/34/121 32/33/122
f 15/13/123 33/34/124 34/35/125 16/25/126
f 22/11/127 12/18/128 35/36/129 34/35/130
s 1
f 26/27/131 28/29/132 44/45/133 23/16/134
s off
f 27/28/135 26/27/136 23/16/137
f 27/28/138 35/36/139 12/18/140
f 28/52/141 29/30/142 14/12/143
f 29/30/144 30/31/145 14/12/146
f 30/31/147 31/32/148 14/12/149
f 32/33/150 31/32/151 21/10/152
f 32/33/153 33/34/154 15/13/155
f 34/35/156 33/34/157 22/11/158
f 34/35/159 35/36/160 16/25/161
f 42/43/162 37/38/163 13/19/164 25/21/165
f 37/38/166 36/37/167 13/19/168
f 38/39/169 39/40/170 24/20/171
f 36/37/172 38/39/173 24/20/174 13/19/175
f 39/40/176 40/41/177 24/20/178
f 40/41/179 41/42/180 25/21/181 24/20/182
f 41/42/183 43/44/184 25/21/185
f 42/53/186 43/44/187 8/22/188 11/55/189
g polySurface1
f 25/21/190 13/19/191 24/20/192
s 1
g MapleTree_geo_01 treeTrunk_Geo_07 polySurface1
f 44/45/133 28/29/132 14/12/193
s off
g polySurface1
f 14/12/194 16/25/195 23/16/196 44/45/197
f 17/51/198 1/46/199 18/47/200 3/26/201 2/48/202 5/49/203 4/50/204
