# This file uses centimeters as units for non-parametric coordinates.

mtllib rock.mtl
g default
v 0.000000 0.413543 -1.223946
v 0.687261 0.609053 -0.614542
v -0.338290 1.113667 -0.547365
v -1.094730 0.543682 -0.547365
v -0.338290 -0.063191 -0.547365
v 0.885655 -0.099785 -0.547365
v 1.021950 -0.100008 0.547365
v 0.338290 0.807698 0.335064
v -0.715153 0.856790 0.547365
v -0.885655 -0.099785 0.547365
v 0.338290 -0.136546 0.547365
v 0.000000 -0.094634 1.029198
vt 0.595280 0.498745
vt 0.757887 0.483335
vt 0.651461 0.749875
vt 0.713037 0.343538
vt 0.867622 0.701173
vt 0.732653 0.157143
vt 1.000000 0.000000
vt 1.000000 0.233608
vt 0.732653 0.008937
vt 0.732653 0.296340
vt 0.350916 0.454015
vt 0.335261 0.693019
vt 0.129611 0.535342
vt 0.492937 0.614181
vt 0.080134 0.780847
vt 0.335261 0.869307
vt 0.165785 0.148283
vt 0.434031 0.148283
vt 0.314068 0.388209
vt 0.239926 0.000000
vt 0.463902 0.388209
vt 0.045822 0.388209
vt 0.000000 0.148283
vt 0.239926 0.493810
vt 0.520845 0.000000
vt 0.729964 0.151722
vt 0.467637 0.226797
vt 0.678783 0.385508
vt 0.466494 0.423347
vn 0.321840 0.733747 -0.598360
vn 0.321840 0.733747 -0.598360
vn 0.321840 0.733747 -0.598360
vn -0.399345 0.529980 -0.748094
vn -0.399345 0.529980 -0.748094
vn -0.399345 0.529980 -0.748094
vn -0.473869 -0.590657 -0.653125
vn -0.473869 -0.590657 -0.653125
vn -0.473869 -0.590657 -0.653125
vn -0.024261 -0.811460 -0.583904
vn -0.024261 -0.811460 -0.583904
vn -0.024261 -0.811460 -0.583904
vn 0.642237 0.107834 -0.758884
vn 0.642237 0.107834 -0.758884
vn 0.642237 0.107834 -0.758884
vn 0.439965 0.897636 -0.026090
vn 0.439965 0.897636 -0.026090
vn 0.439965 0.897636 -0.026090
vn -0.601675 0.798497 -0.019762
vn -0.601675 0.798496 -0.019762
vn -0.601675 0.798497 -0.019762
vn -0.592655 -0.738719 -0.321021
vn -0.592656 -0.738719 -0.321021
vn -0.592655 -0.738719 -0.321021
vn -0.029849 -0.998379 -0.048451
vn -0.029849 -0.998379 -0.048451
vn -0.029849 -0.998380 -0.048451
vn 0.958988 0.257098 -0.119342
vn 0.958988 0.257098 -0.119342
vn 0.958988 0.257098 -0.119342
vn 0.771509 0.617195 0.154413
vn 0.771509 0.617195 0.154413
vn 0.771509 0.617195 0.154413
vn 0.096958 0.961030 0.258883
vn 0.096958 0.961030 0.258883
vn 0.096958 0.961030 0.258883
vn -0.945232 0.168480 0.279554
vn -0.945232 0.168480 0.279554
vn -0.945232 0.168480 0.279554
vn -0.029986 -0.998379 -0.048366
vn -0.029986 -0.998379 -0.048366
vn -0.029986 -0.998379 -0.048366
vn 0.053367 -0.998552 -0.006848
vn 0.053367 -0.998552 -0.006848
vn 0.053367 -0.998552 -0.006848
vn 0.378175 0.471202 0.796839
vn 0.378175 0.471202 0.796839
vn 0.378175 0.471202 0.796839
vn 0.189279 0.553144 0.811298
vn 0.189279 0.553144 0.811298
vn 0.189279 0.553144 0.811298
vn -0.476549 0.084941 0.875035
vn -0.476549 0.084941 0.875035
vn -0.476549 0.084941 0.875035
vn -0.029957 -0.997388 0.065726
vn -0.029957 -0.997388 0.065726
vn -0.029957 -0.997388 0.065726
vn 0.052961 -0.990945 0.123381
vn 0.052961 -0.990945 0.123381
vn 0.052961 -0.990945 0.123381
s off
g pPlatonic1
usemtl initialShadingGroup
f 1/14/1 3/12/2 2/11/3
f 1/14/4 4/16/5 3/12/6
f 1/20/7 5/17/8 4/23/9
f 1/20/10 6/18/11 5/17/12
f 1/4/13 2/2/14 6/1/15
f 2/11/16 3/12/17 8/13/18
f 3/10/19 4/6/20 9/8/21
f 4/6/22 5/9/23 10/7/24
f 5/17/25 6/18/26 11/19/27
f 6/1/28 2/2/29 7/3/30
f 2/2/31 8/5/32 7/3/33
f 3/12/34 9/15/35 8/13/36
f 4/6/37 10/7/38 9/8/39
f 5/17/40 11/19/41 10/22/42
f 6/18/43 7/21/44 11/19/45
f 7/25/46 8/26/47 12/27/48
f 8/26/49 9/28/50 12/27/51
f 9/28/52 10/29/53 12/27/54
f 10/22/55 11/19/56 12/24/57
f 11/19/58 7/21/59 12/24/60
