# This file uses centimeters as units for non-parametric coordinates.

mtllib Tree4.mtl
g default
v 0.383794 6.049298 -0.407803
v 0.000000 6.049298 -0.576720
v -0.383794 6.049298 -0.407803
v -0.542767 6.049298 0.000000
v -0.383794 6.049298 0.407803
v 0.000000 6.049298 0.576720
v 0.383794 6.049298 0.407803
v 0.542767 6.049298 0.000000
v 0.036834 7.827561 -0.039138
v 0.000000 7.827561 -0.055350
v -0.036834 7.827561 -0.039138
v -0.052091 7.827561 0.000000
v -0.036834 7.827561 0.039138
v 0.000000 7.827561 0.055350
v 0.036834 7.827561 0.039138
v 0.052092 7.827561 0.000000
v 0.000000 7.019066 0.000000
v 0.000000 7.827561 0.000000
v 0.606548 4.436020 -0.644492
v 0.000000 4.436020 -0.911449
v -0.606548 4.436020 -0.644492
v -0.857788 4.436020 0.000000
v -0.606548 4.436020 0.644492
v 0.000000 4.436020 0.911449
v 0.606548 4.436020 0.644492
v 0.857788 4.436020 0.000000
v 0.202341 6.717065 -0.214998
v 0.000000 6.717065 -0.304053
v -0.202340 6.717065 -0.214998
v -0.286152 6.717065 0.000000
v -0.202340 6.717065 0.214998
v 0.000000 6.717065 0.304053
v 0.202341 6.717065 0.214998
v 0.286153 6.717065 0.000000
v 0.000000 5.151924 0.000000
v 0.000000 6.717065 0.000000
v 0.725028 3.181164 -0.770384
v 0.000000 3.181164 -1.089488
v -0.725028 3.181164 -0.770384
v -1.025346 3.181164 -0.000000
v -0.725028 3.181164 0.770384
v 0.000000 3.181164 1.089488
v 0.725029 3.181164 0.770384
v 1.025346 3.181164 -0.000000
v 0.202341 5.715548 -0.214998
v 0.000000 5.715548 -0.304053
v -0.202340 5.715548 -0.214998
v -0.286152 5.715548 0.000000
v -0.202340 5.715548 0.214998
v 0.000000 5.715548 0.304053
v 0.202341 5.715548 0.214998
v 0.286153 5.715548 0.000000
v 0.000000 3.602301 0.000000
v 0.000000 5.715548 0.000000
v 0.097418 -0.005266 -0.103011
v 0.000000 -0.005266 -0.145680
v -0.048446 -0.005266 -0.103011
v -0.137769 -0.005266 0.000000
v -0.080960 -0.005266 0.081403
v 0.000000 -0.005266 0.145680
v 0.097418 -0.005266 0.103012
v 0.137769 -0.005266 0.000000
v 0.097418 3.845164 -0.103011
v 0.000000 3.845164 -0.145680
v -0.097417 3.845164 -0.103011
v -0.137769 3.845164 0.000000
v -0.097417 3.845164 0.103012
v 0.000000 3.845164 0.145680
v 0.097418 3.845164 0.103012
v 0.137769 3.845164 0.000000
v 0.000000 -0.005266 0.000000
v 0.000000 3.845164 0.000000
v 0.807979 1.862958 -0.858522
v 0.000000 1.862958 -1.214132
v -0.807978 1.862958 -0.858522
v -1.142651 1.862958 0.000000
v -0.807978 1.862958 0.858523
v 0.000000 1.862958 1.214133
v 0.807979 1.862958 0.858523
v 1.142652 1.862958 0.000000
v 0.276633 5.318880 -0.293938
v 0.000000 5.318880 -0.415691
v -0.276633 5.318880 -0.293938
v -0.391218 5.318880 0.000000
v -0.276633 5.318880 0.293938
v 0.000000 5.318880 0.415691
v 0.276633 5.318880 0.293938
v 0.391218 5.318880 0.000000
v -0.000000 1.853955 -0.000000
v 0.000000 5.318880 0.000000
v 0.097418 0.486328 -0.061695
v 0.000000 0.486328 -0.104364
v -0.097417 0.486328 -0.061695
v -0.137769 0.486328 0.000000
v -0.097417 0.486328 0.103012
v 0.000000 0.486328 0.145680
v 0.097418 0.486328 0.103012
v 0.137769 0.486328 0.000000
v 0.097418 0.997931 -0.061695
v 0.122861 0.997931 0.000000
v 0.097418 0.997931 0.103012
v 0.000000 0.997931 0.145680
v -0.097417 0.997931 0.103012
v -0.120408 1.221411 -0.008397
v -0.101039 1.221411 -0.053298
v 0.000000 0.997931 -0.104364
vt 0.727151 0.145108
vt 0.748305 0.145108
vt 0.748305 0.878133
vt 0.727151 0.878133
vt 0.769458 0.145108
vt 0.769458 0.878133
vt 0.825971 0.145108
vt 0.847124 0.145108
vt 0.847124 0.878133
vt 0.825971 0.878133
vt 0.868278 0.145108
vt 0.868278 0.878133
vt 0.382769 0.152471
vt 0.427892 0.171162
vt 0.382769 0.216286
vt 0.446583 0.216286
vt 0.337645 0.171162
vt 0.427892 0.261410
vt 0.318954 0.216286
vt 0.382769 0.280101
vt 0.337645 0.261410
vt 0.251535 0.212986
vt 0.252901 0.216286
vt 0.248234 0.216286
vt 0.293358 0.171162
vt 0.312049 0.216286
vt 0.251535 0.219586
vt 0.248234 0.211619
vt 0.293358 0.261410
vt 0.248234 0.152471
vt 0.248234 0.220953
vt 0.244934 0.212986
vt 0.248234 0.280101
vt 0.203111 0.171162
vt 0.244934 0.219586
vt 0.243567 0.216286
vt 0.203111 0.261410
vt 0.184420 0.216286
vt 0.235966 0.522350
vt 0.277620 0.532540
vt 0.244493 0.577726
vt 0.299869 0.569199
vt 0.199307 0.544599
vt 0.289679 0.610853
vt 0.189117 0.586253
vt 0.253020 0.633102
vt 0.211366 0.622912
vt 0.369794 0.582182
vt 0.361212 0.587391
vt 0.359215 0.574427
vt 0.404402 0.607553
vt 0.367743 0.629803
vt 0.351460 0.585006
vt 0.372180 0.572430
vt 0.326088 0.619613
vt 0.414591 0.565899
vt 0.346251 0.576423
vt 0.366971 0.563848
vt 0.303839 0.582954
vt 0.392342 0.529240
vt 0.348636 0.566671
vt 0.357219 0.561462
vt 0.314029 0.541300
vt 0.350688 0.519051
vt 0.216904 0.449996
vt 0.230506 0.417158
vt 0.263344 0.449996
vt 0.263344 0.403556
vt 0.230506 0.482835
vt 0.296183 0.417158
vt 0.263344 0.496437
vt 0.309785 0.449996
vt 0.296183 0.482835
vt 0.363136 0.455298
vt 0.357834 0.457495
vt 0.357834 0.449996
vt 0.390672 0.482835
vt 0.357834 0.496437
vt 0.352532 0.455298
vt 0.365332 0.449996
vt 0.324995 0.482835
vt 0.404274 0.449996
vt 0.350335 0.449996
vt 0.363136 0.444694
vt 0.311393 0.449996
vt 0.390672 0.417158
vt 0.352532 0.444694
vt 0.357834 0.442498
vt 0.324995 0.417158
vt 0.357834 0.403556
vt 0.203256 0.688288
vt 0.216795 0.655602
vt 0.249481 0.688288
vt 0.249481 0.642063
vt 0.216795 0.720975
vt 0.282168 0.655602
vt 0.249481 0.734514
vt 0.295707 0.688288
vt 0.282168 0.720975
vt 0.384943 0.720975
vt 0.352257 0.734514
vt 0.352257 0.688288
vt 0.319570 0.720975
vt 0.398483 0.688288
vt 0.306031 0.688288
vt 0.384943 0.655602
vt 0.319570 0.655602
vt 0.352257 0.642063
vt 0.316161 0.288533
vt 0.356458 0.305225
vt 0.316161 0.345521
vt 0.373150 0.345521
vt 0.275864 0.305225
vt 0.356458 0.385818
vt 0.259173 0.345521
vt 0.316161 0.402510
vt 0.275864 0.385818
vt 0.319170 0.820197
vt 0.311699 0.823291
vt 0.311699 0.812726
vt 0.353230 0.854257
vt 0.311699 0.871459
vt 0.304228 0.820197
vt 0.322264 0.812726
vt 0.270168 0.854257
vt 0.370432 0.812726
vt 0.301134 0.812726
vt 0.319170 0.805255
vt 0.252966 0.812726
vt 0.353230 0.771195
vt 0.304228 0.805255
vt 0.311699 0.802161
vt 0.270168 0.771195
vt 0.311699 0.753993
vt 0.720049 0.878133
vt 0.698895 0.878133
vt 0.698895 0.145108
vt 0.720049 0.145108
vt 0.677741 0.878133
vt 0.677741 0.145108
vt 0.776561 0.145108
vt 0.797715 0.145108
vt 0.797715 0.878133
vt 0.776561 0.878133
vt 0.818868 0.145108
vt 0.818868 0.878133
vt 0.868278 0.238695
vt 0.720049 0.784546
vt 0.698895 0.784546
vt 0.677741 0.784546
vt 0.727151 0.238695
vt 0.748305 0.238695
vt 0.769458 0.238695
vt 0.776561 0.238695
vt 0.797715 0.238695
vt 0.818868 0.238695
vt 0.825971 0.238695
vt 0.847124 0.238695
vt 0.868278 0.336092
vt 0.720049 0.687149
vt 0.847124 0.336092
vt 0.818868 0.336092
vt 0.825971 0.336092
vt 0.797715 0.336092
vt 0.769458 0.336092
vt 0.776561 0.336092
vt 0.748305 0.336092
vt 0.677741 0.687149
vt 0.727151 0.336092
vt 0.698895 0.687149
vn 0.389070 0.259180 -0.883997
vn 0.389070 0.259180 -0.883997
vn 0.389070 0.259180 -0.883997
vn 0.389070 0.259180 -0.883997
vn -0.389070 0.259180 -0.883997
vn -0.389070 0.259180 -0.883997
vn -0.389070 0.259180 -0.883997
vn -0.389070 0.259180 -0.883997
vn -0.902366 0.248989 -0.351768
vn -0.902366 0.248989 -0.351768
vn -0.902366 0.248989 -0.351768
vn -0.902366 0.248989 -0.351768
vn -0.902366 0.248989 0.351768
vn -0.902366 0.248989 0.351768
vn -0.902366 0.248989 0.351768
vn -0.902366 0.248989 0.351768
vn -0.389069 0.259180 0.883997
vn -0.389069 0.259180 0.883997
vn -0.389069 0.259180 0.883997
vn -0.389070 0.259180 0.883997
vn 0.389070 0.259180 0.883997
vn 0.389070 0.259180 0.883997
vn 0.389069 0.259180 0.883997
vn 0.389069 0.259180 0.883997
vn 0.902366 0.248990 0.351767
vn 0.902366 0.248990 0.351767
vn 0.902366 0.248990 0.351767
vn 0.902366 0.248990 0.351767
vn 0.902366 0.248990 -0.351767
vn 0.902366 0.248990 -0.351767
vn 0.902366 0.248990 -0.351767
vn 0.902366 0.248990 -0.351767
vn 0.000000 -0.511142 0.859497
vn -0.626493 -0.499537 0.598306
vn 0.000000 -1.000000 -0.000000
vn 0.626493 -0.499537 0.598305
vn 0.872622 -0.488396 0.000000
vn 0.626493 -0.499537 -0.598305
vn 0.000000 -0.511142 -0.859496
vn -0.626493 -0.499537 -0.598305
vn -0.872622 -0.488396 0.000000
vn 0.000000 1.000000 0.000014
vn 0.000000 1.000000 0.000000
vn 0.000000 1.000000 -0.000000
vn 0.000000 1.000000 0.000000
vn 0.000000 1.000000 -0.000015
vn 0.000000 1.000000 -0.000014
vn 0.000000 1.000000 0.000000
vn 0.000000 1.000000 0.000000
vn 0.000000 1.000000 0.000015
vn 0.391379 0.236788 -0.889244
vn 0.391379 0.236788 -0.889244
vn 0.391379 0.236788 -0.889244
vn 0.391379 0.236788 -0.889244
vn -0.391378 0.236788 -0.889244
vn -0.391378 0.236788 -0.889244
vn -0.391378 0.236788 -0.889244
vn -0.391378 0.236788 -0.889244
vn -0.907306 0.227373 -0.353692
vn -0.907306 0.227373 -0.353692
vn -0.907306 0.227373 -0.353692
vn -0.907306 0.227373 -0.353692
vn -0.907306 0.227373 0.353692
vn -0.907306 0.227373 0.353692
vn -0.907306 0.227373 0.353692
vn -0.907306 0.227373 0.353692
vn -0.391378 0.236788 0.889244
vn -0.391378 0.236788 0.889244
vn -0.391378 0.236788 0.889244
vn -0.391378 0.236788 0.889244
vn 0.391378 0.236788 0.889244
vn 0.391378 0.236788 0.889244
vn 0.391378 0.236788 0.889244
vn 0.391378 0.236788 0.889244
vn 0.907306 0.227373 0.353692
vn 0.907306 0.227373 0.353692
vn 0.907306 0.227373 0.353692
vn 0.907306 0.227373 0.353692
vn 0.907306 0.227373 -0.353692
vn 0.907306 0.227373 -0.353692
vn 0.907306 0.227373 -0.353692
vn 0.907306 0.227373 -0.353692
vn 0.000000 -0.786417 0.617696
vn -0.452788 -0.777126 0.437102
vn 0.000000 -1.000000 -0.000000
vn 0.452788 -0.777126 0.437102
vn 0.640755 -0.767745 -0.000000
vn 0.452788 -0.777126 -0.437102
vn 0.000000 -0.786417 -0.617696
vn -0.452788 -0.777126 -0.437102
vn -0.640755 -0.767746 -0.000000
vn 0.000000 1.000000 0.000002
vn 0.000000 1.000000 0.000000
vn 0.000000 1.000000 0.000001
vn 0.000000 1.000000 0.000000
vn 0.000000 1.000000 0.000002
vn 0.000000 1.000000 0.000002
vn 0.000000 1.000000 0.000000
vn 0.000000 1.000000 -0.000002
vn 0.000000 1.000000 -0.000000
vn 0.387546 0.272888 -0.880534
vn 0.387546 0.272888 -0.880534
vn 0.387546 0.272888 -0.880534
vn 0.387546 0.272888 -0.880534
vn -0.387546 0.272888 -0.880534
vn -0.387546 0.272888 -0.880534
vn -0.387546 0.272888 -0.880534
vn -0.387546 0.272888 -0.880534
vn -0.899102 0.262237 -0.350495
vn -0.899102 0.262237 -0.350495
vn -0.899102 0.262237 -0.350495
vn -0.899102 0.262237 -0.350495
vn -0.899102 0.262237 0.350495
vn -0.899102 0.262237 0.350495
vn -0.899102 0.262237 0.350495
vn -0.899102 0.262237 0.350495
vn -0.387546 0.272888 0.880534
vn -0.387546 0.272888 0.880534
vn -0.387546 0.272888 0.880534
vn -0.387546 0.272888 0.880534
vn 0.387546 0.272888 0.880534
vn 0.387546 0.272888 0.880534
vn 0.387546 0.272888 0.880534
vn 0.387546 0.272888 0.880534
vn 0.899102 0.262237 0.350495
vn 0.899102 0.262237 0.350495
vn 0.899102 0.262237 0.350495
vn 0.899102 0.262237 0.350495
vn 0.899102 0.262237 -0.350495
vn 0.899102 0.262237 -0.350495
vn 0.899102 0.262237 -0.350495
vn 0.899102 0.262237 -0.350495
vn 0.000000 -0.932741 0.360547
vn -0.265398 -0.928963 0.258053
vn -0.000000 -1.000000 -0.000000
vn 0.265398 -0.928963 0.258053
vn 0.379929 -0.925016 -0.000000
vn 0.265398 -0.928963 -0.258053
vn 0.000000 -0.932741 -0.360547
vn -0.265398 -0.928963 -0.258053
vn -0.379929 -0.925016 0.000000
vn 0.000000 1.000000 0.000002
vn 0.000000 1.000000 0.000000
vn 0.000000 1.000000 -0.000000
vn 0.000000 1.000000 0.000000
vn 0.000000 1.000000 0.000000
vn 0.000000 1.000000 0.000000
vn 0.000000 1.000000 0.000000
vn 0.000000 1.000000 -0.000002
vn 0.000000 1.000000 -0.000000
vn 0.400924 0.037283 -0.915353
vn 0.400911 0.038105 -0.915324
vn 0.401176 -0.011273 -0.915932
vn 0.401176 -0.011260 -0.915932
vn -0.454594 0.021224 -0.890446
vn -0.452487 0.020138 -0.891544
vn -0.439801 -0.013915 -0.897987
vn -0.430520 -0.003749 -0.902573
vn -0.826770 -0.003678 -0.562528
vn -0.828285 -0.003310 -0.560298
vn -0.918586 -0.002971 -0.395209
vn -0.918677 -0.002996 -0.394997
vn -0.928730 -0.001817 0.370752
vn -0.929014 -0.001647 0.370042
vn -0.956972 0.007097 0.290095
vn -0.959804 -0.002761 0.280657
vn -0.456590 -0.013269 0.889578
vn -0.456825 -0.013326 0.889457
vn -0.401198 0.000000 0.915991
vn -0.401198 0.000000 0.915991
vn 0.401198 0.000000 0.915991
vn 0.401198 0.000000 0.915991
vn 0.401198 0.000000 0.915991
vn 0.401198 0.000000 0.915991
vn 0.942412 0.007003 0.334382
vn 0.942376 0.006979 0.334484
vn 0.952603 0.000008 0.304218
vn 0.952603 0.000000 0.304218
vn 0.891147 0.016013 -0.453432
vn 0.891274 0.016059 -0.453180
vn 0.923548 -0.002910 -0.383472
vn 0.923483 -0.002882 -0.383629
vn 0.000000 -1.000000 0.000000
vn 0.000000 -1.000000 0.000000
vn 0.000000 -1.000000 -0.000000
vn 0.000000 -1.000000 -0.000000
vn 0.000000 -1.000000 -0.000000
vn 0.000000 -1.000000 0.000000
vn 0.000000 -1.000000 0.000000
vn 0.000000 -1.000000 0.000000
vn 0.000000 -1.000000 0.000000
vn 0.000000 1.000000 0.000004
vn 0.000000 1.000000 0.000001
vn 0.000000 1.000000 0.000000
vn 0.000000 1.000000 0.000001
vn 0.000000 1.000000 0.000000
vn 0.000000 1.000000 -0.000002
vn 0.000000 1.000000 -0.000003
vn 0.000000 1.000000 -0.000003
vn 0.000000 1.000000 0.000002
vn 0.394118 0.206886 -0.895472
vn 0.394118 0.206886 -0.895472
vn 0.394118 0.206886 -0.895471
vn 0.394118 0.206886 -0.895472
vn -0.394118 0.206886 -0.895472
vn -0.394118 0.206886 -0.895471
vn -0.394118 0.206886 -0.895472
vn -0.394118 0.206886 -0.895472
vn -0.913160 0.198552 -0.355973
vn -0.913160 0.198552 -0.355973
vn -0.913160 0.198552 -0.355973
vn -0.913160 0.198552 -0.355973
vn -0.913160 0.198552 0.355973
vn -0.913160 0.198552 0.355973
vn -0.913160 0.198552 0.355973
vn -0.913160 0.198552 0.355973
vn -0.394118 0.206886 0.895472
vn -0.394118 0.206886 0.895472
vn -0.394118 0.206886 0.895472
vn -0.394118 0.206886 0.895472
vn 0.394118 0.206886 0.895472
vn 0.394118 0.206886 0.895472
vn 0.394118 0.206886 0.895472
vn 0.394118 0.206886 0.895472
vn 0.913160 0.198552 0.355973
vn 0.913160 0.198552 0.355973
vn 0.913160 0.198552 0.355973
vn 0.913160 0.198552 0.355973
vn 0.913160 0.198552 -0.355973
vn 0.913160 0.198552 -0.355973
vn 0.913160 0.198552 -0.355973
vn 0.913160 0.198552 -0.355973
vn 0.000000 -0.999973 -0.007415
vn 0.005470 -0.999971 -0.005338
vn -0.000000 -1.000000 0.000000
vn -0.005470 -0.999971 -0.005338
vn -0.007879 -0.999969 0.000000
vn -0.005470 -0.999971 0.005338
vn 0.000000 -0.999973 0.007415
vn 0.005470 -0.999971 0.005338
vn 0.007879 -0.999969 0.000000
vn -0.000001 1.000000 0.000000
vn -0.000000 1.000000 0.000000
vn 0.000000 1.000000 0.000000
vn 0.000001 1.000000 0.000001
vn 0.000001 1.000000 0.000001
vn 0.000001 1.000000 0.000000
vn -0.000000 1.000000 0.000000
vn -0.000001 1.000000 -0.000001
vn -0.000001 1.000000 -0.000001
vn 0.400018 0.076758 -0.913288
vn 0.400017 0.076758 -0.913288
vn -0.504409 0.047338 -0.862166
vn -0.504409 0.047338 -0.862166
vn -0.785641 -0.013139 -0.618543
vn -0.785641 -0.013139 -0.618543
vn -0.884442 -0.025046 0.465978
vn -0.884442 -0.025046 0.465978
vn -0.514014 -0.027447 0.857343
vn -0.514014 -0.027447 0.857343
vn 0.401198 0.000000 0.915991
vn 0.401198 0.000000 0.915991
vn 0.931112 0.000000 0.364734
vn 0.931112 0.000000 0.364734
vn 0.897843 0.018487 -0.439927
vn 0.897843 0.018487 -0.439927
vn 0.928636 -0.005123 -0.370958
vn 0.928636 -0.005123 -0.370958
vn 0.952600 -0.002494 0.304217
vn 0.952600 -0.002494 0.304217
vn 0.401198 0.000000 0.915991
vn 0.401198 0.000000 0.915991
vn -0.401198 0.000000 0.915991
vn -0.401198 0.000000 0.915991
vn -0.960002 -0.003476 0.279970
vn -0.960002 -0.003476 0.279970
vn -0.927260 -0.005376 -0.374381
vn -0.927260 -0.005376 -0.374381
vn -0.440463 -0.014644 -0.897651
vn -0.440463 -0.014644 -0.897651
vn 0.401166 -0.013291 -0.915909
vn 0.401166 -0.013291 -0.915909
s off
g Tree4
usemtl aiStandardSurface4SG
f 1/25/1 2/26/2 10/23/3 9/22/4
f 2/26/5 3/29/6 11/27/7 10/23/8
f 3/29/9 4/33/10 12/31/11 11/27/12
f 4/33/13 5/37/14 13/35/15 12/31/16
f 5/37/17 6/38/18 14/36/19 13/35/20
f 6/38/21 7/34/22 15/32/23 14/36/24
f 7/34/25 8/30/26 16/28/27 15/32/28
f 8/30/29 1/25/30 9/22/31 16/28/32
s 1
f 2/13/33 1/14/34 17/15/35
f 3/17/36 2/13/33 17/15/35
f 4/19/37 3/17/36 17/15/35
f 5/21/38 4/19/37 17/15/35
f 6/20/39 5/21/38 17/15/35
f 7/18/40 6/20/39 17/15/35
f 8/16/41 7/18/40 17/15/35
f 1/14/34 8/16/41 17/15/35
s 2
f 9/22/42 10/23/43 18/24/44
f 10/23/43 11/27/45 18/24/44
f 11/27/45 12/31/46 18/24/44
f 12/31/46 13/35/47 18/24/44
f 13/35/47 14/36/48 18/24/44
f 14/36/48 15/32/49 18/24/44
f 15/32/49 16/28/50 18/24/44
f 16/28/50 9/22/42 18/24/44
s off
f 19/51/51 20/52/52 28/49/53 27/48/54
f 20/52/55 21/55/56 29/53/57 28/49/58
f 21/55/59 22/59/60 30/57/61 29/53/62
f 22/59/63 23/63/64 31/61/65 30/57/66
f 23/63/67 24/64/68 32/62/69 31/61/70
f 24/64/71 25/60/72 33/58/73 32/62/74
f 25/60/75 26/56/76 34/54/77 33/58/78
f 26/56/79 19/51/80 27/48/81 34/54/82
s 3
f 20/39/83 19/40/84 35/41/85
f 21/43/86 20/39/83 35/41/85
f 22/45/87 21/43/86 35/41/85
f 23/47/88 22/45/87 35/41/85
f 24/46/89 23/47/88 35/41/85
f 25/44/90 24/46/89 35/41/85
f 26/42/91 25/44/90 35/41/85
f 19/40/84 26/42/91 35/41/85
s 4
f 27/48/92 28/49/93 36/50/94
f 28/49/93 29/53/95 36/50/94
f 29/53/95 30/57/96 36/50/94
f 30/57/96 31/61/97 36/50/94
f 31/61/97 32/62/98 36/50/94
f 32/62/98 33/58/99 36/50/94
f 33/58/99 34/54/100 36/50/94
f 34/54/100 27/48/92 36/50/94
s off
f 37/77/101 38/78/102 46/75/103 45/74/104
f 38/78/105 39/81/106 47/79/107 46/75/108
f 39/81/109 40/85/110 48/83/111 47/79/112
f 40/85/113 41/89/114 49/87/115 48/83/116
f 41/89/117 42/90/118 50/88/119 49/87/120
f 42/90/121 43/86/122 51/84/123 50/88/124
f 43/86/125 44/82/126 52/80/127 51/84/128
f 44/82/129 37/77/130 45/74/131 52/80/132
s 5
f 38/65/133 37/66/134 53/67/135
f 39/69/136 38/65/133 53/67/135
f 40/71/137 39/69/136 53/67/135
f 41/73/138 40/71/137 53/67/135
f 42/72/139 41/73/138 53/67/135
f 43/70/140 42/72/139 53/67/135
f 44/68/141 43/70/140 53/67/135
f 37/66/134 44/68/141 53/67/135
s 6
f 45/74/142 46/75/143 54/76/144
f 46/75/143 47/79/145 54/76/144
f 47/79/145 48/83/146 54/76/144
f 48/83/146 49/87/147 54/76/144
f 49/87/147 50/88/148 54/76/144
f 50/88/148 51/84/149 54/76/144
f 51/84/149 52/80/150 54/76/144
f 52/80/150 45/74/142 54/76/144
s 7
f 91/148/151 92/149/152 106/170/153 99/160/154
s 8
f 92/149/155 93/150/156 105/168/157 106/170/158
s 9
f 93/151/159 94/152/160 104/167/161 105/169/162
s 10
f 94/152/163 95/153/164 103/165/165 104/167/166
s 11
f 95/154/167 96/155/168 102/164/169 103/166/170
s 12
f 96/155/171 97/156/172 101/162/173 102/164/174
s 13
f 97/157/175 98/158/176 100/161/177 101/163/178
s 14
f 98/158/179 91/147/180 99/159/181 100/161/182
s 15
f 56/91/183 55/92/184 71/93/185
f 57/95/186 56/91/183 71/93/185
f 58/97/187 57/95/186 71/93/185
f 59/99/188 58/97/187 71/93/185
f 60/98/189 59/99/188 71/93/185
f 61/96/190 60/98/189 71/93/185
f 62/94/191 61/96/190 71/93/185
f 55/92/184 62/94/191 71/93/185
s 16
f 63/100/192 64/101/193 72/102/194
f 64/101/193 65/103/195 72/102/194
f 65/103/195 66/105/196 72/102/194
f 66/105/196 67/107/197 72/102/194
f 67/107/197 68/108/198 72/102/194
f 68/108/198 69/106/199 72/102/194
f 69/106/199 70/104/200 72/102/194
f 70/104/200 63/100/192 72/102/194
s off
f 73/121/201 74/122/202 82/119/203 81/118/204
f 74/122/205 75/125/206 83/123/207 82/119/208
f 75/125/209 76/129/210 84/127/211 83/123/212
f 76/129/213 77/133/214 85/131/215 84/127/216
f 77/133/217 78/134/218 86/132/219 85/131/220
f 78/134/221 79/130/222 87/128/223 86/132/224
f 79/130/225 80/126/226 88/124/227 87/128/228
f 80/126/229 73/121/230 81/118/231 88/124/232
s 17
f 74/109/233 73/110/234 89/111/235
f 75/113/236 74/109/233 89/111/235
f 76/115/237 75/113/236 89/111/235
f 77/117/238 76/115/237 89/111/235
f 78/116/239 77/117/238 89/111/235
f 79/114/240 78/116/239 89/111/235
f 80/112/241 79/114/240 89/111/235
f 73/110/234 80/112/241 89/111/235
s 18
f 81/118/242 82/119/243 90/120/244
f 82/119/243 83/123/245 90/120/244
f 83/123/245 84/127/246 90/120/244
f 84/127/246 85/131/247 90/120/244
f 85/131/247 86/132/248 90/120/244
f 86/132/248 87/128/249 90/120/244
f 87/128/249 88/124/250 90/120/244
f 88/124/250 81/118/242 90/120/244
s 7
f 55/135/251 56/136/252 92/149/152 91/148/151
s 8
f 56/136/253 57/139/254 93/150/156 92/149/155
s 9
f 57/1/255 58/2/256 94/152/160 93/151/159
s 10
f 58/2/257 59/5/258 95/153/164 94/152/163
s 11
f 59/141/259 60/142/260 96/155/168 95/154/167
s 12
f 60/142/261 61/145/262 97/156/172 96/155/171
s 13
f 61/7/263 62/8/264 98/158/176 97/157/175
s 14
f 62/8/265 55/11/266 91/147/180 98/158/179
f 100/161/182 99/159/181 63/12/267 70/9/268
s 13
f 101/163/178 100/161/177 70/9/269 69/10/270
s 12
f 102/164/174 101/162/173 69/146/271 68/143/272
s 11
f 103/166/170 102/164/169 68/143/273 67/144/274
s 10
f 104/167/166 103/165/165 67/6/275 66/3/276
s 9
f 105/169/162 104/167/161 66/3/277 65/4/278
s 8
f 106/170/158 105/168/157 65/140/279 64/137/280
s 7
f 99/160/154 106/170/153 64/137/281 63/138/282
