# This file uses centimeters as units for non-parametric coordinates.

mtllib tree_pine_04.mtl
g default
v 0.367774 2.996710 -0.367774
v -0.000001 2.996710 -0.520111
v -0.367774 2.996710 -0.367774
v -0.520112 2.996710 0.000000
v -0.367774 2.996710 0.367775
v -0.000001 2.996710 0.520112
v 0.367774 2.996710 0.367775
v 0.520111 2.996710 0.000000
v 0.026896 3.754438 -0.026897
v -0.000001 3.754438 -0.038038
v -0.026898 3.754438 -0.026897
v -0.038039 3.754438 0.000000
v -0.026898 3.754438 0.026897
v -0.000001 3.754438 0.038038
v 0.026896 3.754438 0.026897
v 0.038037 3.754438 0.000000
v -0.000001 2.996710 0.000000
v -0.000001 3.754438 0.000000
v 0.631104 2.201110 -0.631105
v -0.000001 2.201110 -0.892518
v -0.631106 2.201110 -0.631105
v -0.892517 2.201110 0.000000
v -0.631106 2.201110 0.631105
v -0.000001 2.201110 0.892518
v 0.631104 2.201110 0.631105
v 0.892516 2.201110 0.000000
v 0.147753 3.173076 -0.147754
v -0.000001 3.173076 -0.208955
v -0.147754 3.173076 -0.147754
v -0.208955 3.173076 0.000000
v -0.147754 3.173076 0.147754
v -0.000001 3.173076 0.208955
v 0.147753 3.173076 0.147754
v 0.208954 3.173076 0.000000
v -0.000001 2.201110 0.000000
v -0.000001 3.173076 0.000000
v 0.915107 1.540806 -0.915109
v -0.000001 1.540806 -1.294160
v -0.915109 1.540806 -0.915109
v -1.294159 1.540806 0.000000
v -0.915109 1.540806 0.915109
v -0.000001 1.540806 1.294160
v 0.915108 1.540806 0.915109
v 1.294159 1.540806 0.000000
v 0.147753 2.620722 -0.147754
v -0.000001 2.620722 -0.208955
v -0.147754 2.620722 -0.147754
v -0.208955 2.620722 0.000000
v -0.147754 2.620722 0.147754
v -0.000001 2.620722 0.208955
v 0.147753 2.620722 0.147754
v 0.208954 2.620722 0.000000
v -0.000001 1.540806 0.000000
v -0.000001 2.620722 0.000000
v 0.158512 0.003602 -0.158512
v -0.000001 0.003602 -0.224170
v -0.158512 0.003602 -0.158512
v -0.224171 0.003602 0.000000
v -0.158512 0.003602 0.158513
v -0.000001 0.003602 0.224170
v 0.158512 0.003602 0.158513
v 0.224169 0.003602 0.000000
v 0.158512 1.644291 -0.158512
v -0.000001 1.644291 -0.224170
v -0.158513 1.644291 -0.158512
v -0.224171 1.644291 0.000000
v -0.158513 1.644291 0.158513
v -0.000001 1.644291 0.224170
v 0.158512 1.644291 0.158513
v 0.224169 1.644291 0.000000
v -0.000001 1.644291 0.000000
v 1.122957 0.799662 -1.122958
v -0.000001 0.799662 -1.588100
v -1.122957 0.799662 -1.122958
v -1.588100 0.799662 0.000000
v -1.122957 0.799662 1.122958
v -0.000001 0.799662 1.588100
v 1.122957 0.799662 1.122958
v 1.588100 0.799662 0.000000
v 0.202003 2.272251 -0.202003
v -0.000001 2.272251 -0.285676
v -0.202004 2.272251 -0.202003
v -0.285677 2.272251 0.000000
v -0.202004 2.272251 0.202003
v -0.000001 2.272251 0.285676
v 0.202003 2.272251 0.202003
v 0.285676 2.272251 0.000000
v -0.000001 0.795826 0.000000
v -0.000001 2.272251 0.000000
vt 0.962546 0.573113
vt 0.962589 0.818843
vt 0.687639 0.705012
vt 0.687640 0.687044
vt 0.788863 0.992632
vt 0.674938 0.717724
vt 0.543132 0.992676
vt 0.656962 0.717726
vt 0.369348 0.818950
vt 0.644253 0.705020
vt 0.369304 0.573220
vt 0.644250 0.687049
vt 0.543031 0.399431
vt 0.656955 0.674340
vt 0.788757 0.399386
vt 0.674926 0.674336
vt 0.669905 0.114688
vt 0.759353 0.025271
vt 0.822569 0.177952
vt 0.669885 0.241167
vt 0.759304 0.330615
vt 0.885783 0.330636
vt 0.975232 0.241217
vt 0.975251 0.114740
vt 0.885832 0.025292
vt 0.665944 0.696031
vt 0.962544 0.573116
vt 0.962588 0.818848
vt 0.735393 0.724783
vt 0.735382 0.667255
vt 0.788854 0.992634
vt 0.694723 0.765469
vt 0.543125 0.992672
vt 0.637191 0.765478
vt 0.369344 0.818940
vt 0.596503 0.724807
vt 0.369305 0.573211
vt 0.596495 0.667275
vt 0.543032 0.399428
vt 0.637170 0.626590
vt 0.788761 0.399389
vt 0.694698 0.626580
vt 0.669905 0.114689
vt 0.759354 0.025271
vt 0.822568 0.177954
vt 0.669885 0.241168
vt 0.759304 0.330616
vt 0.885782 0.330636
vt 0.975230 0.241218
vt 0.975250 0.114740
vt 0.885832 0.025291
vt 0.665945 0.696032
vt 0.962546 0.573115
vt 0.962589 0.818842
vt 0.713845 0.715859
vt 0.713831 0.676182
vt 0.788862 0.992632
vt 0.685789 0.743916
vt 0.543129 0.992674
vt 0.646112 0.743928
vt 0.369345 0.818949
vt 0.618055 0.715874
vt 0.369304 0.573216
vt 0.618050 0.676199
vt 0.543029 0.399431
vt 0.646098 0.648140
vt 0.788755 0.399388
vt 0.685772 0.648133
vt 0.669907 0.114687
vt 0.759355 0.025270
vt 0.822567 0.177951
vt 0.669884 0.241167
vt 0.759302 0.330615
vt 0.885781 0.330637
vt 0.975230 0.241217
vt 0.975251 0.114740
vt 0.885831 0.025291
vt 0.665943 0.696027
vt 0.198459 0.224209
vt 0.176994 0.224211
vt 0.176973 0.018952
vt 0.198438 0.018950
vt 0.348712 0.224193
vt 0.327247 0.224195
vt 0.327225 0.018936
vt 0.348690 0.018934
vt 0.305782 0.224198
vt 0.305761 0.018938
vt 0.284318 0.224200
vt 0.284296 0.018940
vt 0.262853 0.224202
vt 0.262832 0.018943
vt 0.241389 0.224204
vt 0.241367 0.018945
vt 0.219924 0.224207
vt 0.219902 0.018947
vt 0.962547 0.573109
vt 0.962590 0.818838
vt 0.719308 0.718122
vt 0.719302 0.673919
vt 0.788870 0.992631
vt 0.688060 0.749386
vt 0.543139 0.992674
vt 0.643856 0.749392
vt 0.369346 0.818954
vt 0.612593 0.718144
vt 0.369304 0.573224
vt 0.612585 0.673940
vt 0.543024 0.399431
vt 0.643835 0.642676
vt 0.788753 0.399387
vt 0.688038 0.642670
vt 0.669905 0.114690
vt 0.759355 0.025271
vt 0.822567 0.177953
vt 0.669886 0.241169
vt 0.759303 0.330615
vt 0.885781 0.330637
vt 0.975231 0.241217
vt 0.975250 0.114738
vt 0.885831 0.025289
vt 0.665947 0.696031
vn 0.329914 0.506728 -0.796482
vn 0.329914 0.506728 -0.796482
vn 0.329914 0.506728 -0.796482
vn 0.329914 0.506728 -0.796482
vn -0.329914 0.506729 -0.796481
vn -0.329914 0.506729 -0.796481
vn -0.329914 0.506729 -0.796481
vn -0.329914 0.506729 -0.796481
vn -0.796482 0.506729 -0.329914
vn -0.796482 0.506729 -0.329914
vn -0.796482 0.506729 -0.329914
vn -0.796482 0.506729 -0.329914
vn -0.796482 0.506729 0.329914
vn -0.796482 0.506729 0.329914
vn -0.796482 0.506729 0.329914
vn -0.796482 0.506729 0.329914
vn -0.329914 0.506729 0.796481
vn -0.329914 0.506729 0.796481
vn -0.329914 0.506729 0.796481
vn -0.329914 0.506729 0.796481
vn 0.329913 0.506728 0.796482
vn 0.329913 0.506728 0.796482
vn 0.329913 0.506728 0.796482
vn 0.329913 0.506728 0.796482
vn 0.796482 0.506729 0.329913
vn 0.796482 0.506729 0.329913
vn 0.796482 0.506729 0.329913
vn 0.796482 0.506729 0.329913
vn 0.796482 0.506729 -0.329913
vn 0.796482 0.506729 -0.329913
vn 0.796482 0.506729 -0.329913
vn 0.796482 0.506729 -0.329913
vn 0.000000 -1.000000 0.000000
vn 0.000000 -1.000000 0.000000
vn 0.000000 -1.000000 0.000000
vn 0.000000 -1.000000 0.000000
vn 0.000000 -1.000000 0.000000
vn 0.000000 -1.000000 0.000000
vn 0.000000 -1.000000 0.000000
vn 0.000000 -1.000000 0.000000
vn 0.000000 -1.000000 0.000000
vn 0.000000 -1.000000 0.000000
vn 0.000000 -1.000000 0.000000
vn 0.000000 -1.000000 0.000000
vn 0.000000 -1.000000 0.000000
vn 0.000000 -1.000000 0.000000
vn 0.000000 -1.000000 0.000000
vn 0.000000 -1.000000 0.000000
vn 0.000000 -1.000000 0.000000
vn 0.000000 -1.000000 0.000000
vn 0.000000 -1.000000 0.000000
vn 0.000000 -1.000000 0.000000
vn 0.000000 -1.000000 0.000000
vn 0.000000 -1.000000 0.000000
vn 0.000000 -1.000000 0.000000
vn 0.000000 -1.000000 0.000000
vn 0.000000 1.000000 0.000016
vn 0.000000 1.000000 0.000000
vn 0.000000 1.000000 0.000000
vn 0.000000 1.000000 0.000000
vn 0.000000 1.000000 -0.000016
vn 0.000000 1.000000 0.000000
vn 0.000000 1.000000 -0.000016
vn 0.000000 1.000000 0.000000
vn 0.000000 1.000000 0.000000
vn 0.000000 1.000000 0.000000
vn 0.000000 1.000000 0.000016
vn 0.000000 1.000000 0.000000
vn 0.000000 1.000000 0.000016
vn 0.000000 1.000000 0.000000
vn 0.000000 1.000000 0.000000
vn 0.000000 1.000000 0.000000
vn 0.000000 1.000000 -0.000016
vn 0.000000 1.000000 0.000000
vn 0.000000 1.000000 -0.000016
vn 0.000000 1.000000 0.000000
vn 0.000000 1.000000 0.000000
vn 0.000000 1.000000 0.000000
vn 0.000000 1.000000 0.000016
vn 0.000000 1.000000 0.000000
vn 0.320896 0.544838 -0.774711
vn 0.320896 0.544838 -0.774711
vn 0.320896 0.544838 -0.774711
vn 0.320896 0.544838 -0.774711
vn -0.320896 0.544838 -0.774711
vn -0.320896 0.544838 -0.774711
vn -0.320896 0.544838 -0.774711
vn -0.320896 0.544838 -0.774711
vn -0.774712 0.544837 -0.320895
vn -0.774712 0.544837 -0.320895
vn -0.774712 0.544837 -0.320895
vn -0.774712 0.544837 -0.320895
vn -0.774712 0.544837 0.320896
vn -0.774712 0.544837 0.320896
vn -0.774712 0.544837 0.320896
vn -0.774712 0.544837 0.320896
vn -0.320896 0.544838 0.774711
vn -0.320896 0.544838 0.774711
vn -0.320896 0.544838 0.774711
vn -0.320896 0.544838 0.774711
vn 0.320896 0.544838 0.774711
vn 0.320896 0.544838 0.774711
vn 0.320896 0.544838 0.774711
vn 0.320896 0.544838 0.774711
vn 0.774712 0.544837 0.320896
vn 0.774712 0.544837 0.320896
vn 0.774712 0.544837 0.320896
vn 0.774712 0.544837 0.320896
vn 0.774712 0.544837 -0.320896
vn 0.774712 0.544837 -0.320896
vn 0.774712 0.544837 -0.320896
vn 0.774712 0.544837 -0.320896
vn 0.000000 -1.000000 0.000000
vn 0.000000 -1.000000 0.000000
vn 0.000000 -1.000000 0.000000
vn 0.000000 -1.000000 0.000000
vn 0.000000 -1.000000 0.000000
vn 0.000000 -1.000000 0.000000
vn 0.000000 -1.000000 0.000000
vn 0.000000 -1.000000 0.000000
vn 0.000000 -1.000000 0.000000
vn 0.000000 -1.000000 0.000000
vn 0.000000 -1.000000 0.000000
vn 0.000000 -1.000000 0.000000
vn 0.000000 -1.000000 0.000000
vn 0.000000 -1.000000 0.000000
vn 0.000000 -1.000000 0.000000
vn 0.000000 -1.000000 0.000000
vn 0.000000 -1.000000 0.000000
vn 0.000000 -1.000000 0.000000
vn 0.000000 -1.000000 0.000000
vn 0.000000 -1.000000 0.000000
vn 0.000000 -1.000000 0.000000
vn 0.000000 -1.000000 0.000000
vn 0.000000 -1.000000 0.000000
vn 0.000000 -1.000000 0.000000
vn 0.000000 1.000000 -0.000002
vn 0.000000 1.000000 0.000000
vn 0.000000 1.000000 0.000000
vn 0.000000 1.000000 0.000000
vn 0.000000 1.000000 -0.000001
vn 0.000000 1.000000 0.000000
vn 0.000000 1.000000 -0.000001
vn 0.000000 1.000000 0.000001
vn 0.000000 1.000000 0.000000
vn 0.000000 1.000000 0.000001
vn 0.000000 1.000000 0.000002
vn 0.000000 1.000000 0.000000
vn 0.000000 1.000000 0.000002
vn 0.000000 1.000000 0.000000
vn 0.000000 1.000000 0.000000
vn 0.000000 1.000000 0.000000
vn 0.000000 1.000000 0.000001
vn 0.000000 1.000000 0.000000
vn 0.000000 1.000000 0.000001
vn 0.000000 1.000000 -0.000001
vn 0.000000 1.000000 0.000000
vn 0.000000 1.000000 -0.000001
vn 0.000000 1.000000 -0.000002
vn 0.000000 1.000000 0.000000
vn 0.280452 0.680385 -0.677069
vn 0.280452 0.680385 -0.677069
vn 0.280452 0.680386 -0.677069
vn 0.280452 0.680385 -0.677069
vn -0.280452 0.680385 -0.677069
vn -0.280452 0.680385 -0.677069
vn -0.280452 0.680385 -0.677069
vn -0.280452 0.680386 -0.677069
vn -0.677069 0.680385 -0.280451
vn -0.677069 0.680385 -0.280451
vn -0.677069 0.680385 -0.280451
vn -0.677069 0.680385 -0.280451
vn -0.677070 0.680385 0.280451
vn -0.677069 0.680385 0.280451
vn -0.677070 0.680385 0.280451
vn -0.677070 0.680385 0.280451
vn -0.280451 0.680386 0.677069
vn -0.280451 0.680385 0.677069
vn -0.280451 0.680385 0.677069
vn -0.280451 0.680386 0.677069
vn 0.280451 0.680386 0.677069
vn 0.280451 0.680386 0.677069
vn 0.280451 0.680385 0.677069
vn 0.280451 0.680386 0.677069
vn 0.677070 0.680385 0.280451
vn 0.677070 0.680385 0.280451
vn 0.677070 0.680385 0.280451
vn 0.677070 0.680385 0.280451
vn 0.677070 0.680385 -0.280451
vn 0.677069 0.680385 -0.280451
vn 0.677070 0.680385 -0.280451
vn 0.677069 0.680385 -0.280451
vn 0.000000 -1.000000 0.000000
vn 0.000000 -1.000000 0.000000
vn 0.000000 -1.000000 0.000000
vn 0.000000 -1.000000 0.000000
vn 0.000000 -1.000000 0.000000
vn 0.000000 -1.000000 0.000000
vn 0.000000 -1.000000 0.000000
vn 0.000000 -1.000000 0.000000
vn 0.000000 -1.000000 0.000000
vn 0.000000 -1.000000 0.000000
vn 0.000000 -1.000000 0.000000
vn 0.000000 -1.000000 0.000000
vn 0.000000 -1.000000 0.000000
vn 0.000000 -1.000000 0.000000
vn 0.000000 -1.000000 0.000000
vn 0.000000 -1.000000 0.000000
vn 0.000000 -1.000000 0.000000
vn 0.000000 -1.000000 0.000000
vn 0.000000 -1.000000 0.000000
vn 0.000000 -1.000000 0.000000
vn 0.000000 -1.000000 0.000000
vn 0.000000 -1.000000 0.000000
vn 0.000000 -1.000000 0.000000
vn 0.000000 -1.000000 0.000000
vn 0.000000 1.000000 0.000000
vn 0.000000 1.000000 0.000000
vn 0.000000 1.000000 0.000000
vn 0.000000 1.000000 0.000000
vn 0.000000 1.000000 0.000000
vn 0.000000 1.000000 0.000000
vn 0.000000 1.000000 0.000000
vn 0.000000 1.000000 0.000000
vn 0.000000 1.000000 0.000000
vn 0.000000 1.000000 0.000000
vn 0.000000 1.000000 0.000000
vn 0.000000 1.000000 0.000000
vn 0.000000 1.000000 0.000000
vn 0.000000 1.000000 0.000000
vn 0.000000 1.000000 0.000000
vn 0.000000 1.000000 0.000000
vn 0.000000 1.000000 0.000000
vn 0.000000 1.000000 0.000000
vn 0.000000 1.000000 0.000000
vn 0.000000 1.000000 0.000000
vn 0.000000 1.000000 0.000000
vn 0.000000 1.000000 0.000000
vn 0.000000 1.000000 0.000000
vn 0.000000 1.000000 0.000000
vn 0.382682 0.000000 -0.923880
vn 0.382682 0.000000 -0.923880
vn 0.382682 0.000000 -0.923880
vn 0.382682 0.000000 -0.923880
vn -0.382682 0.000000 -0.923880
vn -0.382682 0.000000 -0.923880
vn -0.382682 0.000000 -0.923880
vn -0.382682 0.000000 -0.923880
vn -0.923879 0.000000 -0.382684
vn -0.923879 0.000000 -0.382684
vn -0.923879 0.000000 -0.382684
vn -0.923879 0.000000 -0.382684
vn -0.923880 0.000000 0.382683
vn -0.923880 0.000000 0.382683
vn -0.923880 0.000000 0.382683
vn -0.923880 0.000000 0.382683
vn -0.382682 0.000000 0.923880
vn -0.382682 0.000000 0.923880
vn -0.382682 0.000000 0.923880
vn -0.382682 0.000000 0.923880
vn 0.382681 0.000000 0.923881
vn 0.382681 0.000000 0.923881
vn 0.382681 0.000000 0.923881
vn 0.382681 0.000000 0.923881
vn 0.923880 0.000000 0.382682
vn 0.923880 0.000000 0.382682
vn 0.923880 0.000000 0.382682
vn 0.923880 0.000000 0.382682
vn 0.923880 0.000000 -0.382683
vn 0.923880 0.000000 -0.382683
vn 0.923880 0.000000 -0.382683
vn 0.923880 0.000000 -0.382683
vn 0.000000 1.000000 0.000000
vn 0.000000 1.000000 0.000000
vn 0.000000 1.000000 0.000000
vn 0.000000 1.000000 0.000000
vn 0.000000 1.000000 0.000000
vn 0.000000 1.000000 0.000000
vn 0.000000 1.000000 0.000000
vn 0.000000 1.000000 0.000000
vn 0.000000 1.000000 0.000000
vn 0.000000 1.000000 0.000000
vn 0.000000 1.000000 0.000000
vn 0.000000 1.000000 0.000000
vn 0.000000 1.000000 0.000000
vn 0.000000 1.000000 0.000000
vn 0.000000 1.000000 0.000000
vn 0.000000 1.000000 0.000000
vn 0.000000 1.000000 0.000000
vn 0.000000 1.000000 0.000000
vn 0.000000 1.000000 0.000000
vn 0.000000 1.000000 0.000000
vn 0.000000 1.000000 0.000000
vn 0.000000 1.000000 0.000000
vn 0.000000 1.000000 0.000000
vn 0.000000 1.000000 0.000000
vn 0.296334 0.632746 -0.715415
vn 0.296334 0.632746 -0.715415
vn 0.296334 0.632746 -0.715415
vn 0.296334 0.632746 -0.715415
vn -0.296334 0.632746 -0.715415
vn -0.296334 0.632746 -0.715415
vn -0.296334 0.632746 -0.715415
vn -0.296334 0.632746 -0.715415
vn -0.715415 0.632746 -0.296334
vn -0.715415 0.632746 -0.296334
vn -0.715415 0.632746 -0.296334
vn -0.715415 0.632746 -0.296334
vn -0.715416 0.632746 0.296333
vn -0.715415 0.632746 0.296333
vn -0.715416 0.632746 0.296334
vn -0.715416 0.632746 0.296333
vn -0.296334 0.632746 0.715415
vn -0.296334 0.632746 0.715415
vn -0.296334 0.632746 0.715415
vn -0.296334 0.632746 0.715415
vn 0.296334 0.632746 0.715415
vn 0.296334 0.632746 0.715415
vn 0.296334 0.632746 0.715415
vn 0.296334 0.632746 0.715415
vn 0.715415 0.632746 0.296334
vn 0.715415 0.632746 0.296334
vn 0.715415 0.632746 0.296334
vn 0.715415 0.632746 0.296334
vn 0.715415 0.632746 -0.296334
vn 0.715415 0.632746 -0.296334
vn 0.715415 0.632746 -0.296334
vn 0.715415 0.632746 -0.296334
vn 0.000000 -0.999997 -0.002416
vn 0.001708 -0.999997 -0.001708
vn 0.000000 -1.000000 0.000000
vn -0.001708 -0.999997 -0.001708
vn 0.000000 -0.999997 -0.002416
vn 0.000000 -1.000000 0.000000
vn -0.002416 -0.999997 0.000000
vn -0.001708 -0.999997 -0.001708
vn 0.000000 -1.000000 0.000000
vn -0.001708 -0.999997 0.001708
vn -0.002416 -0.999997 0.000000
vn 0.000000 -1.000000 0.000000
vn 0.000000 -0.999997 0.002416
vn -0.001708 -0.999997 0.001708
vn 0.000000 -1.000000 0.000000
vn 0.001708 -0.999997 0.001708
vn 0.000000 -0.999997 0.002416
vn 0.000000 -1.000000 0.000000
vn 0.002416 -0.999997 0.000000
vn 0.001708 -0.999997 0.001708
vn 0.000000 -1.000000 0.000000
vn 0.001708 -0.999997 -0.001708
vn 0.002416 -0.999997 0.000000
vn 0.000000 -1.000000 0.000000
vn -0.000001 1.000000 0.000001
vn 0.000000 1.000000 0.000002
vn 0.000000 1.000000 0.000000
vn 0.000000 1.000000 0.000002
vn 0.000001 1.000000 0.000002
vn 0.000000 1.000000 0.000000
vn 0.000001 1.000000 0.000002
vn 0.000001 1.000000 0.000000
vn 0.000000 1.000000 0.000000
vn 0.000001 1.000000 0.000000
vn 0.000001 1.000000 -0.000002
vn 0.000000 1.000000 0.000000
vn 0.000001 1.000000 -0.000002
vn 0.000000 1.000000 -0.000002
vn 0.000000 1.000000 0.000000
vn 0.000000 1.000000 -0.000002
vn -0.000001 1.000000 -0.000001
vn 0.000000 1.000000 0.000000
vn -0.000001 1.000000 -0.000001
vn -0.000001 1.000000 0.000000
vn 0.000000 1.000000 0.000000
vn -0.000001 1.000000 0.000000
vn -0.000001 1.000000 0.000001
vn 0.000000 1.000000 0.000000
s off
g Tree3
usemtl initialShadingGroup
f 1/1/1 2/2/2 10/3/3 9/4/4
f 2/2/5 3/5/6 11/6/7 10/3/8
f 3/5/9 4/7/10 12/8/11 11/6/12
f 4/7/13 5/9/14 13/10/15 12/8/16
f 5/9/17 6/11/18 14/12/19 13/10/20
f 6/11/21 7/13/22 15/14/23 14/12/24
f 7/13/25 8/15/26 16/16/27 15/14/28
f 8/15/29 1/1/30 9/4/31 16/16/32
f 2/17/33 1/18/34 17/19/35
f 3/20/36 2/17/37 17/19/38
f 4/21/39 3/20/40 17/19/41
f 5/22/42 4/21/43 17/19/44
f 6/23/45 5/22/46 17/19/47
f 7/24/48 6/23/49 17/19/50
f 8/25/51 7/24/52 17/19/53
f 1/18/54 8/25/55 17/19/56
f 9/4/57 10/3/58 18/26/59
f 10/3/60 11/6/61 18/26/62
f 11/6/63 12/8/64 18/26/65
f 12/8/66 13/10/67 18/26/68
f 13/10/69 14/12/70 18/26/71
f 14/12/72 15/14/73 18/26/74
f 15/14/75 16/16/76 18/26/77
f 16/16/78 9/4/79 18/26/80
f 19/27/81 20/28/82 28/29/83 27/30/84
f 20/28/85 21/31/86 29/32/87 28/29/88
f 21/31/89 22/33/90 30/34/91 29/32/92
f 22/33/93 23/35/94 31/36/95 30/34/96
f 23/35/97 24/37/98 32/38/99 31/36/100
f 24/37/101 25/39/102 33/40/103 32/38/104
f 25/39/105 26/41/106 34/42/107 33/40/108
f 26/41/109 19/27/110 27/30/111 34/42/112
f 20/43/113 19/44/114 35/45/115
f 21/46/116 20/43/117 35/45/118
f 22/47/119 21/46/120 35/45/121
f 23/48/122 22/47/123 35/45/124
f 24/49/125 23/48/126 35/45/127
f 25/50/128 24/49/129 35/45/130
f 26/51/131 25/50/132 35/45/133
f 19/44/134 26/51/135 35/45/136
f 27/30/137 28/29/138 36/52/139
f 28/29/140 29/32/141 36/52/142
f 29/32/143 30/34/144 36/52/145
f 30/34/146 31/36/147 36/52/148
f 31/36/149 32/38/150 36/52/151
f 32/38/152 33/40/153 36/52/154
f 33/40/155 34/42/156 36/52/157
f 34/42/158 27/30/159 36/52/160
f 37/53/161 38/54/162 46/55/163 45/56/164
f 38/54/165 39/57/166 47/58/167 46/55/168
f 39/57/169 40/59/170 48/60/171 47/58/172
f 40/59/173 41/61/174 49/62/175 48/60/176
f 41/61/177 42/63/178 50/64/179 49/62/180
f 42/63/181 43/65/182 51/66/183 50/64/184
f 43/65/185 44/67/186 52/68/187 51/66/188
f 44/67/189 37/53/190 45/56/191 52/68/192
f 38/69/193 37/70/194 53/71/195
f 39/72/196 38/69/197 53/71/198
f 40/73/199 39/72/200 53/71/201
f 41/74/202 40/73/203 53/71/204
f 42/75/205 41/74/206 53/71/207
f 43/76/208 42/75/209 53/71/210
f 44/77/211 43/76/212 53/71/213
f 37/70/214 44/77/215 53/71/216
f 45/56/217 46/55/218 54/78/219
f 46/55/220 47/58/221 54/78/222
f 47/58/223 48/60/224 54/78/225
f 48/60/226 49/62/227 54/78/228
f 49/62/229 50/64/230 54/78/231
f 50/64/232 51/66/233 54/78/234
f 51/66/235 52/68/236 54/78/237
f 52/68/238 45/56/239 54/78/240
f 55/79/241 56/80/242 64/81/243 63/82/244
f 56/83/245 57/84/246 65/85/247 64/86/248
f 57/84/249 58/87/250 66/88/251 65/85/252
f 58/87/253 59/89/254 67/90/255 66/88/256
f 59/89/257 60/91/258 68/92/259 67/90/260
f 60/91/261 61/93/262 69/94/263 68/92/264
f 61/93/265 62/95/266 70/96/267 69/94/268
f 62/95/269 55/79/270 63/82/271 70/96/272
f 63//273 64//274 71//275
f 64//276 65//277 71//278
f 65//279 66//280 71//281
f 66//282 67//283 71//284
f 67//285 68//286 71//287
f 68//288 69//289 71//290
f 69//291 70//292 71//293
f 70//294 63//295 71//296
f 72/97/297 73/98/298 81/99/299 80/100/300
f 73/98/301 74/101/302 82/102/303 81/99/304
f 74/101/305 75/103/306 83/104/307 82/102/308
f 75/103/309 76/105/310 84/106/311 83/104/312
f 76/105/313 77/107/314 85/108/315 84/106/316
f 77/107/317 78/109/318 86/110/319 85/108/320
f 78/109/321 79/111/322 87/112/323 86/110/324
f 79/111/325 72/97/326 80/100/327 87/112/328
f 73/113/329 72/114/330 88/115/331
f 74/116/332 73/113/333 88/115/334
f 75/117/335 74/116/336 88/115/337
f 76/118/338 75/117/339 88/115/340
f 77/119/341 76/118/342 88/115/343
f 78/120/344 77/119/345 88/115/346
f 79/121/347 78/120/348 88/115/349
f 72/114/350 79/121/351 88/115/352
f 80/100/353 81/99/354 89/122/355
f 81/99/356 82/102/357 89/122/358
f 82/102/359 83/104/360 89/122/361
f 83/104/362 84/106/363 89/122/364
f 84/106/365 85/108/366 89/122/367
f 85/108/368 86/110/369 89/122/370
f 86/110/371 87/112/372 89/122/373
f 87/112/374 80/100/375 89/122/376
