# This file uses centimeters as units for non-parametric coordinates.

mtllib tree_fallen_01.mtl
g tree_birch_03:default1
v 1.898477 0.289886 0.359244
v 1.898477 0.461573 0.269476
v 1.786769 0.519499 0.084599
v 1.898477 0.429731 -0.087088
v 1.992305 0.244854 -0.145014
v 1.824347 0.073166 -0.055246
v 1.898477 0.015241 0.129631
v 2.070272 0.105009 0.301319
v -2.669685 0.352293 0.265380
v -2.669685 0.448200 0.258295
v -2.669686 0.418550 -0.073715
v -2.669686 0.246404 -0.127652
v -2.508123 0.108137 -0.026009
v -2.669685 0.096561 0.051579
v -2.635293 0.295747 0.308085
v 0.000000 0.289242 0.352030
v 0.000000 0.456016 0.264830
v 0.000000 0.512285 0.085243
v -0.000000 0.425084 -0.081531
v 0.000000 0.245498 -0.137800
v -0.000000 0.109655 0.295761
v -0.706980 0.387900 0.173689
v -0.706981 0.178008 -0.227740
v -0.706980 -0.012391 0.000000
v -0.247000 0.316134 0.319504
v -0.247000 0.482687 0.232421
v -0.247000 0.538881 0.053072
v -0.247000 0.451796 -0.113481
v -0.247000 0.272447 -0.169676
v -0.247000 0.049700 0.096758
v -0.247000 0.136784 0.263311
v 0.444374 0.260023 0.387436
v 0.444374 0.427077 0.300090
v 0.444374 0.483441 0.120202
v 0.444374 0.396094 -0.046855
v 0.444374 0.216203 -0.103218
v 0.444374 0.049150 -0.015871
v 0.444374 -0.007214 0.164016
v -1.681810 0.360234 0.229725
v -2.669686 0.502136 0.086149
v -1.687339 0.130635 -0.135115
v -1.681813 0.045305 -0.033570
v 0.000000 0.078724 -0.050600
v 0.000000 0.022455 0.128987
v -0.471634 0.360975 0.237915
v -0.706981 0.444000 -0.005361
v -0.706981 0.357060 -0.171639
v -0.706980 0.011731 -0.140801
v -0.471633 0.039638 -0.030732
v -0.706980 0.253602 0.222379
v -0.247000 0.105894 -0.082591
v 0.444374 0.080133 0.331073
v -0.544928 0.096475 0.200462
v -0.706981 0.168165 0.195611
v -0.864103 0.083004 0.169894
v -0.783139 0.054765 0.122357
v -0.706981 0.028205 0.077642
g default
v -0.698391 0.089998 0.185765
v 1.879479 0.267370 0.107115
v -2.669685 0.267370 0.107115
v -2.669686 0.255032 -0.031040
v -2.784575 0.354600 0.002777
v -2.639109 0.423819 0.093143
v -2.625817 0.372564 0.195061
v -2.669686 0.318716 0.202804
v -2.709241 0.231302 0.150257
v -2.669685 0.167702 0.074709
v -2.621289 0.170708 0.026302
v -2.669686 0.251476 -0.070865
v -2.784026 0.382649 -0.030773
v -2.669685 0.466198 0.089359
v -2.669686 0.405660 0.222730
v -2.669685 0.336524 0.235991
v -2.727181 0.317737 0.281782
v -2.669685 0.137722 0.064961
v -2.578682 0.147537 0.006930
v 1.986136 0.364472 0.188296
v 1.898477 0.393434 0.095857
v 1.898477 0.348550 0.010013
v 1.922778 0.256112 -0.018950
v 1.973051 0.147840 0.007184
v 1.898477 0.141305 0.118373
v 1.898477 0.186189 0.204217
v 1.970593 0.278628 0.233180
v 1.898477 0.078273 0.124002
v 1.945533 0.137481 0.262478
v 1.898477 0.284257 0.296212
v 1.898477 0.413022 0.228886
v 1.786768 0.456467 0.090228
v 1.898477 0.389141 -0.038538
v 1.992304 0.248231 -0.107195
v 1.898477 0.102297 -0.030892
vt 0.772954 0.731895
vt 0.549162 0.577908
vt 0.514331 0.984049
vt 0.526729 0.575307
vt 0.536005 0.985249
vt 0.536793 0.479534
vt 0.571526 0.580595
vt 0.558358 0.482945
vt 0.580161 0.486129
vt 0.541564 0.429353
vt 0.564094 0.432464
vt 0.586712 0.434652
vt 0.550642 0.336971
vt 0.573374 0.339408
vt 0.715675 0.536603
vt 0.596118 0.341697
vt 0.753125 0.457665
vt 0.738184 0.619388
vt 0.631671 0.437480
vt 0.664031 0.348476
vt 0.473873 0.421222
vt 0.641466 0.346077
vt 0.505354 0.332043
vt 0.625380 0.489412
vt 0.673477 0.046032
vt 0.947377 0.562968
vt 0.496504 0.423129
vt 0.648057 0.490616
vt 0.534617 0.031829
vt 0.493505 0.474461
vt 0.610722 0.584584
vt 0.486949 0.571878
vt 0.466881 0.537466
vt 0.621157 0.585506
vt 0.476146 0.571290
vt 0.625318 0.601692
vt 0.569126 0.988216
vt 0.629730 0.619108
vt 0.751714 0.931971
vt 0.583036 0.783558
vt 0.695116 0.843469
vt 0.593823 0.583108
vt 0.557693 0.986871
vt 0.480480 0.776427
vt 0.504106 0.573097
vt 0.471033 0.981780
vt 0.564842 0.783010
vt 0.602598 0.488332
vt 0.608256 0.535507
vt 0.609191 0.436112
vt 0.618836 0.343863
vt 0.814895 0.668913
vt 0.519034 0.426090
vt 0.527973 0.334460
vt 0.515238 0.476412
vt 0.838255 0.438001
vt 0.500078 0.522561
vt 0.590672 0.990889
vt 0.511406 0.029749
vt 0.482748 0.329885
vt 0.471252 0.474098
vt 0.654142 0.439633
vt 0.635995 0.584812
vt 0.466640 0.569094
vt 0.638466 0.552216
vt 0.462276 0.603143
vt 0.438086 0.978746
vt 0.854314 0.954532
vt 0.459656 0.980727
vt 0.492634 0.983018
vt 0.684452 0.788493
vt 0.909591 0.945557
vt 0.932152 0.842956
vt 0.875554 0.754455
vt 0.696636 0.048687
vt 0.911196 0.480175
vt 0.892602 0.634686
vt 0.650348 0.043207
vt 0.627275 0.040418
vt 0.604172 0.037892
vt 0.581035 0.035688
vt 0.557843 0.033736
vt 0.824300 0.550914
vt 0.797022 0.867025
vt 0.876543 0.852861
vt 0.842335 0.802072
vt 0.780983 0.776974
vt 0.731536 0.821341
vt 0.735408 0.852783
vt 0.768967 0.907239
vt 0.830452 0.918086
vt 0.857195 0.909004
vt 0.899466 0.848778
vt 0.856905 0.781187
vt 0.776638 0.752581
vt 0.710933 0.806967
vt 0.714039 0.847844
vt 0.763137 0.915596
vt 0.840508 0.933445
vt 0.871620 0.919067
vt 0.832562 0.497073
vt 0.791044 0.506592
vt 0.770002 0.542716
vt 0.781296 0.582854
vt 0.815459 0.616776
vt 0.858955 0.592365
vt 0.879734 0.555491
vt 0.866217 0.514460
vt 0.875601 0.614025
vt 0.913500 0.559192
vt 0.890421 0.496948
vt 0.834553 0.464700
vt 0.769547 0.479155
vt 0.742669 0.539265
vt 0.751085 0.609560
vt 0.815178 0.646267
vn 0.035334 0.077946 0.996331
vn 0.041142 0.236658 0.970722
vn 0.035767 0.078063 0.996307
vn 0.004645 0.886167 -0.463342
vn -0.018685 0.886022 -0.463266
vn 0.004645 0.886167 -0.463342
vn -0.038215 0.298771 -0.953559
vn -0.018733 0.298937 -0.954089
vn -0.038215 0.298771 -0.953559
vn -0.061223 -0.462475 -0.884516
vn -0.061221 -0.462476 -0.884516
vn -0.061223 -0.462476 -0.884516
vn -0.042555 -0.994096 0.099810
vn -0.048971 -0.996943 -0.060887
vn -0.042987 -0.994091 0.099678
vn -0.048852 0.462792 0.885120
vn -0.003294 0.463341 0.886174
vn -0.049958 0.462767 0.885071
vn 0.046897 0.953207 0.298659
vn -0.003790 0.954250 0.298985
vn 0.047970 0.953158 0.298644
vn 0.114735 0.880326 -0.460286
vn -0.003811 0.886170 -0.463344
vn 0.115800 0.880216 -0.460228
vn 0.115805 0.296976 -0.947837
vn -0.003322 0.298989 -0.954251
vn 0.114731 0.297015 -0.947955
vn -0.117743 -0.880014 0.460122
vn -0.003255 -0.886172 0.463345
vn -0.116666 -0.880127 0.460181
vn -0.116664 -0.296946 0.947741
vn -0.003688 -0.298989 0.954250
vn -0.117750 -0.296908 0.947618
vn -0.008235 0.341310 0.939915
vn -0.219478 0.403491 0.888271
vn -0.008905 0.341327 0.939902
vn -0.002970 -0.985550 -0.169362
vn 0.201789 -0.949405 -0.240648
vn -0.001518 -0.985548 -0.169388
vn -0.141115 0.455963 0.878740
vn -0.048852 0.462792 0.885120
vn -0.140854 0.455792 0.878871
vn -0.019545 0.886006 -0.463261
vn 0.114735 0.880326 -0.460286
vn -0.032250 0.885715 -0.463109
vn 0.072021 -0.952763 -0.295053
vn -0.048850 -0.953118 -0.298631
vn 0.055740 -0.953704 -0.295537
vn -0.036369 -0.885591 0.463039
vn -0.116666 -0.880127 0.460181
vn -0.047049 -0.885196 0.462833
vn -0.157928 -0.295232 0.942283
vn -0.116664 -0.296946 0.947741
vn -0.157889 -0.295234 0.942289
vn -0.003790 0.954250 0.298985
vn -0.016341 0.954130 0.298946
vn -0.003300 0.954252 0.298985
vn -0.003811 0.886170 -0.463344
vn -0.033301 0.885686 -0.463089
vn -0.003315 0.886172 -0.463345
vn -0.003322 0.298989 -0.954251
vn -0.033301 0.298823 -0.953727
vn -0.003804 0.298988 -0.954249
vn -0.003315 -0.463341 -0.886174
vn -0.016341 -0.463283 -0.886060
vn -0.003775 -0.463341 -0.886172
vn -0.003721 -0.954251 -0.298985
vn 0.007665 -0.954229 -0.298978
vn -0.003296 -0.954252 -0.298985
vn -0.003289 -0.298989 0.954251
vn 0.024635 -0.298898 0.953967
vn -0.003688 -0.298989 0.954250
vn -0.008235 0.341310 0.939915
vn -0.008905 0.341327 0.939902
vn 0.041142 0.236658 0.970722
vn 0.041142 0.236658 0.970722
vn -0.008905 0.341327 0.939902
vn 0.035767 0.078063 0.996307
vn -0.008235 0.341310 0.939915
vn 0.041142 0.236658 0.970722
vn 0.035334 0.077946 0.996331
vn -0.010874 0.954201 0.298970
vn -0.010028 0.954209 0.298973
vn 0.042168 0.953408 0.298721
vn -0.010874 0.954201 0.298970
vn 0.042168 0.953408 0.298721
vn 0.042168 0.953408 0.298721
vn -0.020834 0.885985 -0.463246
vn -0.018685 0.886022 -0.463266
vn 0.004645 0.886167 -0.463342
vn -0.018733 0.298937 -0.954089
vn -0.020807 0.298925 -0.954050
vn -0.038215 0.298771 -0.953559
vn 0.026819 -0.463178 -0.885859
vn 0.021979 -0.463234 -0.885964
vn -0.061221 -0.462476 -0.884516
vn -0.061221 -0.462476 -0.884516
vn 0.021979 -0.463234 -0.885964
vn -0.061223 -0.462476 -0.884516
vn 0.026819 -0.463178 -0.885859
vn -0.061221 -0.462476 -0.884516
vn -0.061223 -0.462475 -0.884516
vn -0.002970 -0.985550 -0.169362
vn -0.001518 -0.985548 -0.169388
vn -0.048971 -0.996943 -0.060887
vn -0.048971 -0.996943 -0.060887
vn -0.001518 -0.985548 -0.169388
vn -0.042987 -0.994091 0.099678
vn -0.002970 -0.985550 -0.169362
vn -0.048971 -0.996943 -0.060887
vn -0.042555 -0.994096 0.099810
vn 0.005872 -0.298985 0.954240
vn -0.023739 -0.298905 0.953988
vn 0.005872 -0.298985 0.954240
vn -0.003294 0.463341 0.886174
vn -0.003723 0.463342 0.886172
vn -0.049958 0.462767 0.885071
vn -0.003790 0.954250 0.298985
vn -0.003300 0.954252 0.298985
vn 0.047970 0.953158 0.298644
vn -0.003811 0.886170 -0.463344
vn -0.003315 0.886172 -0.463345
vn 0.115800 0.880216 -0.460228
vn -0.003322 0.298989 -0.954251
vn -0.003804 0.298988 -0.954249
vn 0.114731 0.297015 -0.947955
vn -0.003315 -0.463341 -0.886174
vn -0.003775 -0.463341 -0.886172
vn 0.046896 -0.462836 -0.885203
vn -0.003315 -0.463341 -0.886174
vn 0.046896 -0.462836 -0.885203
vn 0.047971 -0.462812 -0.885157
vn -0.003721 -0.954251 -0.298985
vn -0.003296 -0.954252 -0.298985
vn -0.048850 -0.953118 -0.298631
vn -0.003721 -0.954251 -0.298985
vn -0.048850 -0.953118 -0.298631
vn -0.049960 -0.953065 -0.298614
vn -0.003723 -0.886170 0.463345
vn -0.003255 -0.886172 0.463345
vn -0.117743 -0.880014 0.460122
vn -0.003289 -0.298989 0.954251
vn -0.003688 -0.298989 0.954250
vn -0.116664 -0.296946 0.947741
vn -0.141115 0.455963 0.878740
vn -0.140854 0.455792 0.878871
vn -0.219478 0.403491 0.888271
vn -0.219478 0.403491 0.888271
vn -0.140854 0.455792 0.878871
vn -0.008905 0.341327 0.939902
vn -0.141115 0.455963 0.878740
vn -0.219478 0.403491 0.888271
vn -0.008235 0.341310 0.939915
vn -0.124091 0.946881 0.296679
vn -0.134655 0.945565 0.296267
vn -0.010028 0.954209 0.298973
vn -0.124091 0.946881 0.296679
vn -0.010028 0.954209 0.298973
vn -0.010874 0.954201 0.298970
vn -0.019545 0.886006 -0.463261
vn -0.032250 0.885715 -0.463109
vn -0.018685 0.886022 -0.463266
vn -0.019545 0.886006 -0.463261
vn -0.018685 0.886022 -0.463266
vn -0.020834 0.885985 -0.463246
vn 0.093908 0.297671 -0.950039
vn 0.091211 0.297746 -0.950278
vn -0.018733 0.298937 -0.954089
vn -0.018733 0.298937 -0.954089
vn 0.091211 0.297746 -0.950278
vn -0.020807 0.298925 -0.954050
vn 0.155474 -0.457713 -0.875401
vn 0.154673 -0.457772 -0.875512
vn 0.021979 -0.463234 -0.885964
vn 0.155474 -0.457713 -0.875401
vn 0.021979 -0.463234 -0.885964
vn 0.026819 -0.463178 -0.885859
vn 0.072021 -0.952763 -0.295053
vn 0.055740 -0.953704 -0.295537
vn 0.201789 -0.949405 -0.240648
vn 0.201789 -0.949405 -0.240648
vn 0.055740 -0.953704 -0.295537
vn -0.001518 -0.985548 -0.169388
vn 0.072021 -0.952763 -0.295053
vn 0.201789 -0.949405 -0.240648
vn -0.002970 -0.985550 -0.169362
vn -0.036369 -0.885591 0.463039
vn -0.047049 -0.885196 0.462833
vn -0.025325 -0.885894 0.463196
vn -0.157928 -0.295232 0.942283
vn -0.157889 -0.295234 0.942289
vn -0.023739 -0.298905 0.953988
vn -0.048852 0.462792 0.885120
vn -0.049958 0.462767 0.885071
vn -0.140854 0.455792 0.878871
vn 0.046897 0.953207 0.298659
vn 0.047970 0.953158 0.298644
vn -0.124091 0.946881 0.296679
vn -0.124091 0.946881 0.296679
vn 0.047970 0.953158 0.298644
vn -0.134655 0.945565 0.296267
vn 0.114735 0.880326 -0.460286
vn 0.115800 0.880216 -0.460228
vn -0.032250 0.885715 -0.463109
vn 0.115805 0.296976 -0.947837
vn 0.114731 0.297015 -0.947955
vn 0.093908 0.297671 -0.950039
vn 0.093908 0.297671 -0.950039
vn 0.114731 0.297015 -0.947955
vn 0.091211 0.297746 -0.950278
vn 0.047971 -0.462812 -0.885157
vn 0.046896 -0.462836 -0.885203
vn 0.154673 -0.457772 -0.875512
vn 0.047971 -0.462812 -0.885157
vn 0.154673 -0.457772 -0.875512
vn 0.155474 -0.457713 -0.875401
vn -0.049960 -0.953065 -0.298614
vn -0.048850 -0.953118 -0.298631
vn 0.072021 -0.952763 -0.295053
vn -0.117743 -0.880014 0.460122
vn -0.116666 -0.880127 0.460181
vn -0.036369 -0.885591 0.463039
vn -0.116664 -0.296946 0.947741
vn -0.117750 -0.296908 0.947618
vn -0.157889 -0.295234 0.942289
vn 0.007665 0.463330 0.886153
vn 0.007665 0.463330 0.886153
vn -0.003294 0.463341 0.886174
vn -0.003294 0.463341 0.886174
vn 0.007665 0.463330 0.886153
vn -0.003723 0.463342 0.886172
vn -0.016341 0.954130 0.298946
vn -0.016341 0.954130 0.298946
vn -0.003790 0.954250 0.298985
vn -0.033301 0.885686 -0.463089
vn -0.033301 0.885686 -0.463089
vn -0.003811 0.886170 -0.463344
vn -0.033301 0.298823 -0.953727
vn -0.033301 0.298823 -0.953727
vn -0.003804 0.298988 -0.954249
vn -0.016341 -0.463283 -0.886060
vn -0.016341 -0.463283 -0.886060
vn -0.003315 -0.463341 -0.886174
vn 0.007665 -0.954229 -0.298978
vn 0.007665 -0.954229 -0.298978
vn -0.003296 -0.954252 -0.298985
vn 0.024635 -0.885909 0.463205
vn 0.024635 -0.885909 0.463205
vn -0.003255 -0.886172 0.463345
vn 0.024635 -0.885909 0.463205
vn -0.003255 -0.886172 0.463345
vn -0.003723 -0.886170 0.463345
vn 0.024635 -0.298898 0.953967
vn 0.024635 -0.298898 0.953967
vn -0.003688 -0.298989 0.954250
vn -0.157928 -0.295232 0.942283
vn -0.023739 -0.298905 0.953988
vn -0.020834 -0.298925 0.954049
vn -0.158806 -0.295195 0.942147
vn 0.005872 -0.298985 0.954240
vn -0.020834 -0.298925 0.954049
vn -0.023739 -0.298905 0.953988
vn 0.005872 -0.298985 0.954240
vn -0.036992 -0.885570 0.463032
vn -0.036992 -0.885572 0.463028
vn -0.036992 -0.885570 0.463032
vn -0.036992 -0.885570 0.463032
vn -0.025325 -0.885894 0.463196
vn -0.024492 -0.885912 0.463206
vn -0.036992 -0.885572 0.463028
vn -0.036992 -0.885570 0.463032
vn -0.025325 -0.885894 0.463196
vn -0.047049 -0.885196 0.462833
vn 0.022152 -0.885960 0.463232
vn -0.024492 -0.885912 0.463206
vn -0.051879 -0.593425 0.803216
vn -0.088868 -0.134084 0.986977
vn -0.050935 -0.601793 0.797027
vn -0.010953 -0.867784 0.496821
vn -0.040129 -0.689719 0.722964
vn -0.010952 -0.867787 0.496817
vn -0.824770 -0.466453 -0.319650
vn -0.719313 -0.654964 0.231540
vn -0.699998 -0.528458 -0.480350
vn -0.687952 -0.629657 -0.360907
vn 0.868492 0.338736 0.361910
vn 0.855376 0.403948 0.324281
vn 0.993977 -0.107980 0.018685
vn 0.964098 -0.223860 -0.142835
vn 0.790458 0.077127 -0.607641
vn 0.895862 -0.038694 -0.442644
vn 0.719691 0.442374 -0.535117
vn 0.595760 0.515155 -0.616186
vn 0.947645 0.095476 -0.304718
vn 0.870785 0.488979 -0.051317
vn 0.878583 0.475228 -0.047437
vn 0.969644 0.243550 -0.021749
vn 0.938389 0.339874 -0.062540
vn 0.829507 0.384713 -0.404863
vn 0.785349 -0.584952 -0.202630
vn 0.711231 -0.619904 -0.331465
vn -0.741471 -0.425391 -0.518905
vn -0.745170 -0.503531 -0.437238
vn -0.952376 0.185194 -0.242248
vn -0.705426 0.423883 -0.568064
vn -0.829706 0.446508 0.334990
vn -1.000000 0.000003 0.000006
vn -0.969225 -0.190480 -0.155948
vn -0.779918 0.523772 -0.342624
vn -0.944833 0.325258 0.038707
vn -0.819265 0.550403 -0.160819
vn -0.565666 -0.592869 0.573174
vn -0.798659 -0.391580 0.456956
vn -0.827144 -0.297329 0.476894
vn -0.736569 -0.671223 -0.083229
vn -0.970787 -0.057034 0.233064
vn -0.888334 -0.099806 0.448220
vn -0.977152 -0.115061 -0.178706
vn -0.706842 0.549816 -0.445058
vn -0.967578 0.054688 -0.246582
vn -0.898679 -0.134115 -0.417600
vn -0.828939 -0.430240 -0.357426
vn 0.708000 0.676211 -0.203651
vn 0.869632 0.487592 0.077425
vn 0.994286 -0.030977 -0.102160
vn 0.889785 0.387301 0.241415
vn 0.934171 0.183255 0.306172
vn 0.964805 -0.161557 0.207488
vn 0.994169 -0.054360 0.093129
vn 0.978404 -0.036878 -0.203388
vn 0.965496 -0.017513 0.259828
s off
g tree_birch_03:geo_trunk07 tree_birch_03:tree_birch_03 tree_fallen_01
usemtl lambert2SG
f 9/69/1 39/44/2 10/46/3
f 40/70/4 47/2/5 11/3/6
f 11/3/7 47/2/8 12/5/9
f 12/5/10 41/47/11 13/43/12
f 13/43/13 42/40/14 14/37/15
f 16/27/16 32/23/17 17/53/18
f 17/53/19 33/54/20 18/10/21
f 18/10/22 34/13/23 19/11/24
f 19/11/25 35/14/26 20/12/27
f 44/19/28 52/20/29 21/62/30
f 21/21/31 32/23/32 16/27/33
f 50/32/34 45/57/35 22/45/36
f 48/42/37 49/49/38 24/31/39
f 25/30/40 16/27/41 26/55/42
f 27/6/43 18/10/44 28/8/45
f 51/48/46 44/19/47 30/24/48
f 30/24/49 21/62/50 31/28/51
f 31/61/52 21/21/53 25/30/54
f 33/54/55 3/81/56 34/13/57
f 34/13/58 4/80/59 35/14/60
f 35/14/61 4/80/62 36/16/63
f 36/16/64 6/78/65 37/51/66
f 37/51/67 6/78/68 38/22/69
f 52/60/70 8/59/71 32/23/72
f 50/32/73 22/45/74 39/44/75
f 39/44/76 22/45/77 10/46/78
f 50/32/79 39/44/80 9/69/81
f 22/45/82 46/4/83 40/70/84
f 22/45/85 40/70/86 10/46/87
f 46/4/88 47/2/89 40/70/90
f 47/2/91 23/7/92 12/5/93
f 23/7/94 48/42/95 41/47/96
f 41/47/97 48/42/98 13/43/99
f 23/7/100 41/47/101 12/5/102
f 48/42/103 24/31/104 42/40/105
f 42/40/106 24/31/107 14/37/108
f 48/42/109 42/40/110 13/43/111
f 15/67/112 50/32/113 9/69/114
f 32/23/115 33/54/116 17/53/117
f 33/54/118 34/13/119 18/10/120
f 34/13/121 35/14/122 19/11/123
f 35/14/124 36/16/125 20/12/126
f 36/16/127 37/51/128 43/50/129
f 36/16/130 43/50/131 20/12/132
f 37/51/133 38/22/134 44/19/135
f 37/51/136 44/19/137 43/50/138
f 38/22/139 52/20/140 44/19/141
f 52/60/142 32/23/143 21/21/144
f 25/30/145 26/55/146 45/57/147
f 45/57/148 26/55/149 22/45/150
f 25/30/151 45/57/152 50/32/153
f 26/55/154 27/6/155 46/4/156
f 26/55/157 46/4/158 22/45/159
f 27/6/160 28/8/161 47/2/162
f 27/6/163 47/2/164 46/4/165
f 28/8/166 29/9/167 47/2/168
f 47/2/169 29/9/170 23/7/171
f 29/9/172 51/48/173 48/42/174
f 29/9/175 48/42/176 23/7/177
f 51/48/178 30/24/179 49/49/180
f 49/49/181 30/24/182 24/31/183
f 51/48/184 49/49/185 48/42/186
f 30/24/187 31/28/188 24/31/189
f 31/61/190 25/30/191 50/32/192
f 16/27/193 17/53/194 26/55/195
f 17/53/196 18/10/197 26/55/198
f 26/55/199 18/10/200 27/6/201
f 18/10/202 19/11/203 28/8/204
f 19/11/205 20/12/206 28/8/207
f 28/8/208 20/12/209 29/9/210
f 20/12/211 43/50/212 51/48/213
f 20/12/214 51/48/215 29/9/216
f 43/50/217 44/19/218 51/48/219
f 44/19/220 21/62/221 30/24/222
f 21/21/223 16/27/224 25/30/225
f 1/29/226 2/82/227 32/23/228
f 32/23/229 2/82/230 33/54/231
f 2/82/232 3/81/233 33/54/234
f 3/81/235 4/80/236 34/13/237
f 4/80/238 5/79/239 36/16/240
f 5/79/241 6/78/242 36/16/243
f 6/78/244 7/25/245 38/22/246
f 7/25/247 8/75/248 52/20/249
f 7/25/250 52/20/251 38/22/252
f 8/59/253 1/29/254 32/23/255
f 31/61/256 50/32/257 54/35/258 53/33/259
f 55/66/260 54/35/261 50/32/262 15/67/263
f 14/37/264 56/36/265 55/38/266 15/58/267
f 24/31/268 57/34/269 56/36/270 14/37/271
f 24/31/272 31/28/273 53/65/274 57/34/275
s 1
g tree_fallen_01
f 58/64/276 54/35/277 55/66/278
f 56/36/279 58/63/276 55/38/278
f 53/65/280 58/63/276 57/34/281
f 53/33/280 54/35/277 58/64/276
f 57/34/281 58/63/276 56/36/279
s 2
f 14/68/282 75/99/283 76/100/284 13/72/285
s 3
f 4/15/286 90/114/287 91/115/288 5/18/289
f 7/77/290 85/109/291 86/110/292 8/26/293
f 2/56/294 88/112/295 89/113/296 3/17/297
f 8/26/293 86/110/292 87/111/298 1/76/299
f 5/18/289 91/115/288 92/116/300 6/52/301
f 3/17/297 89/113/296 90/114/287 4/15/286
f 2/56/294 1/76/299 87/111/298 88/112/295
f 6/52/301 92/116/300 85/109/291 7/77/290
s 2
f 12/73/302 69/93/303 70/94/304 11/74/305
f 9/41/306 10/71/307 72/96/308 73/97/309
f 11/74/305 70/94/304 71/95/310 40/1/311
f 15/39/312 74/98/313 75/99/283 14/68/282
f 40/1/311 71/95/310 72/96/308 10/71/307
f 13/72/285 76/100/284 69/93/303 12/73/302
f 9/41/306 73/97/309 74/98/313 15/39/312
f 62/86/314 61/85/315 60/84/316
f 63/87/317 62/86/314 60/84/316
f 64/88/318 63/87/317 60/84/316
f 65/89/319 64/88/318 60/84/316
f 66/90/320 65/89/319 60/84/316
f 67/91/321 66/90/320 60/84/316
f 68/92/322 67/91/321 60/84/316
f 61/85/315 68/92/322 60/84/316
f 70/94/304 69/93/303 61/85/315 62/86/314
f 71/95/310 70/94/304 62/86/314 63/87/317
f 72/96/308 71/95/310 63/87/317 64/88/318
f 73/97/309 72/96/308 64/88/318 65/89/319
f 74/98/313 73/97/309 65/89/319 66/90/320
f 75/99/283 74/98/313 66/90/320 67/91/321
f 76/100/284 75/99/283 67/91/321 68/92/322
f 69/93/303 76/100/284 68/92/322 61/85/315
s 3
f 78/102/323 77/101/324 59/83/325
f 79/103/326 78/102/323 59/83/325
f 80/104/327 79/103/326 59/83/325
f 81/105/328 80/104/327 59/83/325
f 82/106/329 81/105/328 59/83/325
f 83/107/330 82/106/329 59/83/325
f 84/108/331 83/107/330 59/83/325
f 77/101/324 84/108/331 59/83/325
f 86/110/292 85/109/291 82/106/329 83/107/330
f 87/111/298 86/110/292 83/107/330 84/108/331
f 88/112/295 87/111/298 84/108/331 77/101/324
f 89/113/296 88/112/295 77/101/324 78/102/323
f 90/114/287 89/113/296 78/102/323 79/103/326
f 91/115/288 90/114/287 79/103/326 80/104/327
f 92/116/300 91/115/288 80/104/327 81/105/328
f 85/109/291 92/116/300 81/105/328 82/106/329
