# This file uses centimeters as units for non-parametric coordinates.

mtllib TreeStump.mtl
g default
v 0.952737 0.114302 -1.099688
v 0.000000 0.114302 -1.000000
v -0.876787 0.051553 -1.163753
v -1.174321 -0.031669 -0.136480
v -0.752404 0.152967 0.956136
v 0.000000 0.114302 1.000000
v 0.792868 0.114302 1.148459
v 0.799364 0.114302 0.000000
v 0.686182 1.796488 -0.595821
v 0.000000 1.796488 -1.000000
v -0.582089 1.807571 -0.593470
v -1.000000 1.796488 0.000000
v -0.682577 1.796488 0.640508
v 0.000000 1.796488 1.000000
v 0.606179 1.796488 0.534452
v 1.000000 1.796488 0.000000
v 0.535125 0.837051 -0.874311
v 0.000000 0.920037 -1.000000
v -0.611524 0.930707 -1.001075
v -1.000000 0.876446 0.000000
v -0.717223 1.152303 0.977369
v 0.000000 1.114302 1.000000
v 0.704337 1.114302 0.654373
v 1.000000 1.114302 0.000000
v 0.498587 1.271538 -0.623642
v 1.000000 1.271538 0.000000
v 0.631411 1.271538 0.577615
v 0.000000 1.271538 1.000000
v -0.660315 1.271538 0.853674
v -1.000000 1.271538 0.000000
v -0.613343 1.279850 -0.621880
v 0.000000 1.271538 -1.000000
v 0.845736 0.305601 -1.050672
v 0.000000 0.614302 -1.000000
v -0.647610 0.522172 -1.078510
v -1.101942 0.567937 -0.084908
v -0.581313 0.644565 0.835745
v 0.084040 0.602580 1.110336
v 0.780929 0.614302 0.856125
v 0.799364 0.614302 0.000000
v 0.634527 1.797155 -0.524093
v 0.000000 1.797155 -0.879615
v -0.512014 1.806904 -0.522026
v -0.879615 1.797155 0.000000
v -0.600405 1.797155 0.563400
v 0.000000 1.797155 0.879615
v 0.533204 1.797155 0.470112
v 0.879615 1.797155 0.000000
v 0.634527 1.726588 -0.524093
v 0.000000 1.726588 -0.879615
v 0.000000 1.726588 0.000000
v -0.512014 1.736337 -0.522026
v -0.879615 1.726588 0.000000
v -0.600405 1.726588 0.563400
v 0.000000 1.726588 0.879615
v 0.533204 1.726588 0.470112
v 0.879615 1.726588 0.000000
v 0.277351 1.080137 -0.863031
v -0.329069 1.109566 -0.894014
v -0.797578 1.066859 -0.435664
v -0.858211 1.130333 0.420954
v -0.349451 1.200865 0.957936
v 0.339885 1.191885 0.804968
v 0.831212 1.191443 0.314046
v 0.725708 1.100421 -0.432252
v 0.404441 0.625506 -0.984979
v -0.332625 0.741435 -1.021469
v -0.834605 0.723250 -0.555295
v -0.836116 0.816023 0.464974
v -0.305520 0.878304 0.980436
v 0.393607 0.865537 0.903099
v 0.819372 0.851297 0.381077
v 0.792403 0.708020 -0.496948
v 0.791219 1.520995 -0.309170
v 0.809265 1.531682 0.278388
v 0.309671 1.534487 0.777793
v -0.341492 1.543844 0.869455
v -0.832771 1.514375 0.383298
v -0.798521 1.538201 -0.304395
v -0.299427 1.537759 -0.803515
v 0.303335 1.552008 -0.801801
v 0.402286 0.291593 -1.033851
v -0.390796 0.303023 -1.063218
v -0.954005 0.278967 -0.604101
v -0.909749 0.321972 0.382574
v -0.317027 0.375542 0.974744
v 0.498004 0.336533 1.076404
v 0.855562 0.330177 0.587524
v 0.844738 0.293537 -0.487138
v 0.324595 1.796808 -0.755303
v -0.270916 1.801962 -0.753909
v -0.748571 1.801963 -0.276285
v -0.794142 1.796803 0.300559
v -0.320412 1.796803 0.774378
v 0.281883 1.796803 0.726668
v 0.760302 1.796803 0.248060
v 0.805934 1.796800 -0.275011
v 0.317264 1.761871 -0.701854
v -0.256007 1.766746 -0.700820
v -0.695815 1.766746 -0.261013
v -0.740010 1.761871 0.281700
v -0.300203 1.761871 0.721508
v 0.266602 1.761871 0.674864
v 0.706410 1.761871 0.235056
v 0.757071 1.761871 -0.262046
v 0.202417 1.726588 -0.458039
v -0.155274 1.729545 -0.454247
v -0.452727 1.729556 -0.158947
v -0.471466 1.726588 0.175434
v -0.189324 1.726588 0.465413
v 0.162965 1.726588 0.445324
v 0.454782 1.726588 0.139969
v 0.476064 1.726588 -0.161002
vt 0.821363 0.254000
vt 0.827375 0.302001
vt 0.821363 0.350002
vt 0.833388 0.254000
vt 0.833388 0.350002
vt 0.828207 0.209524
vt 0.835050 0.165048
vt 0.823025 0.165048
vt 0.828207 0.134582
vt 0.833388 0.104115
vt 0.821363 0.104115
vt 0.805689 0.254000
vt 0.811702 0.298652
vt 0.805689 0.343304
vt 0.817713 0.254000
vt 0.817713 0.343304
vt 0.811702 0.213947
vt 0.817713 0.173894
vt 0.805689 0.173894
vt 0.811702 0.139004
vt 0.817713 0.104115
vt 0.805689 0.104115
vt 0.781802 0.542882
vt 0.843814 0.501345
vt 0.804959 0.619301
vt 0.703479 0.508578
vt 0.781979 0.473922
vt 0.736340 0.583671
vt 0.814202 0.407099
vt 0.699254 0.633358
vt 0.744578 0.438492
vt 0.664829 0.580816
vt 0.716362 0.387888
vt 0.592756 0.610057
vt 0.672617 0.433722
vt 0.623893 0.540887
vt 0.602001 0.397856
vt 0.562905 0.506927
vt 0.625955 0.471836
vt 0.696137 0.277810
vt 0.662343 0.303020
vt 0.626951 0.316574
vt 0.701769 0.285631
vt 0.626951 0.329701
vt 0.714826 0.250651
vt 0.597412 0.302868
vt 0.735986 0.220665
vt 0.722860 0.220665
vt 0.563482 0.285375
vt 0.571124 0.277585
vt 0.709851 0.193618
vt 0.545330 0.250790
vt 0.693046 0.162391
vt 0.685089 0.169407
vt 0.517916 0.220665
vt 0.531042 0.220665
vt 0.657686 0.141433
vt 0.540362 0.187894
vt 0.626951 0.111630
vt 0.626951 0.124756
vt 0.552526 0.150828
vt 0.561485 0.159235
vt 0.592015 0.136231
vt 0.790015 0.104115
vt 0.796027 0.158176
vt 0.790015 0.212237
vt 0.802039 0.104115
vt 0.802039 0.212237
vt 0.786365 0.206423
vt 0.780353 0.155269
vt 0.786365 0.104115
vt 0.774340 0.206423
vt 0.774340 0.104115
vt 0.254475 0.429325
vt 0.291899 0.415653
vt 0.331054 0.427285
vt 0.253531 0.393884
vt 0.341865 0.416294
vt 0.289439 0.450193
vt 0.214905 0.412006
vt 0.313186 0.474885
vt 0.255730 0.476416
vt 0.295097 0.387352
vt 0.163859 0.401144
vt 0.198709 0.431557
vt 0.227807 0.453974
vt 0.245177 0.366412
vt 0.327947 0.371086
vt 0.203352 0.381468
vt 0.202519 0.478828
vt 0.155936 0.364681
vt 0.286525 0.343230
vt 0.183032 0.455127
vt 0.239118 0.312748
vt 0.337572 0.326699
vt 0.197912 0.341731
vt 0.164770 0.431715
vt 0.166025 0.478806
vt 0.147165 0.322668
vt 0.169835 0.605722
vt 0.194369 0.582130
vt 0.228556 0.605745
vt 0.151748 0.560846
vt 0.228574 0.560877
vt 0.200372 0.612656
vt 0.273165 0.569305
vt 0.228550 0.619855
vt 0.176717 0.619834
vt 0.175862 0.535359
vt 0.322869 0.533213
vt 0.307024 0.580897
vt 0.267345 0.604515
vt 0.111754 0.515962
vt 0.228563 0.588969
vt 0.272300 0.532110
vt 0.284514 0.619877
vt 0.203560 0.643189
vt 0.327274 0.516048
vt 0.256285 0.642252
vt 0.228532 0.666962
vt 0.180571 0.666943
vt 0.281998 0.666984
vt 0.158744 0.643423
vt 0.300491 0.645052
vt 0.138814 0.619819
vt 0.138795 0.666926
vt 0.318287 0.619891
vt 0.318268 0.666998
vt 0.156328 0.613574
vt 0.305756 0.579643
vt 0.247648 0.258617
vt 0.286578 0.239987
vt 0.319805 0.260394
vt 0.248106 0.217258
vt 0.320046 0.219310
vt 0.215264 0.258803
vt 0.287477 0.196676
vt 0.185250 0.206796
vt 0.248505 0.181284
vt 0.324825 0.171288
vt 0.200903 0.182076
vt 0.188983 0.257967
vt 0.149395 0.143859
vt 0.294893 0.145167
vt 0.249156 0.122453
vt 0.352404 0.116212
vt 0.201591 0.142789
vt 0.137054 0.121211
vt 0.128742 0.863571
vt 0.167067 0.854897
vt 0.210131 0.863650
vt 0.121742 0.848868
vt 0.210149 0.844269
vt 0.168007 0.897173
vt 0.252042 0.854768
vt 0.210068 0.928353
vt 0.125936 0.928272
vt 0.172519 0.815145
vt 0.296964 0.844353
vt 0.138554 0.786302
vt 0.220568 0.781206
vt 0.258693 0.813654
vt 0.287956 0.863724
vt 0.306463 0.782733
vt 0.171161 0.753174
vt 0.117524 0.725689
vt 0.210268 0.721012
vt 0.271624 0.748463
vt 0.333691 0.721131
vn 0.557524 0.056384 -0.828244
vn 0.438479 0.312454 -0.842680
vn 0.545653 0.023162 -0.837691
vn -0.473446 0.070781 -0.877974
vn -0.255553 0.493077 -0.831606
vn -0.474409 0.282224 -0.833838
vn -0.848250 0.232848 -0.475662
vn -0.884662 0.219632 -0.411260
vn -0.867763 0.039296 -0.495423
vn -0.931580 0.022131 0.362861
vn -0.943208 0.141932 0.300358
vn -0.905219 0.276129 0.323002
vn -0.242197 0.392537 0.887274
vn -0.099010 0.431393 0.896715
vn -0.262958 0.075016 0.961887
vn 0.556979 0.024486 0.830166
vn 0.472792 0.318484 0.821606
vn 0.545502 0.201225 0.813594
vn 0.827432 0.198084 0.525471
vn 0.835882 0.312602 0.451200
vn 0.843252 0.025115 0.536932
vn 0.815190 0.001768 -0.579191
vn 0.771540 0.311555 -0.554671
vn 0.799312 0.107839 -0.591161
vn 0.000000 1.000000 -0.000000
vn -0.000000 1.000000 0.000000
vn 0.008079 0.999967 0.000000
vn 0.002202 0.999995 0.002265
vn 0.019038 0.999819 0.000000
vn 0.009494 0.999911 0.009362
vn 0.000000 0.999826 0.018673
vn -0.000000 0.999967 0.008193
vn 0.000000 1.000000 -0.000000
vn -0.000000 1.000000 0.000000
vn 0.000000 1.000000 0.000000
vn 0.000000 1.000000 -0.000000
vn 0.000000 1.000000 -0.000000
vn 0.000000 1.000000 -0.000000
vn 0.000000 1.000000 -0.000000
vn 0.000000 1.000000 0.000000
vn 0.000000 1.000000 0.000001
vn 0.265060 0.379096 -0.886583
vn 0.118963 0.280043 -0.952588
vn 0.256902 0.126680 -0.958099
vn -0.088456 0.121442 -0.988649
vn 0.056079 0.111553 -0.992175
vn -0.053591 0.438843 -0.896964
vn -0.901106 0.220083 -0.373592
vn -0.891895 0.251595 -0.375797
vn -0.901316 0.196361 -0.386099
vn -0.939067 0.092366 0.331092
vn -0.894179 -0.178755 0.410476
vn -0.927959 -0.080465 0.363892
vn -0.133571 0.020063 0.990836
vn -0.213826 -0.077775 0.973771
vn -0.128786 0.084896 0.988032
vn 0.419675 0.227122 0.878799
vn 0.369989 0.327478 0.869406
vn 0.391656 0.406393 0.825500
vn 0.930384 0.205446 0.303606
vn 0.977011 -0.080463 0.197420
vn 0.930199 -0.182134 0.318680
vn 0.932779 -0.118224 -0.340508
vn 0.952314 0.167466 -0.255056
vn 0.792220 0.441820 -0.420931
vn 0.850636 -0.058258 -0.522518
vn 0.822107 -0.134399 -0.553242
vn 0.833410 -0.212902 -0.510001
vn 0.814766 0.068094 0.575778
vn 0.824133 0.043075 0.564756
vn 0.816528 0.018473 0.577010
vn 0.592994 0.018153 0.805002
vn 0.582321 0.047415 0.811575
vn 0.591402 0.076295 0.802760
vn -0.388419 0.273136 0.880072
vn -0.349642 0.182771 0.918882
vn -0.399602 0.067760 0.914181
vn -0.909132 0.025894 0.415703
vn -0.914220 0.063127 0.400271
vn -0.904146 0.103437 0.414512
vn -0.826301 0.063312 -0.559659
vn -0.833499 0.039706 -0.551093
vn -0.827524 0.015871 -0.561205
vn -0.558085 0.015832 -0.829633
vn -0.547807 0.038902 -0.835700
vn -0.556593 0.061859 -0.828479
vn 0.526858 -0.115585 -0.842057
vn 0.546311 -0.076815 -0.834053
vn 0.531784 -0.026423 -0.846468
vn 0.000846 0.230820 -0.972996
vn -0.075116 0.044979 -0.996160
vn -0.017845 0.033031 -0.999295
vn 0.117132 0.025953 -0.992777
vn 0.153249 0.051243 -0.986858
vn 0.115191 0.109329 -0.987309
vn -0.875693 0.321608 -0.360179
vn -0.898759 0.289611 -0.329177
vn -0.893551 0.256924 -0.368180
vn -0.899715 0.104502 0.423783
vn -0.894542 0.219354 0.389459
vn -0.900742 0.031651 0.433200
vn -0.281981 -0.007233 0.959393
vn -0.213491 0.068924 0.974511
vn -0.282599 -0.007077 0.959212
vn 0.209514 0.127215 0.969495
vn 0.071342 0.215635 0.973864
vn 0.301788 0.398301 0.866187
vn 0.984181 0.141046 0.107212
vn 0.999669 -0.016516 0.019727
vn 0.996083 -0.086897 0.016363
vn 0.988275 -0.152380 -0.009677
vn 0.990219 0.117929 0.074564
vn 0.892409 0.435169 -0.119309
vn 0.003751 0.999972 -0.006529
vn 0.003450 0.999976 -0.006002
vn 0.003203 0.999979 -0.005572
vn 0.015169 0.999870 -0.005542
vn 0.015169 0.999870 -0.005538
vn 0.015169 0.999870 -0.005544
vn -0.005542 0.999876 0.014771
vn -0.005541 0.999876 0.014772
vn -0.005541 0.999876 0.014772
vn -0.005541 0.999981 0.002746
vn -0.005541 0.999981 0.002746
vn -0.005541 0.999981 0.002746
vn -0.002918 0.999980 0.005542
vn -0.002918 0.999980 0.005541
vn -0.002919 0.999980 0.005542
vn 0.004255 0.999976 0.005543
vn 0.004256 0.999976 0.005539
vn 0.004256 0.999976 0.005539
vn 0.005541 0.999976 0.004083
vn 0.005541 0.999976 0.004083
vn 0.005541 0.999976 0.004083
vn 0.005612 0.999980 -0.002796
vn 0.006387 0.999975 -0.003177
vn 0.007513 0.999965 -0.003745
vn -0.488798 -0.000000 0.872397
vn -0.488801 -0.000000 0.872395
vn -0.488798 -0.000000 0.872397
vn 0.572580 0.000000 0.819849
vn 0.572582 0.000000 0.819848
vn 0.572580 0.000000 0.819849
vn 0.817623 0.000000 0.575755
vn 0.817623 0.000001 0.575755
vn 0.817623 0.000000 0.575755
vn 0.896005 0.000000 -0.444043
vn 0.896006 0.000001 -0.444043
vn 0.896005 0.000000 -0.444043
vn 0.465991 0.000000 -0.884790
vn 0.465991 0.000000 -0.884789
vn 0.465991 0.000000 -0.884790
vn -0.609099 0.000000 -0.793094
vn -0.609101 -0.000000 -0.793092
vn -0.609099 0.000000 -0.793094
vn -0.805045 0.000000 -0.593214
vn -0.805046 0.000001 -0.593212
vn -0.805046 0.000000 -0.593212
vn -0.905844 -0.000000 0.423612
vn -0.905845 -0.000001 0.423610
vn -0.905844 -0.000000 0.423612
vn -0.070914 0.146241 -0.986704
vn -0.088528 0.010704 -0.996016
vn 0.166119 0.013694 -0.986011
vn 0.161869 0.080375 -0.983534
vn -0.866054 0.409999 -0.286097
vn -0.930721 0.186599 -0.314546
vn -0.915139 0.119574 0.384996
vn -0.876954 0.339131 0.340503
vn -0.140260 0.193173 0.971088
vn -0.162821 -0.102724 0.981294
vn -0.088646 -0.140385 0.986121
vn 0.019844 0.332095 0.943037
vn 0.994603 -0.036087 0.097276
vn 0.995656 -0.055256 -0.074935
vn 0.994560 0.023817 0.101402
vn 0.923404 0.380356 0.051511
vn 0.003763 0.999972 -0.006525
vn 0.003226 0.999979 -0.005586
vn 0.015169 0.999870 -0.005540
vn 0.015169 0.999870 -0.005543
vn -0.005542 0.999876 0.014771
vn -0.005541 0.999876 0.014772
vn -0.005541 0.999981 0.002746
vn -0.005541 0.999981 0.002746
vn -0.002918 0.999980 0.005542
vn -0.002919 0.999980 0.005541
vn 0.004256 0.999976 0.005544
vn 0.004256 0.999976 0.005540
vn 0.005541 0.999976 0.004083
vn 0.005541 0.999976 0.004082
vn 0.005627 0.999980 -0.002837
vn 0.007448 0.999965 -0.003753
vn -0.488798 0.000000 0.872397
vn -0.488798 0.000000 0.872397
vn 0.572580 -0.000000 0.819849
vn 0.572580 -0.000000 0.819849
vn 0.817622 -0.000000 0.575755
vn 0.817622 -0.000000 0.575755
vn 0.896005 0.000000 -0.444043
vn 0.896005 0.000000 -0.444043
vn 0.465991 0.000000 -0.884790
vn 0.465991 0.000000 -0.884790
vn -0.609099 -0.000000 -0.793094
vn -0.609099 -0.000000 -0.793094
vn -0.805045 0.000000 -0.593214
vn -0.805046 0.000000 -0.593212
vn -0.905844 0.000000 0.423611
vn -0.905844 0.000000 0.423611
s 1
g pCylinder1
usemtl aiStandardSurface1SG
f 25/116/1 58/130/2 32/127/3
s 2
f 32/131/4 59/132/5 31/133/6
s 3
f 31/85/7 60/80/8 30/74/9
s 4
f 30/74/10 61/75/11 29/76/12
s 5
f 29/149/13 62/150/14 28/151/15
s 6
f 28/125/16 63/129/17 27/108/18
s 7
f 27/108/19 64/105/20 26/107/21
s 8
f 26/107/22 65/112/23 25/116/24
s 9
f 106/23/25 49/24/26 50/25/27
f 106/23/25 50/25/27 51/26/28
f 106/23/25 51/26/28 49/24/26
f 107/28/29 50/25/27 52/30/30
f 107/28/29 52/30/30 51/26/28
f 107/28/29 51/26/28 50/25/27
f 108/32/31 52/30/30 53/34/32
f 108/32/31 53/34/32 51/26/28
f 108/32/31 51/26/28 52/30/30
f 109/36/33 53/34/32 54/38/34
f 109/36/33 54/38/34 51/26/28
f 109/36/33 51/26/28 53/34/32
f 110/39/35 54/38/34 55/37/36
f 110/39/35 55/37/36 51/26/28
f 110/39/35 51/26/28 54/38/34
f 111/35/37 55/37/36 56/33/38
f 111/35/37 56/33/38 51/26/28
f 111/35/37 51/26/28 55/37/36
f 112/31/39 56/33/38 57/29/40
f 112/31/39 57/29/40 51/26/28
f 112/31/39 51/26/28 56/33/38
f 113/27/41 57/29/40 49/24/26
f 113/27/41 49/24/26 51/26/28
f 113/27/41 51/26/28 57/29/40
s 1
f 17/138/42 66/141/43 18/134/44
s 2
f 18/134/45 67/137/46 19/135/47
s 3
f 19/84/48 68/89/49 20/77/50
s 4
f 20/77/51 69/83/52 21/78/53
s 5
f 21/152/54 70/158/55 22/153/56
s 6
f 22/153/57 71/162/58 23/159/59
s 7
f 23/100/60 72/101/61 24/102/62
s 8
f 24/102/63 73/106/64 17/111/65
f 16/120/66 74/119/67 9/122/68
s 7
f 15/121/69 75/117/70 16/120/71
s 6
f 14/126/72 76/123/73 15/121/74
s 5
f 13/157/75 77/154/76 14/156/77
s 4
f 12/82/78 78/79/79 13/81/80
s 3
f 11/90/81 79/86/82 12/82/83
s 2
f 10/98/84 80/93/85 11/90/86
s 1
f 9/122/87 81/124/88 10/128/89
f 33/143/90 82/147/91 34/139/92
s 2
f 34/139/93 83/144/94 35/140/95
s 3
f 35/91/96 84/96/97 36/87/98
s 4
f 36/87/99 85/92/100 37/88/101
s 5
f 37/160/102 86/165/103 38/161/104
s 6
f 38/161/105 87/168/106 39/164/107
s 7
f 39/103/108 88/109/109 40/104/110
s 8
f 40/104/111 89/115/112 33/110/113
s 34
f 41/40/114 90/41/115 42/42/116
s 35
f 42/42/117 91/46/118 43/50/119
s 36
f 43/50/120 92/52/121 44/56/122
s 37
f 44/56/123 93/58/124 45/62/125
s 38
f 45/62/126 94/63/127 46/60/128
s 39
f 46/60/129 95/57/130 47/54/131
s 40
f 47/54/132 96/51/133 48/48/134
s 41
f 48/48/135 97/45/136 41/40/137
s 42
f 49/64/138 98/65/139 50/66/140
s 43
f 50/11/141 99/9/142 52/8/143
s 44
f 52/8/144 100/6/145 53/1/146
s 45
f 53/1/147 101/2/148 54/3/149
s 46
f 54/69/150 102/70/151 55/71/152
s 47
f 55/22/153 103/20/154 56/19/155
s 48
f 56/19/156 104/17/157 57/12/158
s 49
f 57/12/159 105/13/160 49/14/161
s 1
f 17/138/42 18/134/44 58/136/2
f 58/136/2 18/134/44 32/131/3
f 17/138/42 58/136/2 25/142/1
s 2
f 18/134/45 19/135/47 59/132/5
f 59/132/5 19/135/47 31/133/6
f 18/134/45 59/132/5 32/131/4
s 3
f 19/84/48 20/77/50 60/80/8
f 60/80/8 20/77/50 30/74/9
f 19/84/48 60/80/8 31/85/7
s 4
f 20/77/51 21/78/53 61/75/11
f 61/75/11 21/78/53 29/76/12
f 20/77/51 61/75/11 30/74/10
s 5
f 21/152/54 22/153/56 62/150/14
f 62/150/14 22/153/56 28/151/15
f 21/152/54 62/150/14 29/149/13
s 6
f 22/153/57 23/159/59 63/155/17
f 63/155/17 23/159/59 27/163/18
f 22/153/57 63/155/17 28/151/16
s 7
f 23/100/60 24/102/62 64/105/20
f 64/105/20 24/102/62 26/107/21
f 23/100/60 64/105/20 27/108/19
s 8
f 24/102/63 17/111/65 65/112/23
f 65/112/23 17/111/65 25/116/24
f 24/102/63 65/112/23 26/107/22
s 1
f 33/143/90 34/139/92 66/141/43
f 66/141/43 34/139/92 18/134/44
f 33/143/90 66/141/43 17/138/42
s 2
f 34/139/93 35/140/95 67/137/46
f 67/137/46 35/140/95 19/135/47
f 34/139/93 67/137/46 18/134/45
s 3
f 35/91/96 36/87/98 68/89/49
f 68/89/49 36/87/98 20/77/50
f 35/91/96 68/89/49 19/84/48
s 4
f 36/87/99 37/88/101 69/83/52
f 69/83/52 37/88/101 21/78/53
f 36/87/99 69/83/52 20/77/51
s 5
f 37/160/102 38/161/104 70/158/55
f 70/158/55 38/161/104 22/153/56
f 37/160/102 70/158/55 21/152/54
s 6
f 38/161/105 39/164/107 71/162/58
f 71/162/58 39/164/107 23/159/59
f 38/161/105 71/162/58 22/153/57
s 7
f 39/103/108 40/104/110 72/101/61
f 72/101/61 40/104/110 24/102/62
f 39/103/108 72/101/61 23/100/60
s 8
f 40/104/111 33/110/113 73/106/64
f 73/106/64 33/110/113 17/111/65
f 40/104/111 73/106/64 24/102/63
f 26/107/22 25/116/24 74/119/67
f 74/119/67 25/116/24 9/122/68
f 26/107/22 74/119/67 16/120/66
s 7
f 27/108/19 26/107/21 75/117/70
f 75/117/70 26/107/21 16/120/71
f 27/108/19 75/117/70 15/121/69
s 6
f 28/125/16 27/108/18 76/123/73
f 76/123/73 27/108/18 15/121/74
f 28/125/16 76/123/73 14/126/72
s 5
f 29/149/13 28/151/15 77/154/76
f 77/154/76 28/151/15 14/156/77
f 29/149/13 77/154/76 13/157/75
s 4
f 30/74/10 29/76/12 78/79/79
f 78/79/79 29/76/12 13/81/80
f 30/74/10 78/79/79 12/82/78
s 3
f 31/85/7 30/74/9 79/86/82
f 79/86/82 30/74/9 12/82/83
f 31/85/7 79/86/82 11/90/81
s 2
f 32/97/4 31/85/6 80/93/85
f 80/93/85 31/85/6 11/90/86
f 32/97/4 80/93/85 10/98/84
s 1
f 25/116/1 32/127/3 81/124/88
f 81/124/88 32/127/3 10/128/89
f 25/116/1 81/124/88 9/122/87
f 1/148/162 2/145/163 82/147/91
f 82/147/91 2/145/163 34/139/92
f 1/148/162 82/147/91 33/143/90
s 2
f 2/145/164 3/146/165 83/144/94
f 83/144/94 3/146/165 35/140/95
f 2/145/164 83/144/94 34/139/93
s 3
f 3/99/166 4/94/167 84/96/97
f 84/96/97 4/94/167 36/87/98
f 3/99/166 84/96/97 35/91/96
s 4
f 4/94/168 5/95/169 85/92/100
f 85/92/100 5/95/169 37/88/101
f 4/94/168 85/92/100 36/87/99
s 5
f 5/166/170 6/167/171 86/165/103
f 86/165/103 6/167/171 38/161/104
f 5/166/170 86/165/103 37/160/102
s 6
f 6/167/172 7/169/173 87/168/106
f 87/168/106 7/169/173 39/164/107
f 6/167/172 87/168/106 38/161/105
s 7
f 7/113/174 8/114/175 88/109/109
f 88/109/109 8/114/175 40/104/110
f 7/113/174 88/109/109 39/103/108
s 8
f 8/114/176 1/118/177 89/115/112
f 89/115/112 1/118/177 33/110/113
f 8/114/176 89/115/112 40/104/111
s 34
f 9/43/178 10/44/179 90/41/115
f 90/41/115 10/44/179 42/42/116
f 9/43/178 90/41/115 41/40/114
s 35
f 10/44/180 11/49/181 91/46/118
f 91/46/118 11/49/181 43/50/119
f 10/44/180 91/46/118 42/42/117
s 36
f 11/49/182 12/55/183 92/52/121
f 92/52/121 12/55/183 44/56/122
f 11/49/182 92/52/121 43/50/120
s 37
f 12/55/184 13/61/185 93/58/124
f 93/58/124 13/61/185 45/62/125
f 12/55/184 93/58/124 44/56/123
s 38
f 13/61/186 14/59/187 94/63/127
f 94/63/127 14/59/187 46/60/128
f 13/61/186 94/63/127 45/62/126
s 39
f 14/59/188 15/53/189 95/57/130
f 95/57/130 15/53/189 47/54/131
f 14/59/188 95/57/130 46/60/129
s 40
f 15/53/190 16/47/191 96/51/133
f 96/51/133 16/47/191 48/48/134
f 15/53/190 96/51/133 47/54/132
s 41
f 16/47/192 9/43/193 97/45/136
f 97/45/136 9/43/193 41/40/137
f 16/47/192 97/45/136 48/48/135
s 42
f 41/67/194 42/68/195 98/65/139
f 98/65/139 42/68/195 50/66/140
f 41/67/194 98/65/139 49/64/138
s 43
f 42/10/196 43/7/197 99/9/142
f 99/9/142 43/7/197 52/8/143
f 42/10/196 99/9/142 50/11/141
s 44
f 43/7/198 44/4/199 100/6/145
f 100/6/145 44/4/199 53/1/146
f 43/7/198 100/6/145 52/8/144
s 45
f 44/4/200 45/5/201 101/2/148
f 101/2/148 45/5/201 54/3/149
f 44/4/200 101/2/148 53/1/147
s 46
f 45/72/202 46/73/203 102/70/151
f 102/70/151 46/73/203 55/71/152
f 45/72/202 102/70/151 54/69/150
s 47
f 46/21/204 47/18/205 103/20/154
f 103/20/154 47/18/205 56/19/155
f 46/21/204 103/20/154 55/22/153
s 48
f 47/18/206 48/15/207 104/17/157
f 104/17/157 48/15/207 57/12/158
f 47/18/206 104/17/157 56/19/156
s 49
f 48/15/208 41/16/209 105/13/160
f 105/13/160 41/16/209 49/14/161
f 48/15/208 105/13/160 57/12/159
