# This file uses centimeters as units for non-parametric coordinates.

mtllib Tree3.mtl
g default
v 0.707107 5.761336 -0.707107
v -0.000000 5.761336 -1.000000
v -0.707107 5.761336 -0.707107
v -1.000000 5.761336 -0.000000
v -0.707107 5.761336 0.707107
v -0.000000 5.761336 1.000000
v 0.707107 5.761336 0.707107
v 1.000000 5.761336 -0.000000
v 0.051714 7.218194 -0.051714
v 0.000000 7.218194 -0.073135
v -0.051714 7.218194 -0.051714
v -0.073135 7.218194 0.000000
v -0.051714 7.218194 0.051714
v 0.000000 7.218194 0.073135
v 0.051714 7.218194 0.051714
v 0.073135 7.218194 0.000000
v -0.000000 5.761336 -0.000000
v 0.000000 7.218194 0.000000
v 1.213403 4.231664 -1.213404
v -0.000000 4.231664 -1.716012
v -1.213403 4.231664 -1.213404
v -1.716010 4.231664 -0.000000
v -1.213403 4.231664 1.213404
v -0.000000 4.231664 1.716012
v 1.213403 4.231664 1.213404
v 1.716010 4.231664 -0.000000
v 0.284080 6.100430 -0.284080
v 0.000000 6.100430 -0.401750
v -0.284080 6.100430 -0.284080
v -0.401750 6.100430 0.000000
v -0.284080 6.100430 0.284080
v 0.000000 6.100430 0.401750
v 0.284080 6.100430 0.284080
v 0.401750 6.100430 0.000000
v -0.000000 4.231664 -0.000000
v 0.000000 6.100430 0.000000
v 1.759447 2.962122 -1.759449
v -0.000000 2.962122 -2.488236
v -1.759448 2.962122 -1.759449
v -2.488235 2.962122 -0.000000
v -1.759448 2.962122 1.759449
v -0.000000 2.962122 2.488236
v 1.759448 2.962122 1.759449
v 2.488234 2.962122 -0.000000
v 0.284080 5.038437 -0.284080
v 0.000000 5.038437 -0.401750
v -0.284080 5.038437 -0.284080
v -0.401750 5.038437 0.000000
v -0.284080 5.038437 0.284080
v 0.000000 5.038437 0.401750
v 0.284080 5.038437 0.284080
v 0.401750 5.038437 0.000000
v -0.000000 2.962122 -0.000000
v 0.000000 5.038437 0.000000
v 0.304766 0.006592 -0.304766
v -0.000000 0.006592 -0.431004
v -0.304765 0.006592 -0.304766
v -0.431004 0.006592 -0.000000
v -0.304766 0.006592 0.304766
v -0.000000 0.006592 0.431004
v 0.304766 0.006592 0.304766
v 0.431004 0.006592 -0.000000
v 0.304766 3.161089 -0.304766
v -0.000000 3.161089 -0.431004
v -0.304766 3.161089 -0.304766
v -0.431004 3.161089 -0.000000
v -0.304766 3.161089 0.304766
v -0.000000 3.161089 0.431004
v 0.304766 3.161089 0.304766
v 0.431004 3.161089 -0.000000
v -0.000000 0.006592 -0.000000
v -0.000000 3.161089 -0.000000
v 2.159070 1.537150 -2.159071
v -0.000000 1.537150 -3.053385
v -2.159070 1.537150 -2.159071
v -3.053383 1.537150 -0.000000
v -2.159070 1.537150 2.159071
v -0.000000 1.537150 3.053385
v 2.159070 1.537150 2.159071
v 3.053384 1.537150 -0.000000
v 0.388385 4.368444 -0.388385
v 0.000000 4.368444 -0.549259
v -0.388385 4.368444 -0.388385
v -0.549259 4.368444 0.000000
v -0.388385 4.368444 0.388385
v 0.000000 4.368444 0.549259
v 0.388385 4.368444 0.388385
v 0.549259 4.368444 0.000000
v -0.000000 1.529775 -0.000000
v 0.000000 4.368443 0.000000
vt 0.727151 0.145108
vt 0.748305 0.145108
vt 0.748305 0.878133
vt 0.727151 0.878133
vt 0.769458 0.145108
vt 0.769458 0.878133
vt 0.825971 0.145108
vt 0.847124 0.145108
vt 0.847124 0.878133
vt 0.825971 0.878133
vt 0.868278 0.145108
vt 0.868278 0.878133
vt 0.382769 0.152471
vt 0.427892 0.171162
vt 0.382769 0.216286
vt 0.446583 0.216286
vt 0.337645 0.171162
vt 0.427892 0.261410
vt 0.318954 0.216286
vt 0.382769 0.280101
vt 0.337645 0.261410
vt 0.251535 0.212986
vt 0.252901 0.216286
vt 0.248234 0.216286
vt 0.293358 0.171162
vt 0.312049 0.216286
vt 0.251535 0.219586
vt 0.248234 0.211619
vt 0.293358 0.261410
vt 0.248234 0.152471
vt 0.248234 0.220953
vt 0.244934 0.212986
vt 0.248234 0.280101
vt 0.203111 0.171162
vt 0.244934 0.219586
vt 0.243567 0.216286
vt 0.203111 0.261410
vt 0.184420 0.216286
vt 0.235966 0.522350
vt 0.277620 0.532540
vt 0.244493 0.577726
vt 0.299869 0.569199
vt 0.199307 0.544599
vt 0.289679 0.610853
vt 0.189117 0.586253
vt 0.253020 0.633102
vt 0.211366 0.622912
vt 0.369794 0.582182
vt 0.361212 0.587391
vt 0.359215 0.574427
vt 0.404402 0.607553
vt 0.367743 0.629803
vt 0.351460 0.585006
vt 0.372180 0.572430
vt 0.326088 0.619613
vt 0.414591 0.565899
vt 0.346251 0.576423
vt 0.366971 0.563848
vt 0.303839 0.582954
vt 0.392342 0.529240
vt 0.348636 0.566671
vt 0.357219 0.561462
vt 0.314029 0.541300
vt 0.350688 0.519051
vt 0.216904 0.449996
vt 0.230506 0.417158
vt 0.263344 0.449996
vt 0.263344 0.403556
vt 0.230506 0.482835
vt 0.296183 0.417158
vt 0.263344 0.496437
vt 0.309785 0.449996
vt 0.296183 0.482835
vt 0.363136 0.455298
vt 0.357834 0.457495
vt 0.357834 0.449996
vt 0.390672 0.482835
vt 0.357834 0.496437
vt 0.352532 0.455298
vt 0.365332 0.449996
vt 0.324995 0.482835
vt 0.404274 0.449996
vt 0.350335 0.449996
vt 0.363136 0.444694
vt 0.311393 0.449996
vt 0.390672 0.417158
vt 0.352532 0.444694
vt 0.357834 0.442498
vt 0.324995 0.417158
vt 0.357834 0.403556
vt 0.203256 0.688288
vt 0.216795 0.655602
vt 0.249481 0.688288
vt 0.249481 0.642063
vt 0.216795 0.720975
vt 0.282168 0.655602
vt 0.249481 0.734514
vt 0.295707 0.688288
vt 0.282168 0.720975
vt 0.384943 0.720975
vt 0.352257 0.734514
vt 0.352257 0.688288
vt 0.319570 0.720975
vt 0.398483 0.688288
vt 0.306031 0.688288
vt 0.384943 0.655602
vt 0.319570 0.655602
vt 0.352257 0.642063
vt 0.316161 0.288533
vt 0.356458 0.305225
vt 0.316161 0.345521
vt 0.373150 0.345521
vt 0.275864 0.305225
vt 0.356458 0.385818
vt 0.259173 0.345521
vt 0.316161 0.402510
vt 0.275864 0.385818
vt 0.319170 0.820197
vt 0.311699 0.823291
vt 0.311699 0.812726
vt 0.353230 0.854257
vt 0.311699 0.871459
vt 0.304228 0.820197
vt 0.322264 0.812726
vt 0.270168 0.854257
vt 0.370432 0.812726
vt 0.301134 0.812726
vt 0.319170 0.805255
vt 0.252966 0.812726
vt 0.353230 0.771195
vt 0.304228 0.805255
vt 0.311699 0.802161
vt 0.270168 0.771195
vt 0.311699 0.753993
vt 0.720049 0.878133
vt 0.698895 0.878133
vt 0.698895 0.145108
vt 0.720049 0.145108
vt 0.677741 0.878133
vt 0.677741 0.145108
vt 0.776561 0.145108
vt 0.797715 0.145108
vt 0.797715 0.878133
vt 0.776561 0.878133
vt 0.818868 0.145108
vt 0.818868 0.878133
vn 0.329914 0.506728 -0.796482
vn 0.329914 0.506728 -0.796482
vn 0.329914 0.506728 -0.796482
vn 0.329914 0.506728 -0.796482
vn -0.329914 0.506729 -0.796481
vn -0.329914 0.506729 -0.796481
vn -0.329914 0.506729 -0.796481
vn -0.329914 0.506729 -0.796482
vn -0.796482 0.506729 -0.329913
vn -0.796482 0.506729 -0.329914
vn -0.796482 0.506729 -0.329913
vn -0.796482 0.506729 -0.329913
vn -0.796482 0.506729 0.329913
vn -0.796482 0.506729 0.329913
vn -0.796482 0.506729 0.329913
vn -0.796482 0.506729 0.329913
vn -0.329914 0.506729 0.796482
vn -0.329914 0.506729 0.796482
vn -0.329914 0.506729 0.796482
vn -0.329914 0.506729 0.796482
vn 0.329913 0.506729 0.796482
vn 0.329913 0.506729 0.796482
vn 0.329913 0.506729 0.796482
vn 0.329913 0.506729 0.796482
vn 0.796482 0.506729 0.329914
vn 0.796481 0.506729 0.329914
vn 0.796482 0.506729 0.329914
vn 0.796482 0.506729 0.329914
vn 0.796482 0.506729 -0.329914
vn 0.796482 0.506729 -0.329914
vn 0.796482 0.506729 -0.329914
vn 0.796482 0.506729 -0.329914
vn 0.000000 -1.000000 0.000000
vn 0.000000 -1.000000 0.000000
vn -0.000000 -1.000000 0.000000
vn -0.000000 -1.000000 -0.000001
vn -0.000000 -1.000000 0.000000
vn -0.000000 -1.000000 0.000001
vn 0.000000 -1.000000 0.000000
vn 0.000000 -1.000000 0.000000
vn 0.000000 -1.000000 0.000000
vn 0.000000 1.000000 -0.000016
vn 0.000000 1.000000 0.000000
vn 0.000000 1.000000 -0.000002
vn 0.000000 1.000000 0.000008
vn 0.000000 1.000000 -0.000008
vn 0.000000 1.000000 -0.000016
vn 0.000000 1.000000 0.000000
vn 0.000000 1.000000 0.000016
vn 0.000000 1.000000 0.000000
vn 0.320896 0.544837 -0.774712
vn 0.320896 0.544837 -0.774712
vn 0.320896 0.544837 -0.774712
vn 0.320896 0.544837 -0.774712
vn -0.320896 0.544837 -0.774712
vn -0.320896 0.544837 -0.774711
vn -0.320896 0.544837 -0.774712
vn -0.320896 0.544837 -0.774711
vn -0.774712 0.544837 -0.320896
vn -0.774712 0.544837 -0.320896
vn -0.774712 0.544837 -0.320896
vn -0.774712 0.544837 -0.320896
vn -0.774712 0.544837 0.320895
vn -0.774712 0.544837 0.320895
vn -0.774712 0.544837 0.320895
vn -0.774712 0.544837 0.320895
vn -0.320896 0.544837 0.774712
vn -0.320896 0.544837 0.774711
vn -0.320896 0.544837 0.774712
vn -0.320896 0.544837 0.774712
vn 0.320896 0.544837 0.774712
vn 0.320896 0.544837 0.774712
vn 0.320896 0.544837 0.774712
vn 0.320896 0.544837 0.774712
vn 0.774712 0.544837 0.320896
vn 0.774712 0.544837 0.320896
vn 0.774712 0.544837 0.320896
vn 0.774712 0.544837 0.320896
vn 0.774712 0.544837 -0.320896
vn 0.774712 0.544837 -0.320896
vn 0.774712 0.544837 -0.320896
vn 0.774712 0.544837 -0.320896
vn 0.000000 -1.000000 0.000000
vn 0.000000 -1.000000 0.000000
vn 0.000000 -1.000000 0.000000
vn 0.000000 -1.000000 0.000000
vn 0.000000 -1.000000 0.000000
vn 0.000000 -1.000000 0.000000
vn 0.000000 -1.000000 0.000000
vn 0.000000 -1.000000 0.000000
vn 0.000000 -1.000000 0.000000
vn 0.000000 1.000000 0.000000
vn 0.000000 1.000000 0.000000
vn 0.000000 1.000000 -0.000000
vn 0.000000 1.000000 -0.000001
vn 0.000000 1.000000 -0.000001
vn 0.000000 1.000000 0.000000
vn 0.000000 1.000000 0.000000
vn 0.000000 1.000000 0.000000
vn 0.000000 1.000000 0.000000
vn 0.280451 0.680386 -0.677069
vn 0.280451 0.680386 -0.677069
vn 0.280451 0.680386 -0.677069
vn 0.280451 0.680386 -0.677069
vn -0.280451 0.680386 -0.677069
vn -0.280451 0.680386 -0.677069
vn -0.280451 0.680386 -0.677069
vn -0.280451 0.680386 -0.677069
vn -0.677069 0.680385 -0.280451
vn -0.677069 0.680385 -0.280451
vn -0.677069 0.680385 -0.280451
vn -0.677069 0.680385 -0.280451
vn -0.677069 0.680385 0.280451
vn -0.677069 0.680385 0.280451
vn -0.677069 0.680385 0.280451
vn -0.677069 0.680385 0.280451
vn -0.280451 0.680386 0.677069
vn -0.280451 0.680386 0.677069
vn -0.280451 0.680386 0.677069
vn -0.280451 0.680386 0.677069
vn 0.280451 0.680386 0.677069
vn 0.280451 0.680386 0.677069
vn 0.280451 0.680386 0.677069
vn 0.280451 0.680386 0.677069
vn 0.677070 0.680385 0.280450
vn 0.677070 0.680385 0.280450
vn 0.677070 0.680385 0.280450
vn 0.677070 0.680385 0.280450
vn 0.677069 0.680385 -0.280451
vn 0.677069 0.680385 -0.280451
vn 0.677069 0.680385 -0.280451
vn 0.677069 0.680385 -0.280451
vn 0.000000 -1.000000 -0.000000
vn 0.000000 -1.000000 -0.000000
vn 0.000000 -1.000000 -0.000000
vn 0.000000 -1.000000 0.000000
vn 0.000000 -1.000000 -0.000000
vn 0.000000 -1.000000 -0.000000
vn 0.000000 -1.000000 -0.000000
vn 0.000000 -1.000000 0.000000
vn 0.000000 -1.000000 0.000000
vn 0.000000 1.000000 0.000000
vn 0.000000 1.000000 0.000000
vn 0.000000 1.000000 0.000000
vn 0.000000 1.000000 -0.000001
vn 0.000000 1.000000 0.000001
vn 0.000000 1.000000 0.000002
vn 0.000000 1.000000 0.000000
vn 0.000000 1.000000 0.000000
vn 0.000000 1.000000 0.000000
vn 0.382681 0.000000 -0.923880
vn 0.382681 0.000000 -0.923880
vn 0.382681 0.000000 -0.923880
vn 0.382681 0.000000 -0.923880
vn -0.382682 -0.000000 -0.923880
vn -0.382682 -0.000000 -0.923880
vn -0.382682 -0.000000 -0.923880
vn -0.382682 -0.000000 -0.923880
vn -0.923880 -0.000000 -0.382683
vn -0.923880 -0.000000 -0.382683
vn -0.923880 -0.000000 -0.382683
vn -0.923880 -0.000000 -0.382683
vn -0.923880 -0.000000 0.382683
vn -0.923880 -0.000000 0.382683
vn -0.923880 -0.000000 0.382683
vn -0.923880 -0.000000 0.382683
vn -0.382682 -0.000000 0.923880
vn -0.382682 -0.000000 0.923880
vn -0.382682 -0.000000 0.923880
vn -0.382682 -0.000000 0.923880
vn 0.382681 0.000000 0.923880
vn 0.382681 0.000000 0.923880
vn 0.382681 0.000000 0.923880
vn 0.382681 0.000000 0.923880
vn 0.923880 0.000000 0.382682
vn 0.923880 0.000000 0.382682
vn 0.923880 0.000000 0.382682
vn 0.923880 0.000000 0.382682
vn 0.923880 0.000000 -0.382683
vn 0.923880 0.000000 -0.382683
vn 0.923880 0.000000 -0.382683
vn 0.923880 0.000000 -0.382683
vn 0.000000 -1.000000 0.000000
vn 0.000000 -1.000000 0.000000
vn 0.000000 -1.000000 0.000000
vn 0.000000 -1.000000 0.000000
vn 0.000000 -1.000000 0.000000
vn 0.000000 -1.000000 0.000000
vn 0.000000 -1.000000 0.000000
vn 0.000000 -1.000000 0.000000
vn 0.000000 -1.000000 0.000000
vn 0.000000 1.000000 0.000000
vn 0.000000 1.000000 -0.000000
vn 0.000000 1.000000 -0.000000
vn 0.000000 1.000000 -0.000000
vn 0.000000 1.000000 0.000000
vn 0.000000 1.000000 0.000000
vn 0.000000 1.000000 -0.000000
vn 0.000000 1.000000 -0.000000
vn 0.000000 1.000000 0.000000
vn 0.296334 0.632746 -0.715415
vn 0.296334 0.632746 -0.715415
vn 0.296334 0.632746 -0.715415
vn 0.296334 0.632746 -0.715415
vn -0.296334 0.632746 -0.715415
vn -0.296334 0.632746 -0.715415
vn -0.296334 0.632746 -0.715415
vn -0.296334 0.632746 -0.715415
vn -0.715415 0.632746 -0.296334
vn -0.715415 0.632746 -0.296334
vn -0.715415 0.632746 -0.296334
vn -0.715415 0.632746 -0.296334
vn -0.715415 0.632746 0.296334
vn -0.715415 0.632746 0.296334
vn -0.715415 0.632746 0.296334
vn -0.715415 0.632746 0.296334
vn -0.296334 0.632746 0.715415
vn -0.296334 0.632746 0.715415
vn -0.296334 0.632746 0.715415
vn -0.296334 0.632746 0.715415
vn 0.296334 0.632746 0.715415
vn 0.296334 0.632746 0.715415
vn 0.296334 0.632746 0.715415
vn 0.296334 0.632746 0.715415
vn 0.715415 0.632746 0.296334
vn 0.715415 0.632746 0.296334
vn 0.715415 0.632746 0.296334
vn 0.715415 0.632746 0.296334
vn 0.715415 0.632746 -0.296334
vn 0.715415 0.632746 -0.296334
vn 0.715415 0.632746 -0.296334
vn 0.715415 0.632746 -0.296334
vn 0.000000 -0.999997 -0.002416
vn 0.001708 -0.999997 -0.001708
vn -0.000000 -1.000000 -0.000000
vn -0.001708 -0.999997 -0.001708
vn -0.002416 -0.999997 0.000000
vn -0.001708 -0.999997 0.001708
vn 0.000000 -0.999997 0.002416
vn 0.001708 -0.999997 0.001708
vn 0.002416 -0.999997 -0.000000
vn -0.000001 1.000000 0.000001
vn -0.000000 1.000000 0.000002
vn 0.000000 1.000000 -0.000000
vn 0.000001 1.000000 0.000002
vn 0.000001 1.000000 -0.000001
vn 0.000001 1.000000 -0.000002
vn -0.000000 1.000000 -0.000002
vn -0.000001 1.000000 -0.000001
vn -0.000001 1.000000 0.000000
s off
g Tree3
usemtl aiStandardSurface4SG
f 1/25/1 2/26/2 10/23/3 9/22/4
f 2/26/5 3/29/6 11/27/7 10/23/8
f 3/29/9 4/33/10 12/31/11 11/27/12
f 4/33/13 5/37/14 13/35/15 12/31/16
f 5/37/17 6/38/18 14/36/19 13/35/20
f 6/38/21 7/34/22 15/32/23 14/36/24
f 7/34/25 8/30/26 16/28/27 15/32/28
f 8/30/29 1/25/30 9/22/31 16/28/32
s 1
f 2/13/33 1/14/34 17/15/35
f 3/17/36 2/13/33 17/15/35
f 4/19/37 3/17/36 17/15/35
f 5/21/38 4/19/37 17/15/35
f 6/20/39 5/21/38 17/15/35
f 7/18/40 6/20/39 17/15/35
f 8/16/41 7/18/40 17/15/35
f 1/14/34 8/16/41 17/15/35
s 2
f 9/22/42 10/23/43 18/24/44
f 10/23/43 11/27/45 18/24/44
f 11/27/45 12/31/46 18/24/44
f 12/31/46 13/35/47 18/24/44
f 13/35/47 14/36/48 18/24/44
f 14/36/48 15/32/49 18/24/44
f 15/32/49 16/28/50 18/24/44
f 16/28/50 9/22/42 18/24/44
s off
f 19/51/51 20/52/52 28/49/53 27/48/54
f 20/52/55 21/55/56 29/53/57 28/49/58
f 21/55/59 22/59/60 30/57/61 29/53/62
f 22/59/63 23/63/64 31/61/65 30/57/66
f 23/63/67 24/64/68 32/62/69 31/61/70
f 24/64/71 25/60/72 33/58/73 32/62/74
f 25/60/75 26/56/76 34/54/77 33/58/78
f 26/56/79 19/51/80 27/48/81 34/54/82
s 3
f 20/39/83 19/40/84 35/41/85
f 21/43/86 20/39/83 35/41/85
f 22/45/87 21/43/86 35/41/85
f 23/47/88 22/45/87 35/41/85
f 24/46/89 23/47/88 35/41/85
f 25/44/90 24/46/89 35/41/85
f 26/42/91 25/44/90 35/41/85
f 19/40/84 26/42/91 35/41/85
s 4
f 27/48/92 28/49/93 36/50/94
f 28/49/93 29/53/95 36/50/94
f 29/53/95 30/57/96 36/50/94
f 30/57/96 31/61/97 36/50/94
f 31/61/97 32/62/98 36/50/94
f 32/62/98 33/58/99 36/50/94
f 33/58/99 34/54/100 36/50/94
f 34/54/100 27/48/92 36/50/94
s off
f 37/77/101 38/78/102 46/75/103 45/74/104
f 38/78/105 39/81/106 47/79/107 46/75/108
f 39/81/109 40/85/110 48/83/111 47/79/112
f 40/85/113 41/89/114 49/87/115 48/83/116
f 41/89/117 42/90/118 50/88/119 49/87/120
f 42/90/121 43/86/122 51/84/123 50/88/124
f 43/86/125 44/82/126 52/80/127 51/84/128
f 44/82/129 37/77/130 45/74/131 52/80/132
s 5
f 38/65/133 37/66/134 53/67/135
f 39/69/136 38/65/133 53/67/135
f 40/71/137 39/69/136 53/67/135
f 41/73/138 40/71/137 53/67/135
f 42/72/139 41/73/138 53/67/135
f 43/70/140 42/72/139 53/67/135
f 44/68/141 43/70/140 53/67/135
f 37/66/134 44/68/141 53/67/135
s 6
f 45/74/142 46/75/143 54/76/144
f 46/75/143 47/79/145 54/76/144
f 47/79/145 48/83/146 54/76/144
f 48/83/146 49/87/147 54/76/144
f 49/87/147 50/88/148 54/76/144
f 50/88/148 51/84/149 54/76/144
f 51/84/149 52/80/150 54/76/144
f 52/80/150 45/74/142 54/76/144
s off
f 55/135/151 56/136/152 64/137/153 63/138/154
f 56/136/155 57/139/156 65/140/157 64/137/158
f 57/1/159 58/2/160 66/3/161 65/4/162
f 58/2/163 59/5/164 67/6/165 66/3/166
f 59/141/167 60/142/168 68/143/169 67/144/170
f 60/142/171 61/145/172 69/146/173 68/143/174
f 61/7/175 62/8/176 70/9/177 69/10/178
f 62/8/179 55/11/180 63/12/181 70/9/182
s 7
f 56/91/183 55/92/184 71/93/185
f 57/95/186 56/91/183 71/93/185
f 58/97/187 57/95/186 71/93/185
f 59/99/188 58/97/187 71/93/185
f 60/98/189 59/99/188 71/93/185
f 61/96/190 60/98/189 71/93/185
f 62/94/191 61/96/190 71/93/185
f 55/92/184 62/94/191 71/93/185
s 8
f 63/100/192 64/101/193 72/102/194
f 64/101/193 65/103/195 72/102/194
f 65/103/195 66/105/196 72/102/194
f 66/105/196 67/107/197 72/102/194
f 67/107/197 68/108/198 72/102/194
f 68/108/198 69/106/199 72/102/194
f 69/106/199 70/104/200 72/102/194
f 70/104/200 63/100/192 72/102/194
s off
f 73/121/201 74/122/202 82/119/203 81/118/204
f 74/122/205 75/125/206 83/123/207 82/119/208
f 75/125/209 76/129/210 84/127/211 83/123/212
f 76/129/213 77/133/214 85/131/215 84/127/216
f 77/133/217 78/134/218 86/132/219 85/131/220
f 78/134/221 79/130/222 87/128/223 86/132/224
f 79/130/225 80/126/226 88/124/227 87/128/228
f 80/126/229 73/121/230 81/118/231 88/124/232
s 9
f 74/109/233 73/110/234 89/111/235
f 75/113/236 74/109/233 89/111/235
f 76/115/237 75/113/236 89/111/235
f 77/117/238 76/115/237 89/111/235
f 78/116/239 77/117/238 89/111/235
f 79/114/240 78/116/239 89/111/235
f 80/112/241 79/114/240 89/111/235
f 73/110/234 80/112/241 89/111/235
s 10
f 81/118/242 82/119/243 90/120/244
f 82/119/243 83/123/245 90/120/244
f 83/123/245 84/127/246 90/120/244
f 84/127/246 85/131/247 90/120/244
f 85/131/247 86/132/248 90/120/244
f 86/132/248 87/128/249 90/120/244
f 87/128/249 88/124/250 90/120/244
f 88/124/250 81/118/242 90/120/244
